<mxfile host="app.diagrams.net" agent="Mozilla/5.0 (Windows NT 10.0; Win64; x64) AppleWebKit/537.36 (KHTML, like Gecko) Chrome/129.0.0.0 Safari/537.36 Edg/129.0.0.0" version="24.7.17">
  <diagram id="f106602c-feb2-e66a-4537-3a34d633f6aa" name="Page-1">
    <mxGraphModel dx="2037" dy="1116" grid="1" gridSize="10" guides="1" tooltips="1" connect="1" arrows="1" fold="1" page="1" pageScale="1" pageWidth="1169" pageHeight="827" background="none" math="0" shadow="0">
      <root>
        <mxCell id="0" />
        <mxCell id="1" parent="0" />
        <mxCell id="Lif8JBEafslfNm7ranTe-1" value="&lt;b&gt;Google &lt;/b&gt;Cloud Platform" style="fillColor=#F6F6F6;strokeColor=none;shadow=0;gradientColor=none;fontSize=14;align=left;spacing=10;fontColor=#717171;9E9E9E;verticalAlign=top;spacingTop=-4;fontStyle=0;spacingLeft=40;html=1;" parent="1" vertex="1">
          <mxGeometry x="585" y="203.49" width="530" height="475.02" as="geometry" />
        </mxCell>
        <mxCell id="Lif8JBEafslfNm7ranTe-2" value="" style="shape=mxgraph.gcp2.google_cloud_platform;fillColor=#F6F6F6;strokeColor=none;shadow=0;gradientColor=none;" parent="Lif8JBEafslfNm7ranTe-1" vertex="1">
          <mxGeometry width="23" height="20" relative="1" as="geometry">
            <mxPoint x="20" y="10" as="offset" />
          </mxGeometry>
        </mxCell>
        <mxCell id="o6JNWIDiicLb6SiJitLu-25" style="edgeStyle=orthogonalEdgeStyle;rounded=0;orthogonalLoop=1;jettySize=auto;html=1;exitX=1;exitY=0.5;exitDx=0;exitDy=0;entryX=0;entryY=0.5;entryDx=0;entryDy=0;fillColor=#dae8fc;strokeColor=#6c8ebf;" edge="1" parent="Lif8JBEafslfNm7ranTe-1" source="o6JNWIDiicLb6SiJitLu-9" target="o6JNWIDiicLb6SiJitLu-14">
          <mxGeometry relative="1" as="geometry" />
        </mxCell>
        <mxCell id="o6JNWIDiicLb6SiJitLu-9" value="Pub/Sub&lt;div&gt;CatLineasAereas&lt;/div&gt;" style="sketch=0;html=1;verticalAlign=top;labelPosition=center;verticalLabelPosition=bottom;align=center;spacingTop=-6;fontSize=11;fontStyle=1;fontColor=#999999;shape=image;aspect=fixed;imageAspect=0;image=data:image/svg+xml,PHN2ZyB4bWxucz0iaHR0cDovL3d3dy53My5vcmcvMjAwMC9zdmciIHhtbG5zOnY9Imh0dHBzOi8vdmVjdGEuaW8vbmFubyIgd2lkdGg9IjE4LjMxOTk5OTY5NDgyNDIyIiBoZWlnaHQ9IjIwLjAwMDAwMTkwNzM0ODYzMyIgdmlld0JveD0iMCAwIDE4LjMxOTk5OTY5NDgyNDIyIDIwLjAwMDAwMTkwNzM0ODYzMyI+JiN4YTsJPHN0eWxlIHR5cGU9InRleHQvY3NzIj4mI3hhOwkuc3Qwe2ZpbGw6IzY2OWRmNjt9JiN4YTsJLnN0MXtmaWxsOiM0Mjg1ZjQ7fSYjeGE7CS5zdDJ7ZmlsbDojYWVjYmZhO30mI3hhOwk8L3N0eWxlPiYjeGE7CTxkZWZzPiYjeGE7CQk8ZmlsdGVyIGlkPSJBIiB4PSI0LjY0IiB5PSI0LjE5IiB3aWR0aD0iMTQuNzMiIGhlaWdodD0iMTIuNzYiIGZpbHRlclVuaXRzPSJ1c2VyU3BhY2VPblVzZSIgY29sb3ItaW50ZXJwb2xhdGlvbi1maWx0ZXJzPSJzUkdCIj4mI3hhOwkJCTxmZUZsb29kIGZsb29kLWNvbG9yPSIjZmZmIi8+JiN4YTsJCQk8ZmVCbGVuZCBpbj0iU291cmNlR3JhcGhpYyIvPiYjeGE7CQk8L2ZpbHRlcj4mI3hhOwkJPG1hc2sgaWQ9IkIiIHg9IjQuNjQiIHk9IjQuMTkiIHdpZHRoPSIxNC43MyIgaGVpZ2h0PSIxMi43NiIgbWFza1VuaXRzPSJ1c2VyU3BhY2VPblVzZSI+JiN4YTsJCQk8Y2lyY2xlIGN4PSIxMiIgY3k9IjEyLjIzIiByPSIzLjU4IiBmaWx0ZXI9InVybCgjQSkiLz4mI3hhOwkJPC9tYXNrPiYjeGE7CTwvZGVmcz4mI3hhOwk8ZyBjbGFzcz0ic3QwIj4mI3hhOwkJPGNpcmNsZSBjeD0iMTYuMTMiIGN5PSI2LjIxIiByPSIxLjcyIi8+JiN4YTsJCTxjaXJjbGUgY3g9IjIuMTkiIGN5PSI2LjIxIiByPSIxLjcyIi8+JiN4YTsJCTxjaXJjbGUgY3g9IjkuMTYiIGN5PSIxOC4yOCIgcj0iMS43MiIvPiYjeGE7CTwvZz4mI3hhOwk8ZyBtYXNrPSJ1cmwoI0IpIiB0cmFuc2Zvcm09InRyYW5zbGF0ZSgtMi44NCAtMikiPiYjeGE7CQk8cGF0aCB0cmFuc2Zvcm09Im1hdHJpeCguNSAtLjg3IC44NyAuNSAtNC41OSAyMC41MykiIGQ9Ik0xNC42OSAxMC4yMmgxLjU5djguMDRoLTEuNTl6IiBjbGFzcz0ic3QxIi8+JiN4YTsJCTxwYXRoIHRyYW5zZm9ybT0icm90YXRlKDMzMCA4LjUyMyAxNC4yNDQpIiBkPSJNNC40OSAxMy40NWg4LjA0djEuNTlINC40OXoiIGNsYXNzPSJzdDEiLz4mI3hhOwkJPHBhdGggZD0iTTExLjIgNC4xOWgxLjU5djguMDRIMTEuMnoiIGNsYXNzPSJzdDEiLz4mI3hhOwk8L2c+JiN4YTsJPGcgY2xhc3M9InN0MiI+JiN4YTsJCTxjaXJjbGUgY3g9IjkuMTYiIGN5PSIxMC4yMyIgcj0iMi43OCIvPiYjeGE7CQk8Y2lyY2xlIGN4PSIyLjE5IiBjeT0iMTQuMjUiIHI9IjIuMTkiLz4mI3hhOwkJPGNpcmNsZSBjeD0iMTYuMTMiIGN5PSIxNC4yNSIgcj0iMi4xOSIvPiYjeGE7CQk8Y2lyY2xlIGN4PSI5LjE2IiBjeT0iMi4xOSIgcj0iMi4xOSIvPiYjeGE7CTwvZz4mI3hhOzwvc3ZnPg==;" vertex="1" parent="Lif8JBEafslfNm7ranTe-1">
          <mxGeometry x="51.84782608695652" y="51.716978851963745" width="38" height="42" as="geometry" />
        </mxCell>
        <mxCell id="o6JNWIDiicLb6SiJitLu-14" value="" style="strokeColor=#dddddd;shadow=1;strokeWidth=1;rounded=1;absoluteArcSize=1;arcSize=2;" vertex="1" parent="Lif8JBEafslfNm7ranTe-1">
          <mxGeometry x="305.33" y="45.44" width="194.67" height="54.56" as="geometry" />
        </mxCell>
        <mxCell id="o6JNWIDiicLb6SiJitLu-15" value="BigQuery&lt;div&gt;Dataset: Central&lt;br&gt;&lt;div&gt;Table:&amp;nbsp;&lt;span style=&quot;font-size: 11px; font-weight: 700; text-align: center; background-color: initial;&quot;&gt;CatLineasAereas&lt;/span&gt;&lt;/div&gt;&lt;/div&gt;" style="editableCssRules=.*;html=1;fontColor=#999999;shape=image;verticalLabelPosition=middle;verticalAlign=middle;labelPosition=right;align=left;spacingLeft=20;part=1;points=[];imageAspect=0;image=data:image/svg+xml,PHN2ZyB4bWxucz0iaHR0cDovL3d3dy53My5vcmcvMjAwMC9zdmciIHhtbG5zOnY9Imh0dHBzOi8vdmVjdGEuaW8vbmFubyIgd2lkdGg9IjIwLjAwMTA0NTIyNzA1MDc4IiBoZWlnaHQ9IjIwLjAwMTA0NTIyNzA1MDc4IiBmaWxsLXJ1bGU9ImV2ZW5vZGQiIHZpZXdCb3g9IjAgMCAyMC4wMDEwNDUyMjcwNTA3OCAyMC4wMDEwNDUyMjcwNTA3OCI+JiN4YTsJPHN0eWxlIHR5cGU9InRleHQvY3NzIj4mI3hhOwkuc3Qwe2ZpbGw6I2FlY2JmYTt9JiN4YTsJLnN0MXtmaWxsOiM2NjlkZjY7fSYjeGE7CS5zdDJ7ZmlsbDojNDI4NWY0O30mI3hhOwk8L3N0eWxlPiYjeGE7CTxwYXRoIGNsYXNzPSJzdDAiIGQ9Ik00LjczIDguODN2Mi42M2E0LjkxIDQuOTEgMCAwIDAgMS43MSAxLjc0VjguODN6Ii8+JiN4YTsJPHBhdGggY2xhc3M9InN0MSIgZD0iTTcuODkgNi40MXY3LjUzQTcuNjIgNy42MiAwIDAgMCA5IDE0YTggOCAwIDAgMCAxIDBWNi40MXoiLz4mI3hhOwk8cGF0aCBjbGFzcz0ic3QwIiBkPSJNMTEuNjQgOS44NnYzLjI5YTUgNSAwIDAgMCAxLjctMS44MlY5Ljg2eiIvPiYjeGE7CTxwYXRoIGNsYXNzPSJzdDIiIGQ9Ik0xNS43NCAxNC4zMmwtMS40MiAxLjQyYS40Mi40MiAwIDAgMCAwIC42bDMuNTQgMy41NGEuNDIuNDIgMCAwIDAgLjU5IDBsMS40My0xLjQzYS40Mi40MiAwIDAgMCAwLS41OWwtMy41NC0zLjU0YS40Mi40MiAwIDAgMC0uNiAwIi8+JiN4YTsJPHBhdGggY2xhc3M9InN0MSIgZD0iTTkgMGE5IDkgMCAxIDAgMCAxOEE5IDkgMCAxIDAgOSAwbTAgMTUuNjlhNi42OCA2LjY4IDAgMCAxIC4wMDctMTMuMzYgNi42OCA2LjY4IDAgMCAxIDQuNzI3IDExLjQwM0E2LjY4IDYuNjggMCAwIDEgOSAxNS42OSIvPiYjeGE7PC9zdmc+;" vertex="1" parent="o6JNWIDiicLb6SiJitLu-14">
          <mxGeometry width="30" height="30" relative="1" as="geometry">
            <mxPoint x="15" y="15" as="offset" />
          </mxGeometry>
        </mxCell>
        <mxCell id="o6JNWIDiicLb6SiJitLu-16" value="&#xa;" style="strokeColor=#dddddd;shadow=1;strokeWidth=1;rounded=1;absoluteArcSize=1;arcSize=2;" vertex="1" parent="Lif8JBEafslfNm7ranTe-1">
          <mxGeometry x="305.33" y="130" width="194.67" height="53.81" as="geometry" />
        </mxCell>
        <mxCell id="o6JNWIDiicLb6SiJitLu-17" value="BigQuery&lt;div&gt;Dataset: Sucursal 1&lt;br&gt;&lt;div&gt;Table: Pasajeros&lt;/div&gt;&lt;/div&gt;" style="editableCssRules=.*;html=1;fontColor=#999999;shape=image;verticalLabelPosition=middle;verticalAlign=middle;labelPosition=right;align=left;spacingLeft=20;part=1;points=[];imageAspect=0;image=data:image/svg+xml,PHN2ZyB4bWxucz0iaHR0cDovL3d3dy53My5vcmcvMjAwMC9zdmciIHhtbG5zOnY9Imh0dHBzOi8vdmVjdGEuaW8vbmFubyIgd2lkdGg9IjIwLjAwMTA0NTIyNzA1MDc4IiBoZWlnaHQ9IjIwLjAwMTA0NTIyNzA1MDc4IiBmaWxsLXJ1bGU9ImV2ZW5vZGQiIHZpZXdCb3g9IjAgMCAyMC4wMDEwNDUyMjcwNTA3OCAyMC4wMDEwNDUyMjcwNTA3OCI+JiN4YTsJPHN0eWxlIHR5cGU9InRleHQvY3NzIj4mI3hhOwkuc3Qwe2ZpbGw6I2FlY2JmYTt9JiN4YTsJLnN0MXtmaWxsOiM2NjlkZjY7fSYjeGE7CS5zdDJ7ZmlsbDojNDI4NWY0O30mI3hhOwk8L3N0eWxlPiYjeGE7CTxwYXRoIGNsYXNzPSJzdDAiIGQ9Ik00LjczIDguODN2Mi42M2E0LjkxIDQuOTEgMCAwIDAgMS43MSAxLjc0VjguODN6Ii8+JiN4YTsJPHBhdGggY2xhc3M9InN0MSIgZD0iTTcuODkgNi40MXY3LjUzQTcuNjIgNy42MiAwIDAgMCA5IDE0YTggOCAwIDAgMCAxIDBWNi40MXoiLz4mI3hhOwk8cGF0aCBjbGFzcz0ic3QwIiBkPSJNMTEuNjQgOS44NnYzLjI5YTUgNSAwIDAgMCAxLjctMS44MlY5Ljg2eiIvPiYjeGE7CTxwYXRoIGNsYXNzPSJzdDIiIGQ9Ik0xNS43NCAxNC4zMmwtMS40MiAxLjQyYS40Mi40MiAwIDAgMCAwIC42bDMuNTQgMy41NGEuNDIuNDIgMCAwIDAgLjU5IDBsMS40My0xLjQzYS40Mi40MiAwIDAgMCAwLS41OWwtMy41NC0zLjU0YS40Mi40MiAwIDAgMC0uNiAwIi8+JiN4YTsJPHBhdGggY2xhc3M9InN0MSIgZD0iTTkgMGE5IDkgMCAxIDAgMCAxOEE5IDkgMCAxIDAgOSAwbTAgMTUuNjlhNi42OCA2LjY4IDAgMCAxIC4wMDctMTMuMzYgNi42OCA2LjY4IDAgMCAxIDQuNzI3IDExLjQwM0E2LjY4IDYuNjggMCAwIDEgOSAxNS42OSIvPiYjeGE7PC9zdmc+;" vertex="1" parent="o6JNWIDiicLb6SiJitLu-16">
          <mxGeometry width="30" height="30" relative="1" as="geometry">
            <mxPoint x="15" y="15" as="offset" />
          </mxGeometry>
        </mxCell>
        <mxCell id="o6JNWIDiicLb6SiJitLu-18" value="" style="strokeColor=#dddddd;shadow=1;strokeWidth=1;rounded=1;absoluteArcSize=1;arcSize=2;" vertex="1" parent="Lif8JBEafslfNm7ranTe-1">
          <mxGeometry x="305.33" y="220" width="194.67" height="54.41" as="geometry" />
        </mxCell>
        <mxCell id="o6JNWIDiicLb6SiJitLu-19" value="BigQuery&lt;div&gt;Dataset: Sucursal 1&lt;br&gt;&lt;div&gt;Table: Vuelos&lt;/div&gt;&lt;/div&gt;" style="editableCssRules=.*;html=1;fontColor=#999999;shape=image;verticalLabelPosition=middle;verticalAlign=middle;labelPosition=right;align=left;spacingLeft=20;part=1;points=[];imageAspect=0;image=data:image/svg+xml,PHN2ZyB4bWxucz0iaHR0cDovL3d3dy53My5vcmcvMjAwMC9zdmciIHhtbG5zOnY9Imh0dHBzOi8vdmVjdGEuaW8vbmFubyIgd2lkdGg9IjIwLjAwMTA0NTIyNzA1MDc4IiBoZWlnaHQ9IjIwLjAwMTA0NTIyNzA1MDc4IiBmaWxsLXJ1bGU9ImV2ZW5vZGQiIHZpZXdCb3g9IjAgMCAyMC4wMDEwNDUyMjcwNTA3OCAyMC4wMDEwNDUyMjcwNTA3OCI+JiN4YTsJPHN0eWxlIHR5cGU9InRleHQvY3NzIj4mI3hhOwkuc3Qwe2ZpbGw6I2FlY2JmYTt9JiN4YTsJLnN0MXtmaWxsOiM2NjlkZjY7fSYjeGE7CS5zdDJ7ZmlsbDojNDI4NWY0O30mI3hhOwk8L3N0eWxlPiYjeGE7CTxwYXRoIGNsYXNzPSJzdDAiIGQ9Ik00LjczIDguODN2Mi42M2E0LjkxIDQuOTEgMCAwIDAgMS43MSAxLjc0VjguODN6Ii8+JiN4YTsJPHBhdGggY2xhc3M9InN0MSIgZD0iTTcuODkgNi40MXY3LjUzQTcuNjIgNy42MiAwIDAgMCA5IDE0YTggOCAwIDAgMCAxIDBWNi40MXoiLz4mI3hhOwk8cGF0aCBjbGFzcz0ic3QwIiBkPSJNMTEuNjQgOS44NnYzLjI5YTUgNSAwIDAgMCAxLjctMS44MlY5Ljg2eiIvPiYjeGE7CTxwYXRoIGNsYXNzPSJzdDIiIGQ9Ik0xNS43NCAxNC4zMmwtMS40MiAxLjQyYS40Mi40MiAwIDAgMCAwIC42bDMuNTQgMy41NGEuNDIuNDIgMCAwIDAgLjU5IDBsMS40My0xLjQzYS40Mi40MiAwIDAgMCAwLS41OWwtMy41NC0zLjU0YS40Mi40MiAwIDAgMC0uNiAwIi8+JiN4YTsJPHBhdGggY2xhc3M9InN0MSIgZD0iTTkgMGE5IDkgMCAxIDAgMCAxOEE5IDkgMCAxIDAgOSAwbTAgMTUuNjlhNi42OCA2LjY4IDAgMCAxIC4wMDctMTMuMzYgNi42OCA2LjY4IDAgMCAxIDQuNzI3IDExLjQwM0E2LjY4IDYuNjggMCAwIDEgOSAxNS42OSIvPiYjeGE7PC9zdmc+;" vertex="1" parent="o6JNWIDiicLb6SiJitLu-18">
          <mxGeometry width="30" height="30" relative="1" as="geometry">
            <mxPoint x="15" y="15" as="offset" />
          </mxGeometry>
        </mxCell>
        <mxCell id="o6JNWIDiicLb6SiJitLu-20" value="" style="strokeColor=#dddddd;shadow=1;strokeWidth=1;rounded=1;absoluteArcSize=1;arcSize=2;" vertex="1" parent="Lif8JBEafslfNm7ranTe-1">
          <mxGeometry x="305.33" y="300" width="194.67" height="55.02" as="geometry" />
        </mxCell>
        <mxCell id="o6JNWIDiicLb6SiJitLu-21" value="BigQuery&lt;div&gt;Dataset: Sucursal 2&lt;br&gt;&lt;div&gt;Table: Pasajeros&lt;/div&gt;&lt;/div&gt;" style="editableCssRules=.*;html=1;fontColor=#999999;shape=image;verticalLabelPosition=middle;verticalAlign=middle;labelPosition=right;align=left;spacingLeft=20;part=1;points=[];imageAspect=0;image=data:image/svg+xml,PHN2ZyB4bWxucz0iaHR0cDovL3d3dy53My5vcmcvMjAwMC9zdmciIHhtbG5zOnY9Imh0dHBzOi8vdmVjdGEuaW8vbmFubyIgd2lkdGg9IjIwLjAwMTA0NTIyNzA1MDc4IiBoZWlnaHQ9IjIwLjAwMTA0NTIyNzA1MDc4IiBmaWxsLXJ1bGU9ImV2ZW5vZGQiIHZpZXdCb3g9IjAgMCAyMC4wMDEwNDUyMjcwNTA3OCAyMC4wMDEwNDUyMjcwNTA3OCI+JiN4YTsJPHN0eWxlIHR5cGU9InRleHQvY3NzIj4mI3hhOwkuc3Qwe2ZpbGw6I2FlY2JmYTt9JiN4YTsJLnN0MXtmaWxsOiM2NjlkZjY7fSYjeGE7CS5zdDJ7ZmlsbDojNDI4NWY0O30mI3hhOwk8L3N0eWxlPiYjeGE7CTxwYXRoIGNsYXNzPSJzdDAiIGQ9Ik00LjczIDguODN2Mi42M2E0LjkxIDQuOTEgMCAwIDAgMS43MSAxLjc0VjguODN6Ii8+JiN4YTsJPHBhdGggY2xhc3M9InN0MSIgZD0iTTcuODkgNi40MXY3LjUzQTcuNjIgNy42MiAwIDAgMCA5IDE0YTggOCAwIDAgMCAxIDBWNi40MXoiLz4mI3hhOwk8cGF0aCBjbGFzcz0ic3QwIiBkPSJNMTEuNjQgOS44NnYzLjI5YTUgNSAwIDAgMCAxLjctMS44MlY5Ljg2eiIvPiYjeGE7CTxwYXRoIGNsYXNzPSJzdDIiIGQ9Ik0xNS43NCAxNC4zMmwtMS40MiAxLjQyYS40Mi40MiAwIDAgMCAwIC42bDMuNTQgMy41NGEuNDIuNDIgMCAwIDAgLjU5IDBsMS40My0xLjQzYS40Mi40MiAwIDAgMCAwLS41OWwtMy41NC0zLjU0YS40Mi40MiAwIDAgMC0uNiAwIi8+JiN4YTsJPHBhdGggY2xhc3M9InN0MSIgZD0iTTkgMGE5IDkgMCAxIDAgMCAxOEE5IDkgMCAxIDAgOSAwbTAgMTUuNjlhNi42OCA2LjY4IDAgMCAxIC4wMDctMTMuMzYgNi42OCA2LjY4IDAgMCAxIDQuNzI3IDExLjQwM0E2LjY4IDYuNjggMCAwIDEgOSAxNS42OSIvPiYjeGE7PC9zdmc+;" vertex="1" parent="o6JNWIDiicLb6SiJitLu-20">
          <mxGeometry width="30" height="30" relative="1" as="geometry">
            <mxPoint x="15" y="15" as="offset" />
          </mxGeometry>
        </mxCell>
        <mxCell id="o6JNWIDiicLb6SiJitLu-22" value="" style="strokeColor=#dddddd;shadow=1;strokeWidth=1;rounded=1;absoluteArcSize=1;arcSize=2;" vertex="1" parent="Lif8JBEafslfNm7ranTe-1">
          <mxGeometry x="305.33" y="380" width="194.67" height="55.02" as="geometry" />
        </mxCell>
        <mxCell id="o6JNWIDiicLb6SiJitLu-23" value="BigQuery&lt;div&gt;Dataset: Sucursal 2&lt;br&gt;&lt;div&gt;Table: Vuelos&lt;/div&gt;&lt;/div&gt;" style="editableCssRules=.*;html=1;fontColor=#999999;shape=image;verticalLabelPosition=middle;verticalAlign=middle;labelPosition=right;align=left;spacingLeft=20;part=1;points=[];imageAspect=0;image=data:image/svg+xml,PHN2ZyB4bWxucz0iaHR0cDovL3d3dy53My5vcmcvMjAwMC9zdmciIHhtbG5zOnY9Imh0dHBzOi8vdmVjdGEuaW8vbmFubyIgd2lkdGg9IjIwLjAwMTA0NTIyNzA1MDc4IiBoZWlnaHQ9IjIwLjAwMTA0NTIyNzA1MDc4IiBmaWxsLXJ1bGU9ImV2ZW5vZGQiIHZpZXdCb3g9IjAgMCAyMC4wMDEwNDUyMjcwNTA3OCAyMC4wMDEwNDUyMjcwNTA3OCI+JiN4YTsJPHN0eWxlIHR5cGU9InRleHQvY3NzIj4mI3hhOwkuc3Qwe2ZpbGw6I2FlY2JmYTt9JiN4YTsJLnN0MXtmaWxsOiM2NjlkZjY7fSYjeGE7CS5zdDJ7ZmlsbDojNDI4NWY0O30mI3hhOwk8L3N0eWxlPiYjeGE7CTxwYXRoIGNsYXNzPSJzdDAiIGQ9Ik00LjczIDguODN2Mi42M2E0LjkxIDQuOTEgMCAwIDAgMS43MSAxLjc0VjguODN6Ii8+JiN4YTsJPHBhdGggY2xhc3M9InN0MSIgZD0iTTcuODkgNi40MXY3LjUzQTcuNjIgNy42MiAwIDAgMCA5IDE0YTggOCAwIDAgMCAxIDBWNi40MXoiLz4mI3hhOwk8cGF0aCBjbGFzcz0ic3QwIiBkPSJNMTEuNjQgOS44NnYzLjI5YTUgNSAwIDAgMCAxLjctMS44MlY5Ljg2eiIvPiYjeGE7CTxwYXRoIGNsYXNzPSJzdDIiIGQ9Ik0xNS43NCAxNC4zMmwtMS40MiAxLjQyYS40Mi40MiAwIDAgMCAwIC42bDMuNTQgMy41NGEuNDIuNDIgMCAwIDAgLjU5IDBsMS40My0xLjQzYS40Mi40MiAwIDAgMCAwLS41OWwtMy41NC0zLjU0YS40Mi40MiAwIDAgMC0uNiAwIi8+JiN4YTsJPHBhdGggY2xhc3M9InN0MSIgZD0iTTkgMGE5IDkgMCAxIDAgMCAxOEE5IDkgMCAxIDAgOSAwbTAgMTUuNjlhNi42OCA2LjY4IDAgMCAxIC4wMDctMTMuMzYgNi42OCA2LjY4IDAgMCAxIDQuNzI3IDExLjQwM0E2LjY4IDYuNjggMCAwIDEgOSAxNS42OSIvPiYjeGE7PC9zdmc+;" vertex="1" parent="o6JNWIDiicLb6SiJitLu-22">
          <mxGeometry width="30" height="30" relative="1" as="geometry">
            <mxPoint x="15" y="15" as="offset" />
          </mxGeometry>
        </mxCell>
        <mxCell id="o6JNWIDiicLb6SiJitLu-29" style="edgeStyle=orthogonalEdgeStyle;rounded=0;orthogonalLoop=1;jettySize=auto;html=1;exitX=1;exitY=0.5;exitDx=0;exitDy=0;entryX=0;entryY=0.5;entryDx=0;entryDy=0;fillColor=#dae8fc;strokeColor=#6c8ebf;" edge="1" parent="Lif8JBEafslfNm7ranTe-1" source="o6JNWIDiicLb6SiJitLu-13" target="o6JNWIDiicLb6SiJitLu-22">
          <mxGeometry relative="1" as="geometry" />
        </mxCell>
        <mxCell id="o6JNWIDiicLb6SiJitLu-13" value="Pub/Sub&lt;div&gt;Sucursal 2 / vuelos&lt;/div&gt;" style="sketch=0;html=1;verticalAlign=top;labelPosition=center;verticalLabelPosition=bottom;align=center;spacingTop=-6;fontSize=11;fontStyle=1;fontColor=#999999;shape=image;aspect=fixed;imageAspect=0;image=data:image/svg+xml,PHN2ZyB4bWxucz0iaHR0cDovL3d3dy53My5vcmcvMjAwMC9zdmciIHhtbG5zOnY9Imh0dHBzOi8vdmVjdGEuaW8vbmFubyIgd2lkdGg9IjE4LjMxOTk5OTY5NDgyNDIyIiBoZWlnaHQ9IjIwLjAwMDAwMTkwNzM0ODYzMyIgdmlld0JveD0iMCAwIDE4LjMxOTk5OTY5NDgyNDIyIDIwLjAwMDAwMTkwNzM0ODYzMyI+JiN4YTsJPHN0eWxlIHR5cGU9InRleHQvY3NzIj4mI3hhOwkuc3Qwe2ZpbGw6IzY2OWRmNjt9JiN4YTsJLnN0MXtmaWxsOiM0Mjg1ZjQ7fSYjeGE7CS5zdDJ7ZmlsbDojYWVjYmZhO30mI3hhOwk8L3N0eWxlPiYjeGE7CTxkZWZzPiYjeGE7CQk8ZmlsdGVyIGlkPSJBIiB4PSI0LjY0IiB5PSI0LjE5IiB3aWR0aD0iMTQuNzMiIGhlaWdodD0iMTIuNzYiIGZpbHRlclVuaXRzPSJ1c2VyU3BhY2VPblVzZSIgY29sb3ItaW50ZXJwb2xhdGlvbi1maWx0ZXJzPSJzUkdCIj4mI3hhOwkJCTxmZUZsb29kIGZsb29kLWNvbG9yPSIjZmZmIi8+JiN4YTsJCQk8ZmVCbGVuZCBpbj0iU291cmNlR3JhcGhpYyIvPiYjeGE7CQk8L2ZpbHRlcj4mI3hhOwkJPG1hc2sgaWQ9IkIiIHg9IjQuNjQiIHk9IjQuMTkiIHdpZHRoPSIxNC43MyIgaGVpZ2h0PSIxMi43NiIgbWFza1VuaXRzPSJ1c2VyU3BhY2VPblVzZSI+JiN4YTsJCQk8Y2lyY2xlIGN4PSIxMiIgY3k9IjEyLjIzIiByPSIzLjU4IiBmaWx0ZXI9InVybCgjQSkiLz4mI3hhOwkJPC9tYXNrPiYjeGE7CTwvZGVmcz4mI3hhOwk8ZyBjbGFzcz0ic3QwIj4mI3hhOwkJPGNpcmNsZSBjeD0iMTYuMTMiIGN5PSI2LjIxIiByPSIxLjcyIi8+JiN4YTsJCTxjaXJjbGUgY3g9IjIuMTkiIGN5PSI2LjIxIiByPSIxLjcyIi8+JiN4YTsJCTxjaXJjbGUgY3g9IjkuMTYiIGN5PSIxOC4yOCIgcj0iMS43MiIvPiYjeGE7CTwvZz4mI3hhOwk8ZyBtYXNrPSJ1cmwoI0IpIiB0cmFuc2Zvcm09InRyYW5zbGF0ZSgtMi44NCAtMikiPiYjeGE7CQk8cGF0aCB0cmFuc2Zvcm09Im1hdHJpeCguNSAtLjg3IC44NyAuNSAtNC41OSAyMC41MykiIGQ9Ik0xNC42OSAxMC4yMmgxLjU5djguMDRoLTEuNTl6IiBjbGFzcz0ic3QxIi8+JiN4YTsJCTxwYXRoIHRyYW5zZm9ybT0icm90YXRlKDMzMCA4LjUyMyAxNC4yNDQpIiBkPSJNNC40OSAxMy40NWg4LjA0djEuNTlINC40OXoiIGNsYXNzPSJzdDEiLz4mI3hhOwkJPHBhdGggZD0iTTExLjIgNC4xOWgxLjU5djguMDRIMTEuMnoiIGNsYXNzPSJzdDEiLz4mI3hhOwk8L2c+JiN4YTsJPGcgY2xhc3M9InN0MiI+JiN4YTsJCTxjaXJjbGUgY3g9IjkuMTYiIGN5PSIxMC4yMyIgcj0iMi43OCIvPiYjeGE7CQk8Y2lyY2xlIGN4PSIyLjE5IiBjeT0iMTQuMjUiIHI9IjIuMTkiLz4mI3hhOwkJPGNpcmNsZSBjeD0iMTYuMTMiIGN5PSIxNC4yNSIgcj0iMi4xOSIvPiYjeGE7CQk8Y2lyY2xlIGN4PSI5LjE2IiBjeT0iMi4xOSIgcj0iMi4xOSIvPiYjeGE7CTwvZz4mI3hhOzwvc3ZnPg==;" vertex="1" parent="Lif8JBEafslfNm7ranTe-1">
          <mxGeometry x="51.84782608695652" y="386.51" width="38" height="42" as="geometry" />
        </mxCell>
        <mxCell id="o6JNWIDiicLb6SiJitLu-28" style="edgeStyle=orthogonalEdgeStyle;rounded=0;orthogonalLoop=1;jettySize=auto;html=1;exitX=1;exitY=0.5;exitDx=0;exitDy=0;entryX=0;entryY=0.5;entryDx=0;entryDy=0;fillColor=#dae8fc;strokeColor=#6c8ebf;" edge="1" parent="Lif8JBEafslfNm7ranTe-1" source="o6JNWIDiicLb6SiJitLu-12" target="o6JNWIDiicLb6SiJitLu-20">
          <mxGeometry relative="1" as="geometry" />
        </mxCell>
        <mxCell id="o6JNWIDiicLb6SiJitLu-12" value="Pub/Sub&lt;div&gt;Sucursal 2 / pasajeros&lt;/div&gt;" style="sketch=0;html=1;verticalAlign=top;labelPosition=center;verticalLabelPosition=bottom;align=center;spacingTop=-6;fontSize=11;fontStyle=1;fontColor=#999999;shape=image;aspect=fixed;imageAspect=0;image=data:image/svg+xml,PHN2ZyB4bWxucz0iaHR0cDovL3d3dy53My5vcmcvMjAwMC9zdmciIHhtbG5zOnY9Imh0dHBzOi8vdmVjdGEuaW8vbmFubyIgd2lkdGg9IjE4LjMxOTk5OTY5NDgyNDIyIiBoZWlnaHQ9IjIwLjAwMDAwMTkwNzM0ODYzMyIgdmlld0JveD0iMCAwIDE4LjMxOTk5OTY5NDgyNDIyIDIwLjAwMDAwMTkwNzM0ODYzMyI+JiN4YTsJPHN0eWxlIHR5cGU9InRleHQvY3NzIj4mI3hhOwkuc3Qwe2ZpbGw6IzY2OWRmNjt9JiN4YTsJLnN0MXtmaWxsOiM0Mjg1ZjQ7fSYjeGE7CS5zdDJ7ZmlsbDojYWVjYmZhO30mI3hhOwk8L3N0eWxlPiYjeGE7CTxkZWZzPiYjeGE7CQk8ZmlsdGVyIGlkPSJBIiB4PSI0LjY0IiB5PSI0LjE5IiB3aWR0aD0iMTQuNzMiIGhlaWdodD0iMTIuNzYiIGZpbHRlclVuaXRzPSJ1c2VyU3BhY2VPblVzZSIgY29sb3ItaW50ZXJwb2xhdGlvbi1maWx0ZXJzPSJzUkdCIj4mI3hhOwkJCTxmZUZsb29kIGZsb29kLWNvbG9yPSIjZmZmIi8+JiN4YTsJCQk8ZmVCbGVuZCBpbj0iU291cmNlR3JhcGhpYyIvPiYjeGE7CQk8L2ZpbHRlcj4mI3hhOwkJPG1hc2sgaWQ9IkIiIHg9IjQuNjQiIHk9IjQuMTkiIHdpZHRoPSIxNC43MyIgaGVpZ2h0PSIxMi43NiIgbWFza1VuaXRzPSJ1c2VyU3BhY2VPblVzZSI+JiN4YTsJCQk8Y2lyY2xlIGN4PSIxMiIgY3k9IjEyLjIzIiByPSIzLjU4IiBmaWx0ZXI9InVybCgjQSkiLz4mI3hhOwkJPC9tYXNrPiYjeGE7CTwvZGVmcz4mI3hhOwk8ZyBjbGFzcz0ic3QwIj4mI3hhOwkJPGNpcmNsZSBjeD0iMTYuMTMiIGN5PSI2LjIxIiByPSIxLjcyIi8+JiN4YTsJCTxjaXJjbGUgY3g9IjIuMTkiIGN5PSI2LjIxIiByPSIxLjcyIi8+JiN4YTsJCTxjaXJjbGUgY3g9IjkuMTYiIGN5PSIxOC4yOCIgcj0iMS43MiIvPiYjeGE7CTwvZz4mI3hhOwk8ZyBtYXNrPSJ1cmwoI0IpIiB0cmFuc2Zvcm09InRyYW5zbGF0ZSgtMi44NCAtMikiPiYjeGE7CQk8cGF0aCB0cmFuc2Zvcm09Im1hdHJpeCguNSAtLjg3IC44NyAuNSAtNC41OSAyMC41MykiIGQ9Ik0xNC42OSAxMC4yMmgxLjU5djguMDRoLTEuNTl6IiBjbGFzcz0ic3QxIi8+JiN4YTsJCTxwYXRoIHRyYW5zZm9ybT0icm90YXRlKDMzMCA4LjUyMyAxNC4yNDQpIiBkPSJNNC40OSAxMy40NWg4LjA0djEuNTlINC40OXoiIGNsYXNzPSJzdDEiLz4mI3hhOwkJPHBhdGggZD0iTTExLjIgNC4xOWgxLjU5djguMDRIMTEuMnoiIGNsYXNzPSJzdDEiLz4mI3hhOwk8L2c+JiN4YTsJPGcgY2xhc3M9InN0MiI+JiN4YTsJCTxjaXJjbGUgY3g9IjkuMTYiIGN5PSIxMC4yMyIgcj0iMi43OCIvPiYjeGE7CQk8Y2lyY2xlIGN4PSIyLjE5IiBjeT0iMTQuMjUiIHI9IjIuMTkiLz4mI3hhOwkJPGNpcmNsZSBjeD0iMTYuMTMiIGN5PSIxNC4yNSIgcj0iMi4xOSIvPiYjeGE7CQk8Y2lyY2xlIGN4PSI5LjE2IiBjeT0iMi4xOSIgcj0iMi4xOSIvPiYjeGE7CTwvZz4mI3hhOzwvc3ZnPg==;" vertex="1" parent="Lif8JBEafslfNm7ranTe-1">
          <mxGeometry x="51.84782608695652" y="306.51" width="38" height="42" as="geometry" />
        </mxCell>
        <mxCell id="o6JNWIDiicLb6SiJitLu-27" style="edgeStyle=orthogonalEdgeStyle;rounded=0;orthogonalLoop=1;jettySize=auto;html=1;exitX=1;exitY=0.5;exitDx=0;exitDy=0;entryX=0;entryY=0.5;entryDx=0;entryDy=0;fillColor=#dae8fc;strokeColor=#6c8ebf;" edge="1" parent="Lif8JBEafslfNm7ranTe-1" source="o6JNWIDiicLb6SiJitLu-11" target="o6JNWIDiicLb6SiJitLu-18">
          <mxGeometry relative="1" as="geometry" />
        </mxCell>
        <mxCell id="o6JNWIDiicLb6SiJitLu-11" value="Pub/Sub&lt;div&gt;Sucursal&amp;nbsp; 1 / vuelos&lt;/div&gt;" style="sketch=0;html=1;verticalAlign=top;labelPosition=center;verticalLabelPosition=bottom;align=center;spacingTop=-6;fontSize=11;fontStyle=1;fontColor=#999999;shape=image;aspect=fixed;imageAspect=0;image=data:image/svg+xml,PHN2ZyB4bWxucz0iaHR0cDovL3d3dy53My5vcmcvMjAwMC9zdmciIHhtbG5zOnY9Imh0dHBzOi8vdmVjdGEuaW8vbmFubyIgd2lkdGg9IjE4LjMxOTk5OTY5NDgyNDIyIiBoZWlnaHQ9IjIwLjAwMDAwMTkwNzM0ODYzMyIgdmlld0JveD0iMCAwIDE4LjMxOTk5OTY5NDgyNDIyIDIwLjAwMDAwMTkwNzM0ODYzMyI+JiN4YTsJPHN0eWxlIHR5cGU9InRleHQvY3NzIj4mI3hhOwkuc3Qwe2ZpbGw6IzY2OWRmNjt9JiN4YTsJLnN0MXtmaWxsOiM0Mjg1ZjQ7fSYjeGE7CS5zdDJ7ZmlsbDojYWVjYmZhO30mI3hhOwk8L3N0eWxlPiYjeGE7CTxkZWZzPiYjeGE7CQk8ZmlsdGVyIGlkPSJBIiB4PSI0LjY0IiB5PSI0LjE5IiB3aWR0aD0iMTQuNzMiIGhlaWdodD0iMTIuNzYiIGZpbHRlclVuaXRzPSJ1c2VyU3BhY2VPblVzZSIgY29sb3ItaW50ZXJwb2xhdGlvbi1maWx0ZXJzPSJzUkdCIj4mI3hhOwkJCTxmZUZsb29kIGZsb29kLWNvbG9yPSIjZmZmIi8+JiN4YTsJCQk8ZmVCbGVuZCBpbj0iU291cmNlR3JhcGhpYyIvPiYjeGE7CQk8L2ZpbHRlcj4mI3hhOwkJPG1hc2sgaWQ9IkIiIHg9IjQuNjQiIHk9IjQuMTkiIHdpZHRoPSIxNC43MyIgaGVpZ2h0PSIxMi43NiIgbWFza1VuaXRzPSJ1c2VyU3BhY2VPblVzZSI+JiN4YTsJCQk8Y2lyY2xlIGN4PSIxMiIgY3k9IjEyLjIzIiByPSIzLjU4IiBmaWx0ZXI9InVybCgjQSkiLz4mI3hhOwkJPC9tYXNrPiYjeGE7CTwvZGVmcz4mI3hhOwk8ZyBjbGFzcz0ic3QwIj4mI3hhOwkJPGNpcmNsZSBjeD0iMTYuMTMiIGN5PSI2LjIxIiByPSIxLjcyIi8+JiN4YTsJCTxjaXJjbGUgY3g9IjIuMTkiIGN5PSI2LjIxIiByPSIxLjcyIi8+JiN4YTsJCTxjaXJjbGUgY3g9IjkuMTYiIGN5PSIxOC4yOCIgcj0iMS43MiIvPiYjeGE7CTwvZz4mI3hhOwk8ZyBtYXNrPSJ1cmwoI0IpIiB0cmFuc2Zvcm09InRyYW5zbGF0ZSgtMi44NCAtMikiPiYjeGE7CQk8cGF0aCB0cmFuc2Zvcm09Im1hdHJpeCguNSAtLjg3IC44NyAuNSAtNC41OSAyMC41MykiIGQ9Ik0xNC42OSAxMC4yMmgxLjU5djguMDRoLTEuNTl6IiBjbGFzcz0ic3QxIi8+JiN4YTsJCTxwYXRoIHRyYW5zZm9ybT0icm90YXRlKDMzMCA4LjUyMyAxNC4yNDQpIiBkPSJNNC40OSAxMy40NWg4LjA0djEuNTlINC40OXoiIGNsYXNzPSJzdDEiLz4mI3hhOwkJPHBhdGggZD0iTTExLjIgNC4xOWgxLjU5djguMDRIMTEuMnoiIGNsYXNzPSJzdDEiLz4mI3hhOwk8L2c+JiN4YTsJPGcgY2xhc3M9InN0MiI+JiN4YTsJCTxjaXJjbGUgY3g9IjkuMTYiIGN5PSIxMC4yMyIgcj0iMi43OCIvPiYjeGE7CQk8Y2lyY2xlIGN4PSIyLjE5IiBjeT0iMTQuMjUiIHI9IjIuMTkiLz4mI3hhOwkJPGNpcmNsZSBjeD0iMTYuMTMiIGN5PSIxNC4yNSIgcj0iMi4xOSIvPiYjeGE7CQk8Y2lyY2xlIGN4PSI5LjE2IiBjeT0iMi4xOSIgcj0iMi4xOSIvPiYjeGE7CTwvZz4mI3hhOzwvc3ZnPg==;" vertex="1" parent="Lif8JBEafslfNm7ranTe-1">
          <mxGeometry x="51.84782608695652" y="226.2" width="38" height="42" as="geometry" />
        </mxCell>
        <mxCell id="o6JNWIDiicLb6SiJitLu-26" style="edgeStyle=orthogonalEdgeStyle;rounded=0;orthogonalLoop=1;jettySize=auto;html=1;exitX=1;exitY=0.5;exitDx=0;exitDy=0;fillColor=#dae8fc;strokeColor=#6c8ebf;" edge="1" parent="Lif8JBEafslfNm7ranTe-1" source="o6JNWIDiicLb6SiJitLu-10" target="o6JNWIDiicLb6SiJitLu-16">
          <mxGeometry relative="1" as="geometry" />
        </mxCell>
        <mxCell id="o6JNWIDiicLb6SiJitLu-10" value="Pub/Sub&lt;div&gt;Sucursal 1 /&amp;nbsp; pasajeros&lt;/div&gt;" style="sketch=0;html=1;verticalAlign=top;labelPosition=center;verticalLabelPosition=bottom;align=center;spacingTop=-6;fontSize=11;fontStyle=1;fontColor=#999999;shape=image;aspect=fixed;imageAspect=0;image=data:image/svg+xml,PHN2ZyB4bWxucz0iaHR0cDovL3d3dy53My5vcmcvMjAwMC9zdmciIHhtbG5zOnY9Imh0dHBzOi8vdmVjdGEuaW8vbmFubyIgd2lkdGg9IjE4LjMxOTk5OTY5NDgyNDIyIiBoZWlnaHQ9IjIwLjAwMDAwMTkwNzM0ODYzMyIgdmlld0JveD0iMCAwIDE4LjMxOTk5OTY5NDgyNDIyIDIwLjAwMDAwMTkwNzM0ODYzMyI+JiN4YTsJPHN0eWxlIHR5cGU9InRleHQvY3NzIj4mI3hhOwkuc3Qwe2ZpbGw6IzY2OWRmNjt9JiN4YTsJLnN0MXtmaWxsOiM0Mjg1ZjQ7fSYjeGE7CS5zdDJ7ZmlsbDojYWVjYmZhO30mI3hhOwk8L3N0eWxlPiYjeGE7CTxkZWZzPiYjeGE7CQk8ZmlsdGVyIGlkPSJBIiB4PSI0LjY0IiB5PSI0LjE5IiB3aWR0aD0iMTQuNzMiIGhlaWdodD0iMTIuNzYiIGZpbHRlclVuaXRzPSJ1c2VyU3BhY2VPblVzZSIgY29sb3ItaW50ZXJwb2xhdGlvbi1maWx0ZXJzPSJzUkdCIj4mI3hhOwkJCTxmZUZsb29kIGZsb29kLWNvbG9yPSIjZmZmIi8+JiN4YTsJCQk8ZmVCbGVuZCBpbj0iU291cmNlR3JhcGhpYyIvPiYjeGE7CQk8L2ZpbHRlcj4mI3hhOwkJPG1hc2sgaWQ9IkIiIHg9IjQuNjQiIHk9IjQuMTkiIHdpZHRoPSIxNC43MyIgaGVpZ2h0PSIxMi43NiIgbWFza1VuaXRzPSJ1c2VyU3BhY2VPblVzZSI+JiN4YTsJCQk8Y2lyY2xlIGN4PSIxMiIgY3k9IjEyLjIzIiByPSIzLjU4IiBmaWx0ZXI9InVybCgjQSkiLz4mI3hhOwkJPC9tYXNrPiYjeGE7CTwvZGVmcz4mI3hhOwk8ZyBjbGFzcz0ic3QwIj4mI3hhOwkJPGNpcmNsZSBjeD0iMTYuMTMiIGN5PSI2LjIxIiByPSIxLjcyIi8+JiN4YTsJCTxjaXJjbGUgY3g9IjIuMTkiIGN5PSI2LjIxIiByPSIxLjcyIi8+JiN4YTsJCTxjaXJjbGUgY3g9IjkuMTYiIGN5PSIxOC4yOCIgcj0iMS43MiIvPiYjeGE7CTwvZz4mI3hhOwk8ZyBtYXNrPSJ1cmwoI0IpIiB0cmFuc2Zvcm09InRyYW5zbGF0ZSgtMi44NCAtMikiPiYjeGE7CQk8cGF0aCB0cmFuc2Zvcm09Im1hdHJpeCguNSAtLjg3IC44NyAuNSAtNC41OSAyMC41MykiIGQ9Ik0xNC42OSAxMC4yMmgxLjU5djguMDRoLTEuNTl6IiBjbGFzcz0ic3QxIi8+JiN4YTsJCTxwYXRoIHRyYW5zZm9ybT0icm90YXRlKDMzMCA4LjUyMyAxNC4yNDQpIiBkPSJNNC40OSAxMy40NWg4LjA0djEuNTlINC40OXoiIGNsYXNzPSJzdDEiLz4mI3hhOwkJPHBhdGggZD0iTTExLjIgNC4xOWgxLjU5djguMDRIMTEuMnoiIGNsYXNzPSJzdDEiLz4mI3hhOwk8L2c+JiN4YTsJPGcgY2xhc3M9InN0MiI+JiN4YTsJCTxjaXJjbGUgY3g9IjkuMTYiIGN5PSIxMC4yMyIgcj0iMi43OCIvPiYjeGE7CQk8Y2lyY2xlIGN4PSIyLjE5IiBjeT0iMTQuMjUiIHI9IjIuMTkiLz4mI3hhOwkJPGNpcmNsZSBjeD0iMTYuMTMiIGN5PSIxNC4yNSIgcj0iMi4xOSIvPiYjeGE7CQk8Y2lyY2xlIGN4PSI5LjE2IiBjeT0iMi4xOSIgcj0iMi4xOSIvPiYjeGE7CTwvZz4mI3hhOzwvc3ZnPg==;" vertex="1" parent="Lif8JBEafslfNm7ranTe-1">
          <mxGeometry x="51.84782608695652" y="135.89999999999998" width="38" height="42" as="geometry" />
        </mxCell>
        <mxCell id="Lif8JBEafslfNm7ranTe-3" value="On Premise" style="rounded=1;absoluteArcSize=1;arcSize=2;html=1;strokeColor=none;gradientColor=none;shadow=0;dashed=0;fontSize=12;fontColor=#9E9E9E;align=left;verticalAlign=top;spacing=10;spacingTop=-4;fillColor=#F1F8E9;" parent="1" vertex="1">
          <mxGeometry x="55" y="226" width="480" height="430" as="geometry" />
        </mxCell>
        <mxCell id="Lif8JBEafslfNm7ranTe-4" value="Archittecture to replicate Microsoft SQL Server to Big Query" style="fillColor=#4DA1F5;strokeColor=none;shadow=1;gradientColor=none;fontSize=14;align=left;spacingLeft=50;fontColor=#ffffff;html=1;" parent="1" vertex="1">
          <mxGeometry x="225" y="126" width="650" height="40" as="geometry" />
        </mxCell>
        <mxCell id="o6JNWIDiicLb6SiJitLu-40" style="edgeStyle=orthogonalEdgeStyle;rounded=0;orthogonalLoop=1;jettySize=auto;html=1;entryX=0;entryY=0.5;entryDx=0;entryDy=0;" edge="1" parent="1" source="o6JNWIDiicLb6SiJitLu-1" target="o6JNWIDiicLb6SiJitLu-8">
          <mxGeometry relative="1" as="geometry" />
        </mxCell>
        <mxCell id="o6JNWIDiicLb6SiJitLu-1" value="" style="image;aspect=fixed;html=1;points=[];align=center;fontSize=12;image=img/lib/azure2/databases/SQL_Server.svg;" vertex="1" parent="1">
          <mxGeometry x="95" y="296" width="68" height="68" as="geometry" />
        </mxCell>
        <mxCell id="o6JNWIDiicLb6SiJitLu-41" style="edgeStyle=orthogonalEdgeStyle;rounded=0;orthogonalLoop=1;jettySize=auto;html=1;entryX=-0.032;entryY=0.504;entryDx=0;entryDy=0;entryPerimeter=0;" edge="1" parent="1" source="o6JNWIDiicLb6SiJitLu-2" target="o6JNWIDiicLb6SiJitLu-8">
          <mxGeometry relative="1" as="geometry">
            <mxPoint x="275" y="431.5" as="targetPoint" />
          </mxGeometry>
        </mxCell>
        <mxCell id="o6JNWIDiicLb6SiJitLu-2" value="" style="image;aspect=fixed;html=1;points=[];align=center;fontSize=12;image=img/lib/azure2/databases/SQL_Server.svg;" vertex="1" parent="1">
          <mxGeometry x="95" y="397.5" width="68" height="68" as="geometry" />
        </mxCell>
        <mxCell id="o6JNWIDiicLb6SiJitLu-42" style="edgeStyle=orthogonalEdgeStyle;rounded=0;orthogonalLoop=1;jettySize=auto;html=1;entryX=0;entryY=0.5;entryDx=0;entryDy=0;" edge="1" parent="1" source="o6JNWIDiicLb6SiJitLu-3" target="o6JNWIDiicLb6SiJitLu-8">
          <mxGeometry relative="1" as="geometry" />
        </mxCell>
        <mxCell id="o6JNWIDiicLb6SiJitLu-3" value="" style="image;aspect=fixed;html=1;points=[];align=center;fontSize=12;image=img/lib/azure2/databases/SQL_Server.svg;" vertex="1" parent="1">
          <mxGeometry x="95" y="516" width="68" height="68" as="geometry" />
        </mxCell>
        <mxCell id="o6JNWIDiicLb6SiJitLu-31" style="edgeStyle=orthogonalEdgeStyle;rounded=0;orthogonalLoop=1;jettySize=auto;html=1;exitX=1;exitY=0.5;exitDx=0;exitDy=0;entryX=0;entryY=0.5;entryDx=0;entryDy=0;fillColor=#dae8fc;strokeColor=#6c8ebf;" edge="1" parent="1" source="o6JNWIDiicLb6SiJitLu-7" target="o6JNWIDiicLb6SiJitLu-10">
          <mxGeometry relative="1" as="geometry" />
        </mxCell>
        <mxCell id="o6JNWIDiicLb6SiJitLu-32" style="edgeStyle=orthogonalEdgeStyle;rounded=0;orthogonalLoop=1;jettySize=auto;html=1;exitX=1;exitY=0.5;exitDx=0;exitDy=0;entryX=0;entryY=0.5;entryDx=0;entryDy=0;fillColor=#dae8fc;strokeColor=#6c8ebf;" edge="1" parent="1" source="o6JNWIDiicLb6SiJitLu-7" target="o6JNWIDiicLb6SiJitLu-11">
          <mxGeometry relative="1" as="geometry" />
        </mxCell>
        <mxCell id="o6JNWIDiicLb6SiJitLu-33" style="edgeStyle=orthogonalEdgeStyle;rounded=0;orthogonalLoop=1;jettySize=auto;html=1;exitX=1;exitY=0.5;exitDx=0;exitDy=0;entryX=0;entryY=0.5;entryDx=0;entryDy=0;fillColor=#dae8fc;strokeColor=#6c8ebf;" edge="1" parent="1" source="o6JNWIDiicLb6SiJitLu-7" target="o6JNWIDiicLb6SiJitLu-12">
          <mxGeometry relative="1" as="geometry" />
        </mxCell>
        <mxCell id="o6JNWIDiicLb6SiJitLu-34" style="edgeStyle=orthogonalEdgeStyle;rounded=0;orthogonalLoop=1;jettySize=auto;html=1;exitX=1;exitY=0.5;exitDx=0;exitDy=0;entryX=0;entryY=0.5;entryDx=0;entryDy=0;fillColor=#dae8fc;strokeColor=#6c8ebf;" edge="1" parent="1" source="o6JNWIDiicLb6SiJitLu-7" target="o6JNWIDiicLb6SiJitLu-13">
          <mxGeometry relative="1" as="geometry" />
        </mxCell>
        <mxCell id="o6JNWIDiicLb6SiJitLu-35" style="edgeStyle=orthogonalEdgeStyle;rounded=0;orthogonalLoop=1;jettySize=auto;html=1;exitX=1;exitY=0.5;exitDx=0;exitDy=0;entryX=0;entryY=0.5;entryDx=0;entryDy=0;fillColor=#dae8fc;strokeColor=#6c8ebf;" edge="1" parent="1" source="o6JNWIDiicLb6SiJitLu-7" target="o6JNWIDiicLb6SiJitLu-9">
          <mxGeometry relative="1" as="geometry" />
        </mxCell>
        <mxCell id="o6JNWIDiicLb6SiJitLu-7" value="" style="shape=image;verticalLabelPosition=bottom;labelBackgroundColor=default;verticalAlign=top;aspect=fixed;imageAspect=0;image=data:image/png,iVBORw0KGgoAAAANSUhEUgAAAbUAAAHaCAYAAACHCNdSAAAAAXNSR0IArs4c6QAAAARnQU1BAACxjwv8YQUAAAAJcEhZcwAADsMAAA7DAcdvqGQAAM17SURBVHhe7N0JvH/VvD/+7Q6/e687mWdpJEOkUhQRFXGLJMmYuUQJiaskmemGDJExEV0qU+YGylhCSVREZAr3uvP4/Z/n+vU6v935n/P5nPP5nM+Zvu/X47Eea++113qv95rer73WXnvv6/3v//7vuq5QKBQKhTWAP7jWLxQKhUJh1aNIrVAoFAprBkVqhUKhUFgzKFIrFAqFwppBkVqhUCgU1gyK1AqFQqGwZlCkVigUCoU1gyK1QqFQKKwZFKkVCoVCYc2gSK1QKBQKawZFaoVCoVBYMyhSKxQKhcKaQZFaoVAoFNYMitQKhUKhsGZQpFYoFAqFNYMitUKhUCisGRSpFQqFQmHNoEitUCgUCmsGRWqFQqFQWDMoUisUCoXCmkGRWqFQKBTWDIrUCoVCobBmUKRWKBQKhTWDIrVCoVAorBkUqRUKhUJhzaBIrVAoFAprBkVqhUKhUFgzKFIrFAqFwppBkVqhUCgU1gyK1AqFQqGwZlCkVigUCoU1gyK1QqFQKKwZFKkVVgX+93//t1u3bl13vetdb9oF/bB+ODj/z//8z5Y+1//nf/6n+6//+q/p667993//d/PjQH5coVBYPShSK6wK/Ou//msjowBR/cd//Mc0Cf37v//7dYhJXD5S+uM//uPm/9M//VOT84d/+IfdH/3RH7U4//Iv/9KILeT1B3/wBy0d+cJcKxQKqwfXmxrAdStaWPEIwfDNsv7P//k/0+HIDHFB4oTcQHzXEVauS4PcxHH9+te/fvMjG+m5Jn4RW6GwelCkVlgV+P3vf9/92Z/9WSMcpJRZG59DWnzXMhNDYiAsxJRjPiCuvqyQo5mavMgqFAqrB0VqhVWBkJKZVMhnEOGI87vf/a771a9+1f3pn/5pd8Mb3rC7wQ1u0OSQgbQQH4fg4kPyEkceIcdCobDyUaRWWBWwXIiMQkSO/+Ef/qG5q666qvvABz7QXXLJJd2ll17a/eM//mNLY6bF/du//VsjQceeqyGtrbbaqtt33327nXfeubvtbW/bZmzID5Dbn/zJn7Rndnz5FQqF1YEitcKqACL653/+50ZKP/nJT7pPfOIT3Uc+8pHuiiuuaNeRHphVZQaXjSMzZ2DQD+M23HDD7jnPeU632267NQI0q/vzP//z66QpFAorH0VqhSWFZcGQTv8Y+SAkZMOFbOCaa67pfvGLX3Qf+9jH2ozsRz/6UQu347EfN2kDshGUZUQwU5NHljBBuv5yJpnbb7999+xnP7u74x3v2G200UbtWR79oqs8pJk5g4suM48LhcLSoUitsGRg5C0N/tVf/VU7N/P6y7/8y0YQlvqQDjIwwwpxXH755d3JJ5/cvetd7+p++9vftnSTAIJCXCE7Ot70pjftnv/853fbbLNNm8mZuSE25TBj/Iu/+IvrkHKImSOHX8RWKCwtitQKSwZG3yyJoWf0M3MCJGaWZMbEffOb3+y++MUvdieddFKbmSHALDEuNkI8dMgMC8nRj073uMc9uv3337+7733v29361ree1t8MMEuU0vWJLWRXKBSWFkVqhSUDQmP8zcoQAfIS5h0xJIFAXPva177Wve1tb+s++9nPttmQF6aFTwp0QUb8/kwrBPXXf/3XTYfDDjus23bbbdvmEgRrE4nr0oGyZZaJFF0rFApLiyK1wpKB8f/1r3/d3eQmN2kkkV2Jme388Ic/7E444YTutNNO666++uoWFpKIP0nIzwxrJqkh1hDupptu2h100EHdAQcc0OLSSTwuMuLHFQqFpUORWmHJYFaGGGy84IcQEMePf/zj7uijj+4+97nPtaVGZOdattYn/qSQGZc8ko9zOtAlJGdWicxe8IIXtFcCvA4gLdIVx7U8nytSKxSWHkVqhSUDw8/ge7fM7Ad5eW71s5/9rDvkkEMaoSGFEAggQM+uEOKkgHgQU0i2T2rRB7F5jy3kepvb3KY9Y3vyk5/cdkl6uVv5QBkdk8kVCoWlQ5FaYcmAMCw7ZhOGjwmfc8453Zve9KbmZ5aUmVFIAkJykwDy6hNZ/xzknRezEeyNbnSjRrLKca973attIrn//e/fygSIMPqSVSgUlg5FaoVFAyJgzLOUB84RFAhzjCCE296/ww47dN///vevY/yld51LeJ9kJom+Hv08o5PrlkQ9Yws5K4OZ5i677NLi2e4vXLxCobC0qLWRwqKBwWfUkUGWEIUx/pyZmVmY2ZolSCSA0Mxs7DAMkZmh8YGspSI0SH4z8+zrg9CAnsri9QM7NX/wgx+0Dy8ro3hJUygUlg5FaoVFRWZpIYYQHd+L1gjMEp5t8RdeeGF7ydl1ZLDagKiVyUvhXg63a9NGknqeVigsH2r5sbBoyOwmxjznmX2Zqdn4cfe7370RQbb1IzxLdY5XGywzWk615IjQ7OB85jOf2Z65mbEh8UKhsHSoW8nCoiJEBpYguSxBmtUcd9xx7Xcw3lfLphHhq5HQMgs181Ruy5JHHnlkd+KJJzaSLkIrFJYeRWqFRUOMPJiZZRt+3/gjNQTmK/gIzVZ4S499MlwtUCZOObPjUVnOO++89mmv1VimQmG1o0itsOiIMWfoY/TNzPbYY4/mIzc7Hy1F2jDinS/Et9pgFqos2eXoyyjK9O53v7s7++yzG7EXCoWlRZFaYdGAzBh6PofUkJWZ2de//vU2e0ECnkEhO8+hzNZ++tOfTr/jNQhkZUlP+r4PfWJ0TLbnWnm2NfN6/5ycyAbn/euzQRzOC9nKrTx8JHfsscd23/72t6+zA1Kd1I7IQmGyqI0ihUVDyAwQWWZqZmP77LNPd+65545s1MnNJ6qQCOLwTA5hOZePsFvc4hbNiYsozZyksSxoxui5l29MmjEC4gqBkeUrJ84Rb5ZQU6aF4o1vfGP3yEc+srvxjW/cdJC3fDKzG1VuoVCYG0VqhUUDwsqSG4LIrM1y3Gtf+9ruyiuvHJnUEI132X73u981H5CEPGw02Xrrrbtb3epW7d03rwsIMyvM7kQ7Ly0P+uHo+973vu5LX/pS24F56aWXtnhk0Y2++TSXPJGaPEaB/7F98pOf7O52t7tNE6bPg6mjEGmhUFhcFKkVFhVIAREw2sjAbOrAAw/sTj311BY+KrJLEql5tw0JITffXfSJqsc//vGN1ORv5mZmZEYkT8QWUgt5ue5l6eOPP74Rm3fmQmDIxnXxkNuoMyr52+Lvi/50QGxkqRPEWaRWKCw+itQKiwYkEMLILM1Hiv2H7JJLLrk21mhAkmSTebOb3azNeg4++ODugQ98YLf99tu3a0hCPPmbDSXMueVQpIZQhJEjHGnRDfl84QtfaOSD+PhIbhwiNkP0U9Ezzzyz7fIkM3LlXaRWKCw+aqNIYdGAKDhALmZXZ511VnfVVVe143GMOBJAEmY73nM74ogjuqOOOqq7613v2q7L1zX5IDRkBfJEbggN0eb5m2duyEX8u9zlLt2rXvWq7tGPfnT715vryG8cQgNE+otf/KKRZog2GHVJs1AoDEaRWmHRwHAjCYSCEPxSxrcdQzAhvFGAEBCBPHzV/3nPe157LUB+nBkQ+fJFYogpM7I+mXqmldkYiEf2Bhts0B1++OHdjjvu2OKnLK6PA+nf8pa3NL2iY8pRKBQWH0VqhUUDgx1C4fxOxnMrpNGfpYwCspEjQvOMDjF4LmUGluuIg58ZW5YfIUTimmPXpRcH0bnmh5/I0mYT4Rx5o0IeZnw2pYSUgQ5kFwqFxUeRWmHREAJBaAz3d7/73e7qq69uxNCfLc2FEE1mR9LYbJHzvffeu9ttt93acWZRkcsXxjl2zTGy6seD/iyMnq7xhd/+9rdvn7ryA9B+OmVIOZJ2GOGJg7wQmw0uIXfhIbhCobC4KFIrLCpCBN4Ly9dD5gsk0V8+hBh/P+Z80pOe1Hxb8cWxnAfy45I3OEZS/WtB4vARlHwzc3K+5ZZbdg9/+MPbJo+QWZDzyB+EzE75n/rUpxpxJiw6FAqFxUWRWmFRERLx9RAbRGaSwlwIISG1vsFHAggHoW2xxRZt5pZlQ2nItvljHISgQjiOzQg33njjdt7XR34h2mGkRsfEOeGEExphgnAEVygUFh9FaoVFBQJg+G0Q+fGPf9yO+6QwFxh6pMLYc9JlSdCux7322quRmU9ROTdLs6yHYIaRyzD0Z13ytYnE9yi33XbbthUfGUWvEGnIdhjEkd5SLDim83zqpFAoLBxFaoWJwPccf/7zn0+T2nyMeOIij6RBIve85z3bDM3L1l687v9QNN+PXAyE3OJ7hmfzCBJCTsKTF125QchuR+WQ3jG5w9IVCoXRUaRWWHQw4l6O5mLUhwFhIAHLj5xzsyHpPd/yPUfP55wjFrMp75rZ/Zhlw1FBpvw4oC8dfN7KMzzXEVtmWPMpDyQevUPGZCSfQqGw+KjRVVhU9Ekss5N+2CAkTpb2Qiabb755I7Vf/vKX018GQQzi8/PO2aiQT/wQl2M6+DSXWaIw5+A4ug5CyJksOjp3jJTHJeJCoTA7itQKiwpGm1soEAajb+kRYvy5EIrdiNkkgmj4yMJ7ZqNCPogMyfA5eSYf35O07DkbkQ0jNrLpaclR2czYapZWKEwWNcIKE0OMfkhpGBh/TlykIl02akB84QiDj9BGIdGAjMglJ/kjIeH3ute9Wpzk6VrKImwQEHR+k2Np9YILLmgypZdPoVBYfBSpFSYCBp/hDhnMh3gYezOmLClm5rYUsxv5ZGOH2RpEd+XoE1qWFIctIZKD0CyZKst3vvOdlk7ZhhFioVAYDUVqhUUHww0Md4hhGBIPEYQ0+Ahhks+f5IOo+HSQJxILwfnBaeJBSA0SNheynEme54CbbbZZCy9CKxQmhyK1wqKCwc6MhtHvu0FwXZoY/JCcjxYjhkkRAbmcmVTy5yNSYf6S7V9skBkbJN0gWGrMXwGUYbvttmvP1bxnVygUJoMitcJEwJAz+iG0zG4GIbOkPrkhg7xkPSmEUAGZISLnSMkL5EhNnDx7C6ENI7V+echAZuRIN+5XUAqFwuwoUissGkIOjHm++hEy48+HBIIYf+5rX/tam7FNAvLJTFD+zhERAkOm11xzzTThRf/44g5Cng8CeeR6xiZdkVqhMBkUqRUWDYw/gmC87V5EbIx5yGkYpOfEjSwEcMopp7R31CYBedE3Myp5IiKE9uUvf7l9lBk5RycQF4aRGpAX0vRqgBfSHdcSZKEwGRSpFRYVDD230UYbte8nQghhGAm4Ll7II/F9HNkfpIUjG/JCDuKMM+tBOHYjIqpsSMky42mnndY+9+XZGrguz3zZxPEgiGNmBre85S1bersshfdnpSsNytV3QGcumHk+rC4KhaVCkVph0cBQIwfGzn/J7PZDGiGJ+WCmsQRkdswxxzRiQxJIxUyQbMuSeWF7FDDG5FhmBPKRj7wuu+yy6zzPi14h3WFQF3Sln/qQF/lkrmRSy41FnHKH4Ga2j+vqR53NbLdCYTlQpFZYNDB6mfGYmXAMum80jmvEv/CFL0wvQcrHxgsGFbIcOAro5QVun8NinDMLe8tb3tJdcsklCyLkmaAfXdWBvwzE6JsZrmRSoxu9g5wnjC8sTv334xcKy4kitcKiASGYOTFwiIKxY8CFIQcGcFRYAnzkIx/ZZCFNJCQfz6lCbqMiRpscxyeddFJ3+umnt9lbZmmjgDz6WR7dY489Wh7KQfeVipBTfESsHCFkx3HCxOOK2AorBUVqhUWDGQmDjRgQj1/GWHZj/JBDDOMoYDC9M/aYxzymbbJAFF7Mlte4ZPm73/1u2iBfccUV3cc+9rHuyiuvbPmMMwuE3/zmN80ny4zVphP1ZAlyJQJZZTmRHxciS10LU3ec43HatlBYTBSpFRYNiIHRMztjtC25eeGYMc+d/ahALpYzP/e5z3WPfexj27/akAODitxGBRk3uMENmnzP0V7+8pd35513XptpWuJk3EdFdk0effTR02XPBhd1slKRdjS7Dgmrn9xAOBaW8NwQFAorAUVqhUUDMjPr8Ukoy24Mnv+RIZ5xjR9yufrqq9tGi49+9KONKH7729+2mVBmD6MA2SDFb3zjG93hhx/eXh8g11LqOM/TAJEz/H42agYrL2Fk81ciQlyc9qKz9svM2MwsNyghP845VygsN6431UGrJxYWDQxdjB7/oosu6g488MDum9/8ZjOOMeYIA1HFcA6Dn2z6y3XIUVozt7POOqvNevwiJnJcD6KHdBCCBQbaM7pPfOITjSTN/oQF/bIMQ/IUN2Xi/Gj0Ix/5SLfBBhu0cOWWB2Kb9GwtOiAd5YhPj5Qtx0AndWw2mW9ucgiNiwyzNzcXfOWxtMq5keHPhtRL/7gfVigsForUCosKhgpxAPJgCJ/2tKd1H/jAB5qBZBQZdb+U8bHgEAwk3WzoG0SGlGOEN9544/ZnbEudfiR605vetBncxJWXGaQweTHWXgfw+Su7G88888zujW98Y4s/CpQnZQhhyZdz7dRTT+123HHHNntVF+IgUgQwadBFnSMa5aYPvcwe1ad6oRMytynmZz/7WfeVr3ylvXTuZkQaccmQLu0ZOZwZ6F3ucpdum2226e5973u3NrB06993N7nJTa7V5P+1bdKRxSeLLkVuhcVCkVph0cDgMVQMNyOGdBjFT3/6092hhx7a/eQnP2nXPG+LcQOEI670c0FcxlmczLZCkmZxZDzsYQ/r7nOf+zTC4PKsjLNMiUSl8azsxBNP7M4555yWr7BRYbaCsH7/+983/eiDDOi4xRZbdO95z3u6O93pTk1v5bYcqyyMeMq/2OjXY+pIOyAvs1tk9oMf/KBtihFmJnnuuee2uOrSrEwcUD7hZKrH1D0njEt55ANuNLTFDjvs0G244YaN4LRFZqghVek4bVekVlgsFKkVFg0MVIwoMGLAQCK1z3zmM82IIjZGkfHnSzPMqJHNwPLJzcwry2JkugZI5na3u137ool4rsnj8ssv77773e+2eAyrdJlBjIIYcj5dGGx5CSP71a9+dfeUpzyl6WhmKl/X+oZ9ElA/9ODTC+SlDr797W+3b2l+/vOfb45uIB790hYplzB1FN055671y5o46psP2ut+97tft+uuu3Z3v/vd21Js0kgvb+ccCC8UxkWRWmFRwZAycGYtjBviYty8PH3AAQd0v/rVrxrJMWSMIePGh/izQTxIHEaYXHnJMwYxRlM4A+2cH6MNjhNH2lFBBvnk0g9ZZdax/fbbt6+g3PWud23PqCzJMeLITL7ShnAWG5ll0YN+3KWXXtqdccYZ3Sc/+cnuS1/6Uqs7bRPdQ0YhGrqlLSH1q13JTzukHKlb4Y49L1TvnCVK9bD77ru3pcr73//+LY504otDn0nVR2H9wh8eeeSRL7n2uFBYFDBOMYKBZS87I82UGHZLgHyGkxEdRGgQMmCAHcdg9kkuRrJviBlPTppAftIKT5xRENKIXmQ5N1M87LDDunvd614tPAYbGfCdC58UlBVhJe+3vvWtbbnVV1K8f0cHOiu3OPzUR+pCPXKui596EpZ0wvvlcKz84kaec2TvGebXv/711v5g5urZZmSLVygsBmqmVlg0xBCGdBwHwmzJ95zF8y2zF4aMExdCRrMh8RhAswDpE550ZhuOGVHG0rXolGMkytDHgIsn/iigizzNbqIXHR/1qEc1UvNR5yzvuZb64M8khMWE8sjjq1/9antu+KY3vak9z1MH6i1EIv8QD1/dpF5AHA7UK5lJA5EBwhJXmDyShlPnfGE2k9z3vvft9txzz7bJR1g/r0JhHNRMrbCoYJgYuBAQQ8ZnuBj2TTbZpPv7v//7dh4S4uaDGE5GkwHmRwYjGqPMSIO8nXNIlS9ujGf/+qjoy6fPLrvs0j3/+c9vmyXUAb3oI19kE90ghDAJvPOd7+yOO+64tvtSeZErYqEDfdMukPPUQ3z6cXQXJn4/TlzSpjziC+OUHxLPuVm65VDOcqY+oR0nWR+F9QdFaoVFQ4wgMIB9J5y/+eabt09n2XHHkDGywmP8GP3M9KTxLCoGMugfx7DmOJgtPOn64TmeC7lOJ+kZYbrlnN6MuHPG+elPf3qbjYJriCRlSzn5MKoRp5O8+Vm+hdT/q171qu7YY4/tvv/970/PFNUzvVMefuSEhGYicZKmj+Q18xj6aYSTHfn8xLdpyOYdH6o2e7vZzW7WrtMT1NVM2YXCMBSpFRYdMUQznSUwxv8Od7hDIyu7IRku29zdvTPOiZuNJjGIMYrQN7I5ni2sD+mHxZkNiFfcEFIIIDqC7eqOfXDZkpqyias8IbCklw7ijwJpkZlXFMx+HdMJgb3yla9s790hitRZSGK+ZR4HM/Pon6sD56kHennO6jmfT5TZrXrzm9+8XRdXn3AszTj1VVi/UM/UCksGmxdsDkBuDNpDH/rQ7sILL7zOshxy8JkqMxwbLvIsSFqEstRgTBlWeTOudKEXg8vw5vmeT2G9/vWvn34PzbVJGWK6eC9OXQLi9Q6g3Zbve9/72rWVCPURUlM/ysE5Vxa7Il/84hdPb/3XL9wE8fWHQmE+qCezhSUDwxVjzD/hhBPal/zNMMwqGGeElucr7uJnLpstNbLBg6MDF9JAbr4Osttuu3VvfvOb244+RprO/EkBCZgNyidE8eEPf7h7//vf32ZtCGMlIkSvPTnEFWJ2Y2Dm7oPSV1111TSh6QNFaIWFoEitsGRgqMzEbG33lQlfr7DdHCmYiZn9IBHXGT0G0DtOIZXlQN7JQiL04SORkO7OO+/cPoJMbzozwK5NGgw+UkUUlhuPOuqoaTJbrroaBvVCb6RMRwSsT0Rf+nuf8WUve1nrC24Y8mpCoTBf1DO1wpIhS03u0PmMMjLw1QnPgGxsyMYH5OBZFeNmJrdchi2zM/oiLb5z35i0Ld1OzixF0tk1fmZRIZrFBD3MFs1ozc5e8IIXtPx8jDiz3EnOFEcF8qKbOky9pH7N2JTLTc/555/fnq3ZcKOPiF8ozBf1TK2wZGDQGDDvqfnYLSOXj/v60ojlyNe97nXNiIlrJuTOnut/xWIpwcgytsjW8zKbM/wRwEeaDznkkGZ0EQhCoTOSFhe5TNIY08nfufPTVHWjjtwQ0GclklpAR6QWQnOsjTNzMzs3Q/M7ILtla/mxsBAUqRWWDIw+o8VIMcKMGePLd85Qn3baae3FZTORfADYcZahGEHoG8VhSLp++pnoX3MMkW9Xnt158txyyy27t73tbd2d73zndo5IALkxytIy2o5d50ZBX9/oE6gzW+EPOuig9oK1mSwSFVedgeNB6MuemUfSJmzmOT/t18/HccL64epD2yIu7T8Trouvrd0cqDvnlqcvu+yy9qyyLzfHfZ0LhaCWHwtLisxe+gayD98G9AsTJGZJ0i9RGFBIWgbNctVMIzcXGFPXzaIQAnlkcdLGpwsDKz44F87IerfOppbPfvazzdiKk+WyxBeXy/E4RpeO0ocouRC/zTQ2VRx//PGNJJRNGVxPXc0FctxU0E865YXUx8y6COE4T3hmTpkhKr94jvvLn3zy1Bc9EzbTkS+tY3GAPMdm6w9+8IOn4+RmIbKiW6EQ1EytsCLAWJn1IKsYrpNPPrn7+Mc/3p133nnNuDFqrpuZiBODy5AiwbnA6JGH1Dz/YoSdS8/Y8rN0x2CTnXReCvZStReavV+XZUX5OSZnEpC38tJPPsgsdeQ/cE94whPaNv7MeqN/jP9coLvlPcu+ITFOemWRtl9G8kJe6j1Qh5x0qU9x6I1wordws0fEZhY2COKGIJVLm1uatrPTB6Lp5BrII+WFIrZCUKRWWDFgtBlvxMVI2ebNyP3d3/1d+2WKr8t7ppV4diKKI26M22xgIBlZ8RxL57ke2TGGwhlohpks/0C74x3v2IwpAnGdcWZkGVNxGVnhk0KIG+iPXMzS9t9///Y8LaQSQskOzD75zITyis/RHXGlzPJSJuec40Bc+SET9ZDrwvghN8uwrtNDXuKLS/csjc4GMuSvnOQou3S+MqI/fOtb35q+4dF+kStd2rBQgCK1wooBIxVychznjt9dvp1+dkj62jvHyMWoM3JzIUacAWRsYzSlJ1+Ya9x2223XNidsu+227VUDMwwkwSiTwTCHPCZJaOqBgZdHjhlv5fZ9SXCNPnzlAHGULfU4E66rTz6Zyiy+soW0XPMc0UvQZqrix5HrhkCdmO1dfPHF7b0y9aGOyEKUZoPajEx1+Otf/7rJnQvyVwbEhhjJ5zxPI+PII4/snvrUpzbZqX8IqQ2SXVi/UKRWWBFgLBk1xo0xc547d4bLsQ0jiIhh9z6TeGZwPozLsA4Cg0w+eYws+QyjXZiM91ZbbdWMped5NoMwpHThGGf5xqCSExIVPgkw0jHcMdiWTp/85Ce3JVnkQUdQlpRHWF+/2aBMiFD9hZj50tzjHvdo5efUxQYbbDDdNiCtPMyQPfNU/xdccEGbRWsXcjKLpQ+Zfjtkd2tkzIaQE188x/JR52bHfvqqzfOCOycu3cSlV6EARWqFFYEYZgiRMYqMFR95IDWzAcfCGE+EZvPG4Ycf3tLOhhg98vkIEm5729u2l5bNzLbYYotmKMVlVMVNvBhQJIDULAGaTYhDn0lA+eQvb8fy+cEPftD+IC0M6OoaR78QQvSfDdKQK46ykMV5bvigBz2oe8QjHtGWXl0jI45s8UIe6j6E7tj2e85nuuxYlI92dNPg2RgZ0Xs2kJu6zw2EGxHpffhYW3mu6dNq9E9coFuhEBSpFVYUGMIY5BhzxpARc+eeWQAnDM4888xu1113bcezIUaPEWQQyWcwGXIzDHmERGIo+0t6rmVGY7aU/F0nZxIIgSijYzMzrzp4lw+5yl85Ui90TNzoPRvEUc7Un/jIzHNDszTLjpGVGwEEo/zycS5/+ih7li45x+oT+XiBWhrxtRmdyJ0L4kVO2oEObh7MlLWRr7fYPASRDeIVCkHN2QsrCgwa48lnNBk55yEm4TF+jFncIDCQHCOYYwaYsQ5JJo84IDf5B44Z2L5OkwDZKZtjenim6Fg5Ql6OkYVzfsgh9QTCUq+g7Im30047tS/7P+QhD2lfSSFTeOqUrx2SL5BjJicecnFdmGM3F35747kfWSFg+g1C8pOHNOJzZnl8bfW9732v7fwENz/yTxkLhaB6RGFFIYaKIWSIY9hjvIS51scwwxbjH4QAAvLJjB/5MbTxgeEO6DJJ0JPeSMhL1gw8g9/XR9lCZnHCQk6c+MLJAwREpvfuEJAZq+vCxY0LUjdB5Arvt5Fj+nlG6Y8BNt3IU9iwNoLoDvzom3LZoPL5z39+Om9Q9qQpFKBIrVBYgUASfbKy7Ig0GPoY9Lkgfghx5jmH0GyM8SHkDTfcsM16ENp8iGcQpKcj+f78/Y53vKPpaiY3LvHQH6mfe+6507NrMuMKhaBIrVBYoWC4kZvZ4ac+9anpmct8gRSThiyEg2A8N9tnn326zTbbrIV7boUYPC/sz2AXCs++kCaCtDOSbJtbkFB/hjsKEKa6INfGEXoiY2XiCoWgSK1QWIFAMow14235Li88C8sMbC6IgwAC5AJkIRhfwH/Ws57ViIJMsh3bdZi4o8BL0T5rhmy8NmErv12LPnNlK/44iF6I0y5L5euXsVAIitQKhRUMBPaVr3xlejZiFjRsxoaoQnzScdIIRzL+YefFac41M7V8QHocoiAjf1+wmcYypDC/5zHDGgdkKsNPf/rT6foYd/ZXWJsoUisUViDyfIvhzq5HhDOfJUgEAFmyM0NDcsjLb3N8/uvGN75xmz15idrsygvOro8D6ZGNPBEa3c3Y5G+5cxwotzIgSV8n6WPYzLWwfqFIrVBYoUAMDLb38CxBIjZhIby5gFQSR3yE4NyvXWwQQTZ5IdrnrMyuHIsbQhwFCA2BmaV5dmcZkjzb/5/0pCddG+u6mO/MUNnzsnd0lVeIu1AIitQKhRWKzHq8o8WAx4gPIx5xOMafD2TZCOJjyI4RHJAvHn/cHZDkIMzIzDHn/3N5ZQASHl2HAalZHuUjaUun6kM+XKEQFKkVCmsMjD4X4uAQiuVBW/iXA4h00003vfbsuhhGSn3yywzQTM1xliULhaBIrVBYgwgJmNUx+nY9IgdLgcsBs7ZtttmmkZvZFt3oE0JyPBfEQWKJ49ubtvU7T/kKhaBIrVBYo2DsQwRIBJkMIo9JQt4+w2VmFSKiCxeCGwRpxENuNov87Gc/a2FJXygE1RsKhTUGhp7B55AJZ4ZmtuR4OYDE8rksxyG2+UKZ6I8UAbn1ibFQCIrUCoU1hhj5PmkgAaQSUlhqyNe3G/PaQGaNyC2zt2EIEZJh1hdSKxT6KFIrFNYYGPsQGh9p2FzBXy4SsFPRv+9CXtHPzG0+y4f0pr+4XkHwbUlh5MyHEAvrD4rUCksGRohx6x/nXaYYp2zTZsD4zmO0HPcNs2NuGGI0bVIALx2T7R0tLweDPJJ/lrYgvjAQxwvLdOCcu+Y4eide0o4Kcsmhd+TKxzLcIHifSxpxQxp04WyFB/JSXhA39TsOyMknvcwMyRSmnX0H0jVwPW4+9ZR4KU/eWQPyC4WgSK2wpLDsxED5hh+Dl3ejYlQZQscMWAwi33meDzG8DOS73vWu7mlPe1r3whe+8Frps0NaRj5bwPO+0w9/+MNu3333bTI++tGPdv/wD//QwsWlE0Ms7a9+9au2exCEe7mYHATRN8pIqE+I44Ieyn67292u6T7fLeyZlfXjO6bvqaee2sJCBI6VwY5C9aJ8o0I+5IV0yaK/unONfNcDYXHzAT3JVC+eEWor50VqhT7qz9eFJQNjG4PHQAGDhwgyu4CZhpUxRHZnn31295GPfKQtYzGWXib2TUHXBxlG1xg+ZCRf+fn4rmP5C/fZKGGOt956626//fbrttxyy2ld6Cad677GgST6Gy/IDwkKFzdGdxQon/R8xPuxj32szSoR7zAScN3NAufFbefSmmHusMMO3TnnnNPKLlwemVEpY24yRoW2IIdcdcJdddVV3UknndQdccQR18ZaOOiFEMl96EMf2n3oQx9qskOS4+hcWFsoUissGRhPZACMEeMXcnOOCBgvPmJgkL/5zW92H/jAB7pvf/vbbRu37/4hD2DUGOb4c0E+jDb4xiFiEHaDG9yghTtnFOOEi0enxz3ucd3BBx/cdLFcyQkXT74wUwfH5PbjLBSpFzL8mfrII49sspC/Le2D5KpDoIPjEJhzL19/5jOfaV/QN9tR12Sp7xBSbjwWCjcZ8kM8IbXLL7+85cUh1VFATmadjh//+Md3xx9//PS11H+hAEVqhSVDSI0BMtthVJ0zrAyiXW0Ml7BPf/rT3ctf/vLuyiuvbKSTGYdrDD1Z4jKejHCWB+eC52iZ5cQISsfQM+TkCYuRlI9wefik1K677tq95S1vaXqQJZ00Zm7CpEM4dEMizseB9PRFopY/73rXu07vHpSv/OdC6pTu6lhcNwKp3/vd737dGWec0fIgy1KwNOLSf1TIQ50pP9+HktWdWdVjHvOYsepEWvqZcf7t3/5t+9xXbhq0V6EQFKkVlgyMj9kA48oYISKGEBkwvM6/973vdYcffnj31a9+tRl0BhdpICCGOgaMETYrIG8YiUjDuCIJcR2T5Vj6xJEHkgxBOmdI8/xPHv5F5vcnIC4gCvIYcnAs7TgEkfKoH/lYGs1SKX9YeUEd0Zt+kPrcZJNN2p+0t91223ZNOCAhbaF9RgV9yaSz49y4CBuk8zBIS9Yd7nCH7r3vfW/7lqT240JuhQLUQnRhycDwmBmENBjcGDwbP57xjGd09773vbvzzz+/GUVLjdKIE6Jwp87wkmM5iwEfRh7IJnEdIzfnyBIx9u/4GUl5O2eUzSjpJ1/G3zO8DTbYoHvEIx7RnhVx4pITMhmHzAK6qR+y6ODr+oH8BiHXlZVO6g0QuLL5xNTRRx/dykVveZkpK984hGYjivy0Dx3kv/nmm7f2G6bzfKAPWBb2DcnUNbk5LhSgSK2wqGBgYmRmHjNKZhyZmTFIv/jFL7rXv/713fbbb999+MMfnp5dID535oiFYecQmedJWe5jNIUjokEQL/lx4jP08iLfuTiuOQ+ZcMCQhgSlQQqf//znu3ve857TG1eUL7MGRDEX+vURP65/Lh8kRCd1dsABB0zXgdnaIKhf5VHfZKlHSLmR2Ze//OW261MewpAZ+a7Nheg4Ewn3LJK+bhrkfeyxx7bZn7YMsc4X5KT+ITcN8iBLG8ljZrxCoZYfC4sGRofRBUbZsZkBI8SwMUyMpjDX/Jb/Fa94Rfe5z32uhQ0yqCsRDCq973vf+3ZveMMb2l+lEVCIGPjIRNkZYs6xMOlDtuIlLudYfVqOveCCC7pDDjmkyUOuCIg/KuSP+LSLjTDPfOYzu9vc5jYtv74ujukCzpVLeYWnrYQ7jr7a1RKnf8A997nPbc8DkarwQe2bfOVHDuKWlxmka469cP26172uPd/sk7a+VigERWqFRQOjlyU9RihGiu8c+FdffXXbzbj77rtPGywGdhxDvVxQNmXYYost2uaFBz/4wd0tbnGLZnAz22TQLe1ZnjPrE84oM/KMNx+5MdDC+T/+8Y/b0uaBBx7YlmaRjhmia5mhjALpMtOhG98W+Ze85CVtWZV8QBTKpj0BCYa86E8HccjSxuQq3xVXXNF96UtfarM07Sxcf+BH1mwQh2x50CHkJiz6WoIlmyznyTttUCjAHx555JEvufa4UBgLyIlxYcQZHEaJAWSonINlL7vhnv3sZzdDKS6DJl4M6mpCjLZl1AsvvLAt5yEgOyTNqBhfxBXDL65nZOojxlr9IAlABOro7W9/e3fUUUdNEwi5MfAx/OMgxEAO0kSiSAohI176yic6yzszUD6Sllb7iWNG5kYFOZ544oktHOiuLszeBoEs+sgXscsH5A102nnnnbvddtutnYfI4hcKQc3UCosKRik+Q5ZlJO7cc8/tnve85zXjx+AzZFlOY7wZtdUGBpjhZehDXnvttVfbdr7ZZpu1MgpzXTkh75khdUZfOqR13nnnteeKX/ziF7uf/OQnTa60rnk53POpzK5CgqNA3vSmk2NkRs9b3epW3SMf+cju7ne/e3f729++LfeJh0hTRvrIOzNQ7w5efPHFjYhPO+20dq6tExf4wpDkXAiJiRfilC6kRrdPfOITbZOIOJnRilPEVuijSK2waIiRYWAYPscMomPG+rjjjmuzGfGAkWPQGVVLV6vNMDGmiImfmUmIee+99247DG2fz2aM1AdyQnCMs/hmSTacMNoInzxxyVZXnitl9sJl9jsqyFDX8UF+IL+b3exm7csjyE37eAXC80L60IWjsxsSM0svc5uphohSTmXjZ5aZdp8NrqkPTvroJVz/QLY+iwauC8+MNXVTKECRWmHRwMDE4OScsXn/+9/fvfSlL+1+9KMfTd9hM5aescSwMmaM9WoCvc0kGFeG1zkCVz7He+yxR3fMMce0HXvimN0gAkt3SBCR20Xpe4xmsUghdYcQnIurXhxnZgfjkFrIQ17aI21GZ8dkO9Y2nN+8+BKJ/Olid6N39SyjKj9Z9CVDfMfqg67O6Q5kzoXolJshS5bqyjlC/eQnP9lttNFGTV99h47q0Hlmc4UCFKkVFhWMDceQMWinnHJK2+GI0ISH1PiMnziMmPMYv9UEejPgjD2jrIyBnZCeA5mhmpk5tyTLCJ911lnte4g+A+ZTUuRw0occMvtzjhDNkOQF49QVPcmXH4QoQV7aw/WQtPh01l4hvlxPGPBzDMgHMaU8/LngurIpF5nqSnnNGr2/eOihh14b8/8+ZxOHXvLjFwpBkVphQWBEGDqGhdFlXPKsCBg8MzDhH//4x9unrhht6Bv8gDGTZhzEmHJkzZTXN6jiQOLkfFSQPRshk5vZ2/3vf//uHe94RzPQyP05z3lO8y+55JJWJ+LQL7rwuX59qW/1Lr8Yc/UvPHXIV+/D6jP50Fu+0kDCQ0IwWz1F1+SbugVhrtHd0mPqRVg/3kwoBygjMpSOrG222abN9G2+ib5xRWaF2VCkVlgQGCezEgaHUYlxyawixvBrX/ta+wivDQQMX2Ygk0aMLSTPzEj6hpghd073GPXFhrzzbMm2ectovmVpKS1f3B8VSMDNBNmeWaUdlBUx9AlxNSBtplwhQGVzY2S2WwRWmC+K1AoLAoPJcDI4DDbjw6gyRrmTtr37Na95TfuSOrJjfBHhpAwtI8hFfsgqxrE/mwipOXd9kpCHOjHzUG+erXkO5Zh+o9aHtOpUvYfIyFIe7cKlvKsFntfRWzlSN29729vay+HCXS8U5oPaMlRYEBgYxhOJeeaBtPKchyFy7gvw73znO9tzII7x5TNWkwCiYvRm3uXHSIbEOMf0iEMIk0KWH5VfPp4vuREI+YwKZbI8Z5s/OeQLc5ybi9UGNz3pI0h/zz33bLNb9TXsHbdCoY+aqRUWDLv2zDoYU2TCoDI8durZuu+zS8iN4Q2JMLiOJwmkFaKik3NGEbnQhwOk4nqOJwW6RI9sfAB5ZuPHqCCDfOVTz5n9waTreRJQHmVxg8L/yle+0v74rc0s1U6ynQprCzVTKywIjAsjylAzzIwpQ+TYdwr90sR/v9x5M65mDjHskwISQ6iW+UKgnHzpioRtXqEPXemEjKVBNpMCHZTbDYB81R2fjmZt4yIzwVvf+tbtnTJLkqvV+GsbfcaN0he+8IW2pV97ait9rFCYL4rUCguGXXwhKmThbtqs4/TTT2932IxtyEU8xmmSxlY+eadJvkiEjl4adsxAOrdRw5IdAxqdJ2kwEViWHc1kQ6ghuFEhrTr1dY13v/vd3Q9/+MPuhS98YdshaJaTGdtqgnoxI/NtRwTtv3V2iE5y2bqwNlHLj4UFAYEw1P51hiAYWMR1zjnndA9/+MMbWbjujpuhQnxZ/hNvEMjikE6MvvSO+cjANUYushhxpOXbgD7I64v5D3zgA7s73elOzSD209PZe2H+qu0npDa00ItPLogXJF0/v4VAemlTZyFdMpGSG4J+OYPkO/M4ZOjzWw972MPap7jMNNW1OAjh1a9+ddt5atYD8pU/9GX1MZsO46AvL20W9HVIPL4XvN/znve0L/CbXasnupv162eLpVth7aNIrbAgMECMMaPMSDP2v/3tb9tORy9Zj2p8yEV+DJkZlGPGEOnkmC8/S4dmP75PaLbyrGc9q9tpp52ulTQ7yI9xjaFFcn5/88Y3vrF9s9Ann3yXkUENlCe7FiNDeno4H8fYkqNM6pFcsjg3A+Tn2HVx/XDTNxC90I7EE58enHrzuSrvBnq26dwHir06gPjkheCSJr46d0yH6DEK1Fvqh0xt54ZD3SUP5REe0nLj4WZE33EzUiiMiyK1woLAMDFSDD1yYyh9gHeXXXaZJotRwMjFmPdJI7MMxo9htsRmmcqvXl75yle2mQoD3yeimYihJQ9itLPBgmwzOOTmo8L+bg2Mb3TikGlmRcot/agEAPTh6B7Czo0CmIXS3dLpHe94x/ZTT7sC5Zl0fUinTZDYq171qu7kk09uJO2Zm281hlj4dAcyyJJPblS4UaCO45NHH/3E0mtmzZxr8tSOZpxPfepTW3vSq1AYF0VqhQXBshbjxzgxmAy/f375GK9jxmpUIBBGNst1ZMX4MoTu+u9zn/u0n09uvfXWjWQYYETDQM4FaUMAMbbOY4TlIUx+Zjh+neJ3LGZy4tPFdWVWfgQU3YSNAunpEF2ij/PkqT4txyGyffbZZ7reXROXC0mAc3LVn+PDDjusO/vss9tHpMlVR1nypDufrJCnOMl/FEQ37UIHeTjPjYkyamPhZtlI2oeKEZ9wOhcK46JIrbAgMOqMIDJhpL71rW9122+/fZsxmSEwlKMgBjaGWh6Megz0Pe95z+5BD3pQ+8QUuMZ4gviIZhDIDwEw3M7pz1cmhpYMccxqLPHZhOGZjjT0ENexeGYfzkeFtMpLnmP5puyc5VRb2o844oi2wQXBKi/nurTgmAxOemXqE5a/in/0ox9tZUGK9E7diis9hFSkDQktFPKMI5cvT/VNJn1s3rnf/e7X3kHLrDNtTK9CYVwUqRUWBMYTGCrPtZAMAmAgnTNkoyDGkOHLDIyTn79JH3zwwd29733vZnyRp7t7M0Xb2OkyyCCS2zf8M8Gwcgy9PEOWvjnoWQ9iQ2Q2lDDKll+BruKPAnow+JAbBO6Wt7xld6973at7ylOe0m277bZNZ+HK59mlmwdh9OHDzDonG1ELlw5pWKr1yxu/bzGzpTsnHvmWB5UfqY0K+XLRS/nMDOlAFzc/D3nIQ9rsTD2KRwf5SzezHIXCKChSKywYDCEj5P0vD/kZIy5LW6NCWoaQkctsyo5Kf8m2m9E15CMfxEMPoMswUiNPWka0D2FIheEnk8/YMu708J1Gy50Mfp6nIVaEKl9yR4G0CJneSNpszHPJHXfcsZG33YDykR/96eTcccqfOqJnH8JzTXrH4ntW+MEPfrD7/ve/333qU59qm0roIQ75STcOQlLkhFC1oeViJK1s6lvbIeZ+2ehSKIyLIrXCgpHdiccee2z3ghe8oJENEmCUGLFRwLjFCMfA+R+Z5TfPXxhL1+TjOqMpLwZUOH3mQgyneCEAaeXBxZiLB+LKR57CPvaxj3UHHXRQIzKEYrbkOpc0C4V8+zM1z8xe8pKXtJsEIDflo0dmV8ouX4RBT/HISvkcSydcmZwjEC+am0mbkf385z/vvv71r7e/BHi94YILLmhxpY8/CrRB0nrXzPKi7fiegyLt3DTQX7nEd0731HWhMC6K1AoLAqOV51l2ItoGH5IBBmpUMMAgD0tVfizqD8wxeDG6zmN8MysQthCEEPqGNLqT289P+Xwtft99922kJk/XU+ZRID25yeuQQw5p5Q3pRn7Oo1vqaCbIAenEDbmpF6Q5kwzJRdIXX3xxe53B0qq/bnvf0EvP4nCIJ0uUkZ16T/3oCze5yU3aO4LIzGsE/vhtx2Y28CBl8frpC4VJoEitsCDEKF100UXddttt18IYzxCb66OAkeOkt0Xfzr3999+/GeHlvov3TI1Bfv3rX99mjplhqQcEPw6QDzne0fJ+GSJQDwsl6YUipBniQ9Y/+clP2nM7BKQdLC+blSO7hJulmn1tvPHG7VUBpKcMws0GvUfneZkwZKr9gLzlbMPC+oMitcKCkLt+Lzy/9a1vbQaYYcwMYlRSk54sBv5JT3pSW9Z0949AXFsug2i3oPIyznZFWhK99NJLm16IgL6jQHlC4nzLgkhtv/32ayQjz0mAvtpLeRynvdQxkkNc2hhJCRO3/8UVoDsCMwujKzkhSWkiS3jIWfoitcJSoJ7MFhaEGPFTTz21GSpGL8axb/gWCmkZ0zvf+c7d7rvv3p4tOR/nudViwGYOBIZ4bLF/05ve1HRlrMfRS1rElbqzFGhXpZlPiGASkG/ISt7K5Tzth1ztLEV6rtHF+4FmZRtuuGFz2sZsLPprI2QIzrWbfKTPufwKhaVAkVphQWDsGCjLUVla4ueOfVRIjzz8vt87Wgyl2YBlP7Mld/7LAWWyS9AmC0bas77ddtutLcuNoxMCydKl+kQClv883xqnHueDkI06VoYQXdoTCZmF0lFcszZx6JlPbrkG0iFi7SRO6sRxnDiTmnkWCjNRpFZYEBgpn5JiFGPAFsMIM5i2ex966KHtmEwGFaEgPMfLAWX0xXiGnV508eFd4ePqpC7zfM6xPxz4XNekSQ2QTJZ2lSsklZuL1LnrISVhZm3qwjV1IC2II0w8x+kfCNK58hUKS4EitcKCwPh5KdldfUiNYcuS06hgEG0ysLQVw2o2aNOIJbHlAl2Uy9JglkKF+ZAyfxww/OpTXTr2rA6Jj0uWgyAfM8QQp/IgHW1pdhaS0p7Kqw3Edc43YxVOb2k51+yQJMN50nNkQ/pKoTBpFKkVFgRGyowiy0nZ/cbNd4kphq8PhGY3JeOXZTDPbZAbQxsjvFwwQ0E2nn0h2Xe84x1j7XzsE4K66898uMycFhvyVKchtxC1Otd+dJC3OML40ZWeZmniSR9iSzzXhWfGJsyxOCHLQmHSKFIrLAiMls8txaDzGS3hw+7GxYEYRYhB948wL+uS5RxiYGMYlwOZoUCeHfF9zsrxqCBT2cz2It+mFPUpXL1MCvILGeVGRJh6FuZa8lfGXONH17Rb2j7h4LgfzpFbKCwFitQKIyFGLGTDDxnNhRi6kF+W9oTZFGI2lJlB0D9eDsTIA7JJuYVvtdVW7XhUpOzkcgjUDYOlTueFQmHhKFIrLAhmEgxxZmqQ5cH5GGKGHKnx4xCZZ2lmQDH0nGMzAv5yQf4pF53yHA0Jj/NTy5QtUCdIzbtwvtJSy3WFwmgoUissCLZ0h3Sgv1liGPnEkCd9Zmyenfm8UmYsIckQWvJaLtAp+mQZzrKcD/SOCjKQWMiLXORus4YlwVquKxRGQ5FaYUGwO4+Rzyyjv+Q4jHxCDEFIzZ+dt9xyy+n04vQJLTOl5UB05vcJlu6WS8eBuuuXE8H98Ic/bDO15SxzobCaUaRWWBAsjzG+Iae+8Q1JzQf99GZ7Po7MyMfF0PfdcoE+ZlWQWeRiQTm5wO9h7LBczvIWCqsZRWqFBcEfmJFXds0xyAiK4R9miF0PCUrDOUcU2REZJw/OsXh9w7+UoB8d8izROV0sFY4L8iDEhtyzm1R9FgqFhaNIrbAgZINIjK4ZDNJhoPvP12ZDiCzoExayCOGBcOeZIS0XQjwpL/Klb78coyAyQpqcd8aSX6FQGA1FaoUFwSejkFeML6Mc48xQD0Pi8MmQlkNewszaHJMnn5DIciF592emyGdcKLuZqHJmSdO5GWBtEikURkeRWmFB8JK0l4R9FgkQT2Zow2YZDHhIMGTBN/vzexPHZkSZFeVcmmGyJwU6RA8+XfIVDiQ0DsiAEDt305vetH21o1AojIYitcKCYKbG+MagxxjH8A9D0iEHQFa+L/id73ynkYXrIRDHrjsOASw15BsihpTX7MqmjlFBbuqt73ypxK9fCoXCaChSKywIlsdCNplFzfe5FyMunTRkMOLg3bdvfOMb7ZpZW5YiZ8ZbDkQPLufK7fcrX//611vYKEg9cMob58eoZsKuFwqFhaNIrbAgeN6TGZllxxjjGOdBCDmF3AL/Jrv88ssbYXLkmAnJi9yVYuARLNDHcumZZ57ZzkeBupjpwEzNH6ULhcJoKFIrLAg+ZYVsEFOQ48xm5kKukwEhK+G+d3jVVVc1wswMEBAJkltOYlM+OiHanPsFy8UXX9zORwU5cSm35V1fWAnJFQqFhaFIrbAgMLz9vxzz7Qzsz+DmAmISP/Ecc2Zn/vr8iU98opEFuVyIzIxQvOUAcuWiC58+9DTDHBXkIEmylTV5qIvstFxKpHyDIE4/3rA0M+MXCkuBIrXCgsD4PuQhD7nO0qCZVAhuEHIdGeRYWs/RfBrqS1/6Upu1BNk4Ip/lAn3oF+NMH/q/4hWvuI6uo0B6JIYkERkf4U+6vJEf0uFCsNolbZMyO3ecZWHH4jrO7LVPzJEvTN0lTqGwFChSKywIDNw+++zTfMaLEeZiGMeB51Q/+tGPpo0jo8jQO+aWA3RBPHxLpMrqD9Vf+MIXppdRR0XqjE/+5ptv3m2yySYTJfLkxZdPztUzkk0YvdxU8IVpb+VFvsI58aV1PBPSuO7mR1rnhcJSoEitsCAwYr6oz/BBNnY4z7LiKJD2W9/6VnfCCSdMz1rkJdw7cY6XA8oW31Z7erzoRS9qOubaqGDsQd1x6vXOd77zdPgkIB+zp0DdOkc6nDKFgNQ9YgqxKbtjbcOB65x0iec4xJd+MckyFQp9FKkVFgRGirHacMMNm6HiGDuGbRxSYwz/6Z/+qfvmN7/Zfe1rX2vnDCf5/l02juxxoGx0MUtR7q9+9attmRQZxLCPC3UKG220UftjgbqcFAmQff3rX7/94gYJ5RmeMsrTzCptHNJ2XTp1IUy5tYf0iZO6IENd5Q/hacNJladQmIkitcKCwLgx6I961KOaoXKXz3BxjNw4IMO7X8cff3z7cLK8yOw/01pqMN7ytjHElz7M0uhJtxj0UYFIQiY3vvGN258KQiCTJAF1iqCUI+f0UM7og/g4137zm9+0F+TTDpZhPVeUHnn1ZZALZCiHMPXELxSWAteb6oTLYy0KqxKMFVK78soru+22267NrvJsSfioxpgBZCQZTe9qHXnkkY04GUPX5MFfanjJOsb5mGOO6V75ylc2w82YM+wx4qMgdUX+ve9977b5RJ2OWofzhbKEdMzIHCNTm3U8L/Rc0zEyQlZ87YLglVc7Kz/n/K//+q+7O97xjt3WW2/dZtXieoE89cZJuxztV1j/UKRWWBBixBm6O93pTs0AMlgxxAzYKCCDkx653e1ud2tG/p73vGcLZ3QnbexnQ5YZjzrqqO4Nb3jDtKG3TOfaqAipxOA/5SlPaeVFEOrYtUmVNzMy+N73vtd97nOfa//JMzvme1/Qph2gG9BJGmWnmzoR5pzOG2+8cXf729++kZoZ50477dSeEToXJ+UtFCaNIrXCghCDyNi95CUv6V772tdOz9AYrZDeQiE9mXyOHMR23HHHNd+MgoGUh+dBjCqiow8nnB9ZgTDnDKtjefDJz8xQeciKoSfLccpzyimndM985jNbvuJbhuvnMQqkT55kPvnJT+5e/epXT5Ma8kScrkdPPw91PWm41EG/jOKrL+kjx3VylclnyT760Y+2Z4P+tP2DH/ygLS+6TjYnvrjgfBjEj75eHkdwPs6M3B7xiEdMPytM2RxrC8dJG4Q4ITqLUyjMB0VqhQWBcbHkiGDc1ftqPyMUQnI8DixpMWLkMNiWtd7ylrd0W2yxxfSsKUaaAXXO7xMixOjH4AezXeeAgWVEPTtDCnDaaac1YvWsT1p6idMnpFGgjDZpIEhLdZZcbeffb7/9ut12260tt/7jP/5jq2fl5ouLWMXvE7IlUrLUS8KAjnn2RR45r3/96xuZWWb8+c9/3uIpjzR0csyNAm2nDulCFhK+xS1u0d33vvdtRPfSl7606ZFlyxAavbSfa3QVxuUZHnmFwnzxh0ceeeRLrj0uFIaCsWGAENsNb3jDZhzd7cfYjwpyGWGILBsVPNuxI9KzJmTDoIvLWDPEDCEkb37IRjzGNcQTg5/r8gl5SseRl3ivec1rumOPPbb7/ve/3www0oghDpmOiuhEDqNuI4olP7srLf9ZzjO7yewn5UII0jhHvI7pnzKkfegpfm4ATj755Dbb/MpXvtI+Hm22BqkHaclwHt0Wiugpf45c5brsssvaXxi0o+teW6CfOM7VedqRDG0G/JQ1YYXCMNRMrbAgIBPEwtCYIXgmc5/73GfaGDJKo4DR4shl7GLcGDsG8Fa3ulV39NFHd7vvvnszdMIZzWuuuabNBmYzeox5H9GP/JwDclAWJI1gHL/uda9r78wx/tIw+CEgPtnSzcxjvpAuBEp35GMWRjd5Ke/ee+/dPf7xj2+vT6h3pK5+5J+yOA5SnugIbj722GOPRiwIJqQsbvIWl6yQ26iYWRfkcmQmP38huOtd79odeuihbWlSvimH9OLSkS7KK0w9q5NCYT4oUissCIyO5y+Mk2NG/zGPeUx39tlnTy/ZjQLGlUHnGLgYWDK99MzwMXA2H3zkIx9ps7gQmzh8aYXFADKiDCR5IT0yyeIz/pa4xLe8B1/+8pe7l73sZd25557bSMbMSBzx5c/Jh2x5Oh8V9Mq2eU4+vtDvmG6eScGJJ57YNsy4Rg9EJa2bC2URN2VXF8pMb69G/N3f/V3bqZpZJuK2RT/lkB6ckz0OQpDyIctx5IN6VoY8G8zmGPojXDoqEznC1LFyFAoLQZFaYUFg/BhFJMAoMqLf/va3ux133LEZs1GNPFmMIGPGZ9AYRu9vMXjy8dzpF7/4RbuDN4t5+ctf3pbo+pCGYxhDZPQKKZLNzzX5cMjshS98YXfhhRe2uAgmS39IBlI28R27Tq9RIH30iPFHOIiU0XfsOgITZ9NNN+0uuOCCdhOhzCkPP3qCeqTvnnvu2X32s59t+rkpMPsUX11kph0CTLoQX2QtFOqFrqkf5aKLvORptun5mPZzYyTPvfbaq83AlQ/S/pxjOiJCMguF+aCeqRUWBATDyIQcGH+Gylf2bTxgiEYBo8X4MXTxyWeM3eEztPKWlzwY+De/+c3dT3/60/a7FgYZ6CVt5EEMrThkCmdUyfY80BKfGQ3CQCjiQGaCIR4yHAeRNSrog3AQlxkbA+6Y/spIP/ItRV5xxRXtlQIvPnu+aAZDH/rRDdSRZ5AI37MzbQOWLz2vQywhCuQlvTIKB+HjlCczZDLIpg8f1JW2oy+9MgP77ne/23RF1Le97W1bmDqgl/oR13GhMF/UTK2wYDA6MUoMMCKwYeTBD37w9AYECDlAjNsgMM4Mo9kKIJAYYvkhNcZf/shAvu76zQAY/vvd737dAx/4wPbMxvUQIyPLwDom+7zzzmvb9H2OiwzXXUt8xl2+DL/jkKp4dGScGVvX+2UcBnE5cnKujAw9MN7qiR7ihNxCWvKjF/ec5zynvZyu3MLJsQHkiCOOaLNNhEiuXYcIHEEoS4jdcfJP2ULY82mr2UBe0obAoptwTl2mDcVXFnnf4Q536P72b/+2e9CDHtTOxaOr9iJL3EJhPihSKywIfeMXohCGHD75yU92+++///QdumsMM+MmDjdJxKhy8kWESM/shhFfDsSQKzud6IP4Qyajgixb5W1oQQxmYt4b/OIXv9jyGkf2cuEud7lLe+/RxiN1BsqJAK0OFArzQS0/FhaMPnmYRTA87qrdlV9++eVtCSyEJw5Scz1pJgVEIU9g2OVrRsVfDqgb5TXTUH6zrswAxyE1ZSTP1v/3ve99bQnWRh2/w5HfpG8eJgH1gZgts9og4+POymmmZlNJoTBf1EytsCCENDL7ckedMAbVJ5cOOuig9qzKdbMlRnzSMyV5M4ycfPuGPfotB+RtU42ZLPJHdOpOvSG5UZEbCbIiL8uUiHw1ztToT28v2iNrz9i0o6Xk5WzDwurC/3vqXSgsAIwMAkEmmR0wSPe6173aS762/GemIi4jPGnIC+QXR8flAqJRboSGgOiC5NVLnhuOAuUig08umfJBbtog9bCaQOeUw2e7fPlE+ewCXY0EXVg+FKkVFoQQGIPDAPETxjHku+yyS7frrru2ZTfXGFvxuEkh5MUA0gPkJ3yS+Q6DTRHqCQlxnqfRDxmNA+XKjkkgj1x1vVoRMtaHTj311PZ5Mm23mstUWHrUM7XCgsF4ziQMxyEWy0Wei3g+8rOf/awZ9T7ZLDaiSxDjyM/xckCZEY/l12c961ndzjvv3HYjXnzxxa1ORq0PZWX4U6d85fS8DuS32oDwUyazWDtBzzrrrLa702e1XCsU5oN6plZYMGKMGWbG1HkIzl01o8oI+XCu/6J961vfas+PJnnHLf+ZBBZSC/EuNVI/++yzT3vHzIvkvu145plnto8054PCC4XyMPrqGQkgBMhszTO1mXWx0qG/0J1Tjryf5jc2vr25XG1YWH2omVphJPSNTIiDQ1wME4N061vfum3TPv/889u/uoRn9x/YQJH3pRhm10dFjPhM4zfzfDGBSBlgZc5MI2Vwzj384Q/vDj/88PZ9Srogtu233779i84XUtRNyMh1PjIkO7M515FX38+yo3KLww/JDQPZIcXomZuS1KNzDoTRJWVNnQojJ7qLLy6nnRPXMnR0nAtJF4ivLMjNe3beP3RduV0jW31Hl0IhqJlaYVHB8JiV/QEDeW3YRRdd1D3taU9rX2r34N9L1Awqw+fFaegb1NUCOtvckJeJlYnBZfyVxYeEn/3sZ3fbbrvtNGlwDLJzH2P+1Kc+1X3oQx9qn7RyLQTAoMeRJz4SUV8hu1EgjxAaHRFDfHKRRmZ64vI5bZXPVQm3/d5x9Eo8ejnn8uJ4wvlzwTVyyevHpasvxvj1T//zYKkj8eleKARFaoVFBYPN2MRIefGZ0fGH7Cc+8YltZxuDJ8xXLxhLz1DM2sRdTVAOpJYyO2fEkYIZmi/Rm5ExzAy8uOC6uPmaCXJDam9961vbe37qjlMnbgBSl4D0EFvOR0GIgD7+2QZ9QnHNB5R9Psw3GUMwyBuURdvxP/CBD7QfjkoXoolu4gtzLv4gpIwzSU096SP6zqte9apWv4iXr97Vxzh1UVh7KFIrLBoYG85XMxhLBipGn6H0U9F73/ve3S9/+cvrLEkx3uIziKsNyoG0GO0YXMuNZqY2yyRMHcTIK6fwEACSQujOX/ziF7e/EIivbhh1aZxbulRPjDxCHAXyM/PTHm4mQiTKwfdFGIRsdkRf8bQPHczOzLTphND4Zqi+++lnqu9973tbuFlgiFcZ9IFhRBwSo4PjnIMwP6P1tRSvipCvTunmGrnqs1CAIrXCooOxZIQZX8aQ4WHsGE5f+H/oQx/avrtol6Qt7pnJDDJ6KxHKxWDzM6Py/cLDDjuslV0dMLYpV4x86oTP2Ju5ISykhiQ8f/RbFrNaZEeGOhWHMZemb/RHAULIMild7DBExr6f6RxhhSiUg67OEQrfdXoLVwf0o9fjHve47vOf/3wjdGVB9in3oPZNeRKnXz5hnj8+73nPa/Xipsl1LnXJFQpQPaGwaGDwGDFGDlEx9IxODJ9lNob5nHPOaS/XiuvOn9FcrZ9CSpktM5qpIAZGV9mBse0bc8fCpEMMnlNl9pFlWF/S8MFly23qh/FWPwgu9Tkq5K9torc8n/70p7c28c1FhKWtkB6SQkz0zDIfRx9lEEf8zLDJ9X6Z2aYwBAz+EjBfhKz6cG6n6Ac/+MHpzSryR6rKUYRW6KNmaoVFBSNj1mXpijFi2GJE+YwomMn4duE222zTDOOo29uXE4wpI+vL8m9/+9sb8TDmwpWJzwCDc2QUghMvMzl1RA7yiJEWrv7E33fffdtzK3WK2OTT/xvCQkAe2fJHqE996lO7V7/61W1ZU3iWNnOdTojNuXzpBwgF+fX11O7OyXruc5/biBlBm3FCyj4bZhIZJL5r+o4bB5/P2nzzzZs+qU91VygERWqFRQUjw9gwRIyzczM0MxDGJyQHCI7BfP7zn9/+NO0PzX3DDzONnWuzGcBBSJr5pE3eidc/76dnvBlsP7n092YEpVyuxyGEEJe0jpUZGbimrJA46gtZiOtc3ag34X6XYyblWl+P2TDoumvkaQtLhd6XQxAgT+3Dpx9dxTdLA9fIld41M1K+cjgO0ZjBgWXYY489tslTxuQzF/o6p5z9siDc3Xbbrc3YZpZPvEIBitQKKwL+BXbwwQe32Zs7/cxYGMMYf4YrBpJRE84fZtCQTWZDZhPAaEOMY+SQD8mDQefTR3qk44VgswazpxjwxQYCoCOd5InQ1FH0G0QQdFZe9ReiAbKUAakih/e85z2tbMIsRcovNxyjQD7y4JNFBxuDfEGFHuo0bSVfjo5c2nIuJI5PsH384x9vOoN2ITPtWSjUYnRhRcAypF+nuLP3Xpfdd31DxRAzagw8A+euHaEwaM4HIbMf8cXlc2YXfPnEhcBimAGRMPabbLJJM9Inn3xy+3dcCGYS6JdJPj43ljDkMAjKGzLjkg4RSOt9L9v1nXMhbOUVf1SoY/maYcqHPF9Q0ZYhn8SLk19uIOaCeKlry66XXHJJO5ZGeNqpUIAitcKKQIypF5ZtD/fDS7MJW7kRmJlEjJsZQJ77zMegIS7ybXyQ3rMpht/SGYNPLjjO7IFczhKjn3E+4AEPaEt1NlT4E4EZn/wnhRh5efg/nV2jyjHI+AfKowzK6jizGuVGzsqy0047NVnk87lxCA2yPOlZnPzVL8J6+ctf3vQYJ5+00S9+8Yu2VE0O2ZNsg8LqRC0/FlYEYuwYKYTB+DKMn/nMZ9r7Sf7Pdumll3aXXXZZi2OJjVELETGocwE5MYqMvDR8MwdGPmF5NkSWDREbb7xxcz6oa9ODT37JK3lKj2RibBcb8qG3cr3//e/vDjzwwJaXukmZ54IyBeS4KbAbk2+WZoeif5aRwZFHrvzGWX5UJ2RkZkyWWRv5PpfmfbbA9ZRDvQ+rx7STNnv0ox/dve1tb5vOJ6RdKECRWmFFAFGFKPrnDCPj5TmbO3SfS3LOQH75y19u3wVkHBnGQSCHAZU2uxQRBiMsrW3nt7/97dv7UIjsHve4R/uqBvKUhm8J1IwxS6HkST8JKHvId++9925/tka89GbEB5F4nywAEdBb3Zr9nn766U2uOJnFJr8+IS4UfcJXL+QjHXrbYekVhegkPHWXuhwEcuPvueee7dNi6oCccXQurD0UqRVWBBg1RrFvjBlvBpHhYnwZQc6swpf/Pa+xxd0nuE466aSWZi6QAYwigpOH98MOOOCAlidSM5vYaKONGoH1jWheEKcDHV1HLmQm3mIj8sESrK+wqAugB+KYC0mnXOpLfMSM3N74xje2XY+QsrgG48541GnIVn0hUuXw7NLuTR8lpne/7vjzITXxUm6kZgdk6j7lLRSgSK2wYsCwMYqMnLtvxsq5YwaMgY4hYxg552Yxfko6F/ozAoabMWcgkQVja1kuRpUfo5t0IB/pIGQxaWOq7PQ1c/SJqtTLfEiAfuKECOhqhmonoq99uCY8BK9sZPfLvFD0CYveaSPPMs20t95663ZDEhIVj5P/fEBXaX2Rxs5NZJk2iF8oTOY2s1AYAQwTw8oQh9Qs9TGQOWeMOcdxwwxxSIBjZPnCGMgYWCALecl/pkxphHHiTRryUOaQBH2TL12GQfwQMZ2VSXq/wBGecoLrqd9xQCbi4aK/Y+3nk2hbbbXV9I2B63HzKY946oI8zwfNXNOehUIfRWqFFYW+gR1EIMLFY0iHgYHnIIaQcXWc8Jn5OO+7PpaC2OgmH1BOUFbh3HygnHHK6wYhoH+/HI7nU5eDMFe9mFEpgyXekHPy4+ZTl2krzuYTuyBTF/NJX1h/UKRWKKxAhLgY7Bj++ZKOtJmFmdmE1G50oxtNz5SWGvT3TM+srU9QdJsvEKH4ni16xUH6QmEmitQKhRUMBMCQhwhCdsOQ2QsiCMEhA+fLBQSL2FKmuMzY5gNpUzZplrM8hZWJIrVCYQUiRr4/m4kfoz4I2XCTl9YZf7s455N2EqCLX+rIn1O+6JKwYcgs08Yer16QIcwGlUIhKFIrFFYw+gZ/vsbf8yszGkTGZ/Tzbt1ywYacr3zlK+1LMMpg9phnp4gphD0XxEuZ7OK83e1u18IWMnstrB8oUisUViBCQAy/ZTvGPMuIw4y4uAw+X1rxySHz/PPPvzbW0gJx+RoMgqWPc26+hCSeMiE/BI3YhKkT5SwUgiK1QmEFgsGOIbd7EDllZjMMZkUIjPMdRmnyt+yPfexjzYf4i4nZZArL57IsHSpLwpXJ5pH5lAt5KVOepTnmF6kV+ihSKxRWKEIQ22+/fXtG5vlYCGEQEARnVuNfdmCG5JnaBz7wgUYweQlaHpk1iT8bKS0E5GYGFpny8c88YcoQ0o2Omb0Ngrh5DpfZ2bi6FtYmitQKhRUIRjvG/5GPfGQ7DwnwRwVC+8QnPtE+L2aWhFDI44doRgXiRbp85EYWYvNO2RlnnHFtrNGA0NSHpUcfZVYfZniFwkwUqRUKKxAhGM6vbvgMO4wzQ7ED8bWvfW0jm8yqECXZeWY3KuhFb9+TRJhmZYjn6KOPntZ9VJCtDnwRxYemnfddoRAUqRUKKxCIJjMRhGB2wniPO5uS1iemTjzxxGmizE7EvAYwKrIphSPbbMqfFXynsf81k1FAL/Js5fcXcOfj6FpYuyhSKxRWIJANYjCT4h7xiEc0I26ZEAGNCoTjOZsNI9/4xjcaeSaPXB8HIRsEdMUVV3SHHXZYIzvLnuMgMz3fkDRbozeERAuFoEitUFiBQAox1kjh8Y9//LRhjz8qyL3ooou6I488sv3J27MqkOc4s0Bkltmf3wG97nWva8SJhMchYqCbnZNbbrnldL2MWw+FtYnqFYXCCgSCMBthzBnvO97xjtM/KjVbGxVZFiTD/+he/OIXN2Ije9wZD9n09j6an4L6GaklVJ/nGle29Le97W3bX69DnOpHeJFboY/qDYUVAcaQoWWobGDIeZbFGDIzCmExnuLN11gyfGYLMYAMu/MYc/nwyQX5eMYUw+kc5GkDBGQJbBKgB125lPdJT3pS0zc6xrhng4cycYOQ+kI29L/kkku6l73sZd1HPvKRdk5m4jiOc019pJ7SViDMMb3srHzRi17UnXrqqe0XMcLpmPobBrLpFj3+8i//cjrcc0V/J6eHcoqT9iwUguoRhRUBBgpiHPOyMOOFSBBajDYDyTn280yGeRDEI4uLEURoflz5+c9/vhlf1+ggbzMLvnTCnIdcEEg/bFKQt7qgFyNO30MOOaTVi2U4hp/Bp4t4rvtYMH8YyARllPbCCy9sS4UvfOEL2zGSUr/IW92of2UlW370ca5NMgv72te+1tIfddRRjdhC/OLOVy8vmSsbkCmdPKS94Q1v2D396U9v+WqD1D1dlaNQCOrP14UVAwaQMc1shDELmTGmfHG++c1vto0O/uLshWK7+WxKmAuMILkxzGRaxmMQfUPw1re+dTOgO+64Y1vecg4IRDyG23MtJIhMxKUPmePu6psLkU9Heabs++67byt7SNd1cVM/9ERCwueCuPHJVifqxvkGG2zQ3eMe9+ge/OAHdzvttFMjGtfkrT7ybzRx5fPlL3+5e9/73tddeuml7Tnab3/729Z+0ohPJ3WEHIdB3PjKjrTVuU9i2Rzi+Zx8yQd5ID9+oRAUqRVWFMwcgGFjIBnp3L1/6EMfal/EYDx/9rOftY/jxqgl3WxwHQkwrowzg08+crIrj89wimN3nc0IT33qU7vtttuu5c14M/6uyyfEO0lSoyfyUEafuqLvz3/+8zYz3XbbbZs+9KITHRl7JALqhJsN4pHrurKoG3Xs3DVlkpd/r6kLJLbxxht3d7vb3dozLS9te1aGbMSjD8LqL8mSQS/XyXUMc+kEqU9tozyRE9I95phjuv3222+ayCDlKBT6KFIrrAgwfAwaQwUMNqPI4P7t3/5tW9K6+uqrGwnFGHPgPIZzNjB8ZmvkmaUx1AgAWTDG0gOjLg5fHM9wXvnKV3a77rpry8us8KY3vWnLK7O9SYFeDD1dfJHD+1lZJj344IO7k046aZrs1UlmcyG6QRCPbHFBfHJT96C8qVfh2oFPH3VJFzNYII8TXxuS5Vw89eTcrGvQbI1c8qVD6PKVHjxHs6kFySHaPlJW6QsFKFIrrAgwfCGXEJZdeTYdfOc732nXGbX4jBhDLh7jOsioxegyltJbykIU0sR4M9qMKLJj8GOgb3KTmzTD6VmTZUlf5EBsIQRxJwV5KCM9HZtR0sUvXCwPKrfrfOFIAdEiEnU0F8gTV5wQp3pJPiGKQN1Fjz6RpZ6EqTvX1aM6Vdeu8UGYPOZCrpEr/7STmeCXvvSlbosttmjXXcvmEZBnodBHLUYXVgQYsRizH/zgB92ee+7Znul4ZsMwMpx8hphRYyQZ7xjZQYgBj+E0Y4ghZ0RvfOMbN1kc4hBXXmYFltmce/bmRWIbFiwJIo9JztTopz5CnnQze1Nuy48nn3xyd5vb3KaFm3FaLnTNrI2+c4Fc9RHiIp/c1KX6QExIDFGJq55c45xD6l9e/edu8ldnaS/Ep56S31xQhswGxee78fDSuc+E0Us+lonTdoA4h8kurF+omVphyRGDFOPEBwb2lFNO6V7+8pd3V155ZSMYhlE4o8kxtmZQDKp0OR9k2BhIcchjBMljJMkDOmSpTLhzcZ2LzzG6DLV8LIPyb37zm0+XJeiXZxwgC3rT8aqrrmoEBgiVYUf8BxxwQJu10YWuIQTHWQacidQ5uVm+VC4IGYqTMswmAyKDUz/qTRr58rULPZJevLlkgWvSuWFBss7dQNgERC/yzZLVefoDEpQ3uF4oQJFaYUnBADN8DJW7eAaKAXSHb/Zx6KGHThtIcWK0pBtkFCcFxlPefKSBZDfZZJPuwAMPbF/5MJtznb70UzZxQTlyvJiQj7rxXcUnPOEJbYlOWGZESApJJx69U3/qPCS21FBHqavUayBMPxBGd3oibu1vJu16oTAf/OGRRx75kmuPC4WJgoFyF874MlyO3W37ZNNb3vKW9hUKcTh3+eIghrlmHUsB+SdvhpVultfMJM2g7nznO08/R3Ktb7S5SRhj+qg7z5zsSrREi6jcIPTrjC6O+XRDFEhuOepSPUSXIHUE6hCi5+GHH95eLTBjVrZcLxSGoUitsGRgwBgsBpdj6GzPt5MPqQHj5ZrZBZgZLRehgbwZYn6fpCyFfe9732vLgTYxmE0w2oglhrtvtBcTdFA/CMCzPsuIF1xwQctX3dFBPSM4zg0CWLa0EWYSRDsf0Ffe/TpRr5xrbnb4/h/3ghe8oD37pDMiNosrFOaDIrXCkoLRZfwZKoT2qle9qjvhhBMamWV5jxHOXX2IYbmITb4McYgASWTWgDyUgfHdbLPN2lKka9FZGSZBIHRSf2SbydiVicS8AG0WSUf5m+GoT+fIIkS4XHWZeuHoED2cZ4nUC/D6hFlonoEiu0JhvihSKywZGDHPzhgxBuy5z31u9+lPf7oZ32xucC2E5tzGAT7jtlxgcOlEB3oBQlEeuv3whz9sy4E+OozUxHVNWSZFavJFVo5tYkGq8kNsdDGzcY3Odg3ykXB0Ww6kDmfWDd/5Ax7wgO64445rL3ur58zQJlGHhbWLIrXCkgFxcUgiMzTGi6HL7IcBixFzjbHrk8lygA4cHRhkflyMsy+cKAODrHzC4i82yEQQmdGqH8YfsZmx+Uq+L3+k7jjh9EWGk9BpvlB/6oU+gJjtaPybv/mb9pK9MoA4yNlszWxTOQuF+aBIrbBkYFAZM1+Ft20/hjbLTAwegyteZhOOl3N2wbiGyIAu0QdpIDIzCgbYUuQd7nCH5hhraSeB6MNXb/ShixmZr2/I33cxbYdXtyE/dbmcoCOkXpQBiT3xiU/sDjrooG6jjTZq7S9e6ldc8ehfKMwHRWqFRQPjEyNrSdExw5TNHgjgxBNPbF9yZ7xcZ2jNMnIsPAQC0kGMm3PHfcKQh2sxiJERYy+NMIg84UgVIYmXpTxI3BhS4f1r/WNykIb8zI4sRVqG9JzLNZ/WUm5xkgeXPEZF8gb1R1fOppE73elOjSB8iYVOytgnkn75yOiHQWRzjnOdjNRJwsRJ3sqVGXfKKI1yp18Ij4wddtihzc4e8pCHtPoSL9cg+ffDCoVhKFIrLCoYLQY8Ri2kwbgxsL6l6P0jhjgG0LMe8RlKbiZiCMnjEhbDmllRSDTXA8eMPV3Ahg55imsmk3zFi/zklfDAcc750SHpfHQY7n73u7dnXfKgH5+bLc1CkbTkzTT4wm1c2XTTTbutttqqLe35LYyyq283DtFD3Ph5dkU36JcRXFPH0b8fDs7dJNAn9ZybFdfUc25gpHngAx/YZuy+FuK5ab8crqe+CoWFol6+LiwqGDTOjrUsdzGGjp/1rGe1n1EiFHEYO47xEsfsbhBiQPmMY+QynMKQaeKQyYg7D4mQz/AiGRtWpA9ibMmjHyNMx5RhEGKAY+iRpq/K77bbbk0OyJee8p406IwklNEWfr/leeYznzn93znXsiSpzLkZoD/9hDnOtZCUa2QLVx5p0t7qmDxxsuNSH7Abs98WXlx/4xvf2D4WbTbpmvB+WxQK46BIrbBoYNgYQQYq70MxbAzX5z73ufaTR8953Jlfc801zXAy+jGc0s8FMjhx+0QonXwYVMfCgawcM6iMuLSeO3n+Bd6BYvjJC0E6ltYsSxoGehjkHzIQX76W1t7whjd0t7rVrVo+riNVurgur0kZcnqoC+VF1vI7//zz2yzSF0iy7R8x0cl1bUJ3dSMd0M81siDH5MeF/MSVjkw3BepQuDC++jzyyCO7XXbZpRGbeEmbOptUfRTWLxSpFRYNDBkHjDaDitz4/oWF2BhNhpEBY+y9vNxfrhwEaWIEwbGwzDwYxpAoeQiT8RRPOKOejxHTk45gaTIGPcaWjgy/OCnTbJBX9E6+5El37LHHtheJEYY4+QOAeIw9vScB+iIr5Qx5yl/5/KPuJz/5Sftih6/fz5ytOU6ZHXMpv+tcvz5ch377uS5PNxD+cqDtH/vYx7ZjOqlrxJd6AmRfKCwGitQKiwrGkcFCZBxj9/73v7/9QsZnpZxDDKT44jFqZk1zIelAfISDeEJwiOO+971v+3P19ttv3z6Gy7hmdoRQpEF0/tTslYL8pVm+fLLkwyA7ZnBjqGeDa8qAGPghEjLUge39/lLtC/qW2+grnxBav0yLCfmQTX8+vejgnJ6+Fal+tIeNO368KoxeIfLcaATSuRby41xXx5xjTrmQ2R577NF+tGrTSpZy1Y3nfa6rO3HTX8jmCoVxUaRWWFQwUowco8dwcX4j84UvfKEZS8+b7AhkNBk1hg5JIZhBBOKu3kyD7MgFsz0/8XzrW9/ayCvPsGKQxWNQ6RMi8UsTX6zwmSuG17MmxCYuHekkLjKQ31wQn1xAhMoU0qKL83e84x1ttpaZiPwRrPJMCsoQ/UOy+bq/cloKzMxU3dPFLNaPWL387AVuaVwjhzxlEsZP/TtXboTpJ6b77LNPt/fee7cl17Q/n1OPlj3pQIb86YJc1Q1ZhcJioEitsGhgmDgGjM8gnn322d3RRx/dfpHCkAlj1NytM7rihQCGGTZGkpFmZLltttmme/azn92MqTyFudt3jMjkJQ3fOSdf1xGL2R2cddZZbXlMGB1CnjBIpxh35UFm8jHrYMSFIQXfZrTsimwZf/GV1bVJgc7yRziIRDnp5pc5CKffPuqEPtogMyXX1KWy+Mal3ao2m7jxEO+ud71r+5Cyn6UmL7JCYGSSpaypD9e5tA3dnOsTwtSH+IXCuChSKywaGCcGjkFjrMAvWt773ve28HGAzMhggBHE5ptvPv0RX0ZyXJIg64UvfGH74j15jHUIy/EoiBH/1re+1V6KBqQQEhhVbqFQmBv1Ikhh0dC/U2e8LS9ZakQOwscBMsuMwu9evvrVr7bzzBRGRdJvueWW7cvw9773vadnVfIaByGvU0899Tp6huwKhcLio0itsKjIzIn/jW98o7v88subER8XCMEMcK+99pretWfTAbL40zHIJ4RL5+22267tCkRwltqUYRwyphv5NmJYhgvGJeJCoTA3itQKiwpkYymQ4f7617/ePhslbNyZGhl20nlx17M48mw68Oznv6bcqAgJe8bjuZjndNm1Zwl1HPKho/SI/Te/+c10vQhbDKIvFAr/fxSpFRYNmZlkJ6BdhjZdIB5G3LVRgSAOOOCANlvj5GVjB6JwPiroxCE3MvkPe9jD2i4+OzXHAZ3Jo19ml6BOxiX5QqEwO2pkFRYVmYl4wdfXQyCbRsYhNf/a2mmnnaY3jGS2tlgEQSYCyq48v0Lx7G4c2WSG6H0eDLn3wwuFwuKjSK2wqIix9u6XZTdEwajnOduoMEu78Y1v3OTnXTQEBEhiHNCPLATGIbUtttiiLUUmr1FAV5tNlP3cc89tesqLzCK1QmEyKFIrLBpiqJHCT3/60/ZeVMhiPoTG4PeXKclzvPXWW7ct8XYkZuaUF6THfYk5hMbPMWdWtfvuu3e3ve1tWz4hvDhxhiGvGXhWl2VYBDfurspCoTA3itQKi4YQA8eIe+Y1KsjI8zP/2/KZKUAwHORZWohuHMgvSBm8YOyLF8iVSz7znWUhcs4MjfNVDzIsx85XRqFQWBiK1AqLBkSAcBjszEr4fUKYCyESEDfn0uffZJOCfJJngDDlacnTtSyjKkuIKuQ6F+geEssSqfPaKFIoTA41sgqLCkafY8QZ/5zPB4kXcgkR+LTVMAIZF/Lk5NknYv/8ygd4Q2qQ64Mgfp4lWq5ElHaFKotrhUJh8VGkVlg0MPR9YorhFsawD0LiIBVkgQSc+83/JD/+C/KOvpzzkJsv7XsfTnjKkHINK1NmreAZoM9lOUeShUJhMihSKywqQhCIKSSR8EEQL5svxI3zMd4cTwLkZlZJB0RED86xZ2rRC8Q34+IPIzWkaKejupDHOeec0zaNSOtrKIVCYfFRpFZYVITE+uiT21wIoSAAZGDZDrzA7RuSkyK16BaS4ieM8/xL/iE9oOd8IH6Iz7KjL/ZHRqFQmAyK1AqLBgY7z5n6JCQcEQwy6Iy/DRXimBnZDs/5BiOZXGQuNsFFZ7OpzNri5B+C7WM+5KQcyMzSI1mPeMQjmiz5jfP+W6FQmBtFaoVFA0LI10OyfLeQTR6IgvEHfsgkROOL/3xfEwmp9OONAgSJeMiInsnDjNFHmZ0rT8omvvyHkSuZlhvJsmRpSz9IN47OhUJhbhSpFRYNSIHxRgIhIl+n5zPkg0gASYTUkAkgErMcXyb51a9+1b7FiFiEk+UYweQl51FBb/p6ry75y8PSo59sIiXXoT9rHFQeUJ6QF13NzkKcmR0WCoXFRY2swqIiszUzFEbceUhgEBCAeCE2CHF9+MMfbsSCIFz3RQ4+jEsOITH6IlCkHNK8+OKL2/crEWf0T37DygPiko106WsXZ9KPq3ehUJgdNbIKE4HPS93qVrdqxh+xDSMB5JLZUJ/gwA9B/cLG8l1mZeQ5zixrVMgHkZERPemC2D760Y92V1111bUx/69erg8rSxDiks6L3GSC9JmxFQqFxUWRWmHRgAxCNv5HtummmzbDnpnXMEgbQgt5mD0hG3+Pds2sCbJEKc44pEY3M0B5Ih1y5XHFFVd0F1xwQVuSdC2EljI65+YDabbaaqtpIptvfRQKhYWjSK2waIjRRwK2r9/mNreZJoRhBOC6uAGiQVZ8Mv26xXJg/iAtL0AUmQGNguhGXmRbNj3ttNPanwYgcRIvpNbXdzbQn37032233abjF6kVCpNDkVphUcHYM9pmWNnKDiGhQejHIQdZhdyuueaa7jWvec10HNeEizcOEI1ndNGTTMuOnuP5W7Vwrk9k881TujxPu9/97neddPOpj0KhsHAUqRUWFTH+nA8Rb7LJJo2AhhGBdH3XD5OWf9ZZZ3WHH354Ix7nCA/4zhOe/LmQVSDMkqJlxsQBOiLhb3/7291xxx03PUvrg+yZDsiYSXaRTTekaeaaNGZv0b1QKCwuitQKiwaG3aYLy3g+A7XLLru037cgm4Ugxj8kBXYOOj/ppJO6Jz7xiY0wEJGvfWSJT1zhjpFW0uZazs2e6GpHpd2VCMb2fZtCyLfMGTLsE9VMRF4fySfXbBB59KMf3eqFLM/r5JXna4VCYXFRpFZYNDDkiIcBN+u5+c1v3t4tc86IDyKI+YAMHxc++eSTu7322quRmlmQPJFUP4/4wrnMjJDd7373u3YsPvJFbpdeemn3/Oc/v/v4xz/eSFn8kOEg9AmsD2HyNSt85CMf2V4ZAHnSm18oFBYfRWqFRQMjjmDyQjRyMFvz1+r5EMQgmN0gpF//+teNFOxMfPCDH9z+sO0c5GvmhkhCYpm1ITmzMmSCaF1HZj6YfOGFF3b77bdf9+lPf7o9uxMuHTJWpmGYi9hsOPFqgy/9qw8ImdGxUCgsPorUCouKzEIQiGPEw6g7HmemhhSQhK/mZwnvzDPP7P7mb/6me8UrXtGISx6WKbm8oI1s6IOghJmlIUbyvPf2ghe8oC1nXnbZZU1GZmh+Dkqe4/lgNmJDXM9+9rPbjLX/UWTEn5lboVBYXFxvaqCNfvtcKPSAEDjkEwPPf+c739m99KUv7a6++uoWNg6QAoKSj1kUwrBL0YwIwe27777dFlts0UhD3pk1ZsaFWHzP8XWve13beIJgfArL9ciWTjjwZ5JVH7NdI4e8DTbYoDv99NPbj0YRLaIXLo8QbqFQWFwUqRUWFSE2sxxG3OyIIX/gAx/YnX322SMbciRglmZpECn0iUgeZm7Os7x3i1vcott+++2nX3r+wAc+0F100UWN4KKjtPS0mSNLlkjM8iTym88vb2a7HuKyi/JRj3pUI9Yb3ehGbSaIgB1bmpVvoVBYXBSpFRYVyCBLgQw+kmDgP/jBD3aHHnpo9/Of/7zFQygwX5IjA+mIj5iSXhhSS74ITJ4cchE/YUnb19E15EseZ4ZHpjAzTr60c2FmOfjk2tDiKyj3uc99WhzLnkg58YTluFAoLB6K1ApLht1337377Gc/20gFEQECcc7ArzYjj5gQJxJTHjMyZIk4vRrwsIc97NqYhUJhqVAbRQpLBstxlgNvcpObtGVEBIDILPetxlkLnRGa52U2nWTGZ6n1Dne4w7WxCoXCUqJIrbBk8C1IS5Cef5nZcFmaQw6rEYjM37Hp7908ZPakJz2p22yzzVYlURcKqx1FaoUlg80RZjF2KCI0Lz4jAst1qxH95UflsAPTKwLKKNz1QqGwtChSKywZvOgMliE9XwPP1LJ5Y7UBaWWGaVbmlYKdd965Lauawa3GMhUKqx1FaoUlg12EeX/sqKOO6h7+8Ie33YdmbPzVBqSlTHY1+nIKokbcZmlQy4+FwtKjSK2wZDCDyZKd98gQmw8eIzTXVhuUhe5bbrlld9hhh3X3vOc9W7iyeAVhNRJ1obDaUaRWWDJYqrMsx+Bbctxwww3br2Qs25nVhCRcc+y5W5635RlVrpOVmdC45EG2vMhJPmTLJ7Ouvh7J16zTbk4fQvabHTM3epFDRqFQWHoUqRWWDIx9XoIOKfl55sEHH9yWIvvPp0IoiCLfSRSeJT9+yM3xuIjskKa85eNYmGshOC9lI0HPz44++uhuxx13nJ6dSZOXxAuFwtKjXr4uLCnM1BAC2A2JNLy07IPCb37zm9t3IhECIrGjUBzx+UgFiSEOcgKEM+rMiMw+GSWP6OBc3iFk595LO+SQQ7q9996723TTTafD6YnckrZma4XC0qNIrbBkYOQRADD6mR2FlH75y192b3/727vjjz++bR5BdvlUFScOF/IQFjJBPKOCLtGHfnxOXsLlhWC9MI6ETzvttG677bab/makMLNJ14HOdI/cQqGwdChSKywZkAQw+AjJjEdYZjqIxJc5zjvvvO7Vr351+wCx2ROysKuQn9lUZlcI0XnIchTIF/n0lz8DhJbZ4VOf+tTuCU94Qrf11ls3XYTTQ3w6ZAmS7zzyCoXC0qFIrbBkMJvK8zHEhgD6MxnXzXzE8RX+d7/73d1b3vKWRnSZiSFCaUMcyIYLYS4U8jfT8pUTMrg+qdmuL8wfsW95y1t2t7rVrRoh05FeyBaxSiOeWWMIr0itUFh6FKkVlgwIy9IcMgoy28rsDYkgGMiSn92R/oGG2DIjC/lktjTq8mOIjJOfmWBICzw7e+Yzn9mWGl0XD+H60aj/pIkrXBmyQYRPTwRcxFYoLC2K1ApLBoQQw5/lQwTHhQzMwBBKiAZZ8BHda17zmjZzQ45/8Rd/0YhFWrMt6UYB2WRIj4DM2u50pzt1T3va07q99tqr/fssOnCZnXnmZ1YmDb35yhCiFddxoVBYWhSpFVYFkETI5cwzz+yOOeaY7pJLLmnE4YPISM/1ICSUY2SFuBAQEhQXsSJHfw0w09thhx3aO2d3uctdWjqyEV7kFAqFlY8itcKqAGIxSzKLQ1CW/bgf/OAH3Wc+85nujDPOmH7WhozMAhEd59xPO82sIsvSoO34Xp5+0IMe1G2yySaN7DJbFLdPioVCYXWgSK2wamB2laVKMyvPsgCBCXOdj+z8DubKK6/srrrqqhaGtPwOxnIiGZYwxUduyCwyAImJIw8E6nqhUFgdKFIrrAognCwdAuLKbKq/pAgIKcuGwvK8jAzkZdkR8kxPuFmeOGSKL12ejRUKhdWDIrXCqgByQUI5Rjz8LBkiIWSFpEJuroeUEt4nspBhzjnxkRkkbmQUCoWVj/r2Y2FVAMEgHcTUd4B48iwNAfWJSFiu5TwOeVleBHHkEYfw+IVCYXWhZmqFVQEEFjLK7CrE5rgPcQLElNlXPz0fkSU8chI/s7gsVRYKhdWBIrXCqkWILiQF/aXCkJ7rwsXhQoKu9Wd0joW5HnkzCbNQKKxsFKkVCoVCYc2gbkMLhUKhsGZQpFYoFAqFNYMitUKhUCisGRSpFQqFQmHNoEitUCgUCmsGRWqFQqFQWDMoUisUCoXCmkGRWqFQKBTWDIrUCoVCobBmUKRWKBQKhTWDIrVCoVAorBkUqRUKhUJhzaBIrVAoFAprBkVqhUKhUFgzKFIrFAqFwppBkVqhUCgU1gyK1AqFQqGwZlCkVigUCoU1gyK1QqFQKKwZFKkVCoVCYc2gSK1QKBQKawZFaoXCCsS6deum3fWud71p5/x///d/2/H//M//dP/+7//e/fd//3c7h5wXCusrrjc1QNZde1woFFYIEBf8wR/83/vOEFnIy/l//dd/dX/yJ3/SjpHdf/7nf3Z/9Ed/1P3xH/9xi1MorI8oUisUVgEQGPL6wz/8w0Z0ZmPCkJjZ2V/+5V9OE2ChsD6jRkGhsAJhaRFx8c3CzL7MyhCXc+SWpcmEIznxC4X1GUVqhcIKBJLKzAt5xUdambVxZmpIrU+AhcL6jFp+LBRWIEJOZmKOERhkpobEEBqCy6zNbE68/rO3QmF9Q5FaobACkdmYzR+/+c1vul/+8pfdP/3TPzVSQ2L/8R//0f3Lv/xLe5Z23/vet4UjMmlcL1IrrK9YUaTmbjN3opzllNx9crkDjUs8bhDElR7EdUyuvCK3UJgE9K3sStSf+Zll6Xv6ozj/8A//0F100UXdt771re7nP/9592//9m/turT/+I//2IgNiQlDWmQhtt122607+uijp8cN8MURV7iNJH/2Z382vbFk2HiZ6zo9M5YyOwTnIK9CYbmxImdqGTgG///5P/+nDeyLL764+973vtcGE5cBZGBxSEq62eA6AyDNVltt1W2wwQbTeRjkc6UrFMaB/qvv6XfpY/quvugcUZ188smNyBDPT3/60+6KK65oMzJ9PmQxFzxLe8pTntK9/vWvb+fySRr5Ij7jh7y/+qu/6q655pruvPPOa9cGYa7xQDZi/fM///Purne9a3eb29ymyY+8GkeFlYAVR2oGooEPGSwG5dve9rbmDNyQmkGUOIMGqnhIT7ojjzyy22OPPdpdKwgvFCaBEExmaOnbF154YffmN7+5+8lPftJdcskl3e9+97vWn/VJRCiO/jwqqfGRJPzpn/5p98///M9tmfJnP/tZ99CHPrSdz4VBxEQn+m244Ybds571rG6XXXbprn/960/rKm0RW2G5seKWHw38EE0Gi0H/2te+tnvNa17TwmcbOMMGo+UXOP7447vHPe5xLR9pyA+JFgqLCf3LsiLyQS5XXXVVt//++7fws846a7p/py+Kx5kNmakNw1ykRlbIkfvXf/3XNqbogpDMFOcCneaCa9wmm2zSvfKVr+z22muv6fDkW2OpsNxYUYvgGRhgoGSwG5AGMJ9z12vwGMScONLO5SLP3So5eQifwV8oTAK//e1vW3/T90444YQ2s0FmZ5555vSsjNOHwXO03//+92OTg3GTZXX5IFQkSaZlyJnjY74OlMcx2Rk/zjMmC4XlxooitQyUgDFwjsgygOIM3DiDyoAa5AxuMjwDMAClkdYgLRQmgb/+679uhLLzzjt3hx56aPerX/2q9UEEY+UghMAH/RzBJXxU5EZPPpxjY8BxbgTncjPHTd+5HmRsCuNzhcJKwIoiNQPHYOFyDiGumYOPEUBSiKlPcnM5g5qfwUhGDcbCpKB/7bjjju25mefC+rVnXcjOcy03V45DcP3ZW8bAKNC3jRd929jgGyeRP3NczNeRGbIlk47KyAkfR+dCYbGwokgNDAwDiG9w8jMY+9djBBDVoGcEII1BncGXrdFgu7TrhcJiQv/cdddd285GhGbGFmLLczbEoP8hOv0z/f0v/uIv2g3bqCDDmMhSvTzItmsxz5ZHAbnGDVnKx+WmsMZQYaVgxZEa4snzAAOIzwAYoLkbFLZQh/wyIO3Ykgd4zuZ6obBQxMhDbrA8F7Mx45BDDum+/OUvtxso8RBX+i4gnZCCcOndrIE0rumjxkP6sOOQHRIEcqTnS69/p4/zhZkNRk/xIm8UlzLThYNcKxRWAlYcqRUKqwUx5iGokNQFF1zQnX/++Y3gxkGIzQzrBje4QSMoLnkiFYTFd+OXGVTIsVBYH1GkViiMCLMWBJJZv3OzNK+NfOc732kkMyqyKsF5/mYJESxNZqkSuYlHB/HATC4zqEJhfUSRWqEwBpCJZUdEY8nvjDPOaM/R+suJowJpIUwEhsxCcJkRgqVKJOaa/FwLwRUK6yOK1AqFMYBQkI6lRhtBPEfz7UYbQ0I8oyCEZpkRkBUgLOGuyzsvapuxceLxC4X1FUVqhcKIQCxmR4jFTO3b3/52+z4pgjNTG5fUPCdDYCGru9/97u0DxnvvvXf35Cc/ufm+ZSovQK6Z2RUK6yuq9xcKIwLZ2NWIRDjfdERqkNnTqDAjk95Hg+2kPOKII7qXvexl3Yte9KL2WazXve513VFHHdU++YZQ8xyt/3ytUFgfUaRWKIyILAXamWjp0bKjd9AycxqELC+S4TizK8cIittpp50acfm1zN/+7d+2997ucIc7dDe60Y3a+2Y3vvGNuxve8IbXSZelyUJhfUWRWqEwIhCRWRJi+vWvf91+HWN2NV9SSdyQmJ2LIbfHPvaxbXb2iEc8op3LQxxLkp6zJW9+0pEVv1BYX1GkViiMiJCI511+I/ODH/yghc1n+U+czNL4ZJhlIa473/nO3X777ddts8027Xqez3GJUygUZkeRWqGwCPCx4iuvvPLas/9LeIOQGVbIjfMcDmHts88+7fcuiM65l6/JywYUxFYoFGZHkVqhMAaQDeLx0rX//iVs2DJgZmfiIDfOuV/DmKnd4ha3uM5yJFh6lFd+AFooFP7/KFIrFEZEiAnx5MXn7D4ctvMxcaQ1QzMDs/nDkuOtbnWrdo1zjUs+3n9DboVCYXYUqRUKYwA5BWZWZlKZXfWvzQbxpEFe4jq/xz3u0ZYeQ3quX3+K7JCeDSJIMy9kFwqF/z+K1AqFEZGlw5CXGZQdiXlpej6YJq7rX78tK5qJOSaDfGRGunPxyOUXCoXZUaQ2JhgejkHyXCVhjJW7av6ojrEky5054yYMyB0HlrK4mTOJlIV8+fXLJW/LYEkj/Uy9AnFyXRrXyernmc9KgeviRi/fN+Tgl7/8ZYubuqDP73//+3YM4gMZczlQJnHzPMpXQFwbVpcpQ/ROerJcS3qyyFRXnPDoOBeSP5KSh2Ok5tw1MzczP8fy55IfP+nzqSz5JXw1In1JObwi4fi3v/1tO3c8qtOXUk/6Dqgv7TcO+nWtzdNX2o3IVFulrwSJm7aE9CMufRmUOS6QX+rIcV+G8PTT5NtPC65Fh9SpuD6W7TjX53Igr5l9LON4paBIbUxoZJ0pxigNroM4ZpRGcQxaZJAvHwPc8bhwt58lMoNJxzbg5SUfTqd3bobgWQ9dzEKULeUiR7gBjXxsa+fr5AaZPPp5SSM/JKW+/MtOvvLPVzHENVPJNS8a00UceUtnM0WQwZx6m83RF+jCkcdP2CDkPTQvVasX+dNDOsfkg7bPTI18abi5oJzi0i1GKPrJR9qZ5eg7eaSO7Y6UTj04T32vJiizMii3Yy+W23ijjpRztjqYr9OftJ9+rF+l/3LpG6OAvvoz0tQXgL7cNddc0/yQnfYCbS1PfSj9SN9JH//Nb37TXX311W03rfEuvXZNOvHFpXv6l/TOXRNfP0z/kyYyQFr65Jze+g9dkFvqZTYH8uC0SfppfzyuBFxvqjBzj7wlhgpXuQZlGkWYRnn1q1/dPhM0DhjIt73tbd3DH/7w6+Qjj1Ehvbs/A0YnZrAhnY8/CsgFHUcHcp4lKcbeV9tHNV46tDqls05v0KsPkBedxdH5dXr5IivXDDQ6KSc9GAtf0vjZz37WBoW0N7/5zbtb3/rWzTAxIllO42+00UYtjvTKoDzkyl8ZOXlLJxzUq/C0U+rGeeogYbOBvuImjvzlx1DQaRDoYkBLIz1ZSNtAdp4+9I53vKM74IADWlxh6nWQTvRJPTuOfm984xubnITNBXG1D33Ikaf60l7OA3rQSXm1lZ2V2nJU0Ol2t7tdG4977bXXdP2n/wzSeRD0x9SdvkGOPkDuL37xi7Z5ZhyQg3yir7ySX7++FgJtQE+yHRsPdBaWa4kXnw4Ii83QXtpP2fPyPmeMGZvq+Y53vGN3y1vesumqLRGYL9ioD+NCuHzINZ5CoPJSNnGc01F6YfLlC48jhy78uUAGl7jqzRjS5/RjY3wloEjt2jxGhcbV0XRSnco5uRpZxxwVOh4ZZDOiOg4DjDh0Huej6i1dOqXBQE+DgXz1IW9xDC4vFMvf71QuvfTS7swzz2x30ImjrOrSeepSpyc7bejc4Lrf/e7XPfShD23b1Q3MzTffvH3mSXrp+AaeY5COfuogA4be4ogrD9ccDxqMQQhE3Og2zKCJn3ZQR+JHP22B3OT/rne9qzvooINaPHEYZroOQvpf4Nx3Hffff/+WR/KZDdKpB0ZFfuonZfrDKTnXm3IgjvLScSWTmnTqjDx9RZ0rF19fHxXqg26pB0gfktc4sjMGyNMOubHNzVL6qRUM7zAiPePpU5/6VPeNb3yjjSvplbPfJ6Ova5wwuuprbhjvdre7dbvssksjNm2x4YYbThPcj3/84/a9UEgZofWLa8sfvV0X7jj9J/HngjTK25eVOiRnJaBI7do8RoWOmg6ssQ3Cr33ta+3uUmMLHwUpN1gegB122KG7yU1u0o5zBzYKlFn5Daa+4VUfSMTX5s28fKD3Qx/6ULuzZKwNVnF0ZOmTpq9HwtN+4Dp9XUvetq4/6lGPajM33zPcbLPNGmmoLzcH8gJ1KFz+dEWsXGSTxSnLIPT7lPgMxAMe8IBpIp8L8vz0pz89PTNVDvEzqOlG3je/+c3uve99b4uvfiD5zQZ1QmdpHdOPzMc//vGN/IUPArnSMWB2TKZ+1B8DFf2cOyZvJZMaPcnS59WL+lbvQHbyGQXqyrhEOv4UvuWWW7YxpS25UZG2Vr8hYXoaQ/rX5z73uXZjeNZZZ7VjNgHUEZ2UK/2Dn2MgJ+VOfH7fqbOdd96523PPPdvKiL84ILqQVupMPOmd850b4wgw7SbccfrNbIhMZY08f4nYeOONp8u+IjBVkHUrxcFUhTffuWP+VCdZd8QRR6ybqtSx3I1vfON1H/7wh5vMqQ55nTxGdUA/x1N37uumOu+6qTupdVOGZd2UoZlVj/m4qQ6ybqqDrZvqLOum7s7WTRmQdVOzpZbX1B3eWHorOzc1u2znUwZk3U9/+tN1p59++rqXvOQl66YIp+k/ZfBb/soxZRCaPtGpfywuN2Ug2jnX1z/xXRfPsTI6vulNb7pu3333XXfyySevu+yyy9ZNGd51U4Ny3RSprZsikXVTRq6d0/M3v/nNusMPP7zJk55ejqeI7zp1N9P19ZwizBZ/6623XnfNNddM94O5HB3uc5/7tPJPDZd1U8awlYNccpL/lLFsPp3E65dzNqd+xOWkU9fiky8v12dLx7km3ynDue7AAw9s7Zg6U54+cq6/qL+pWfKsMufr5D11I7LulFNOmR6r4HicPhndp24SWp1P3SC0ulAvs+kxX0dfctTV1Ixm3Zve9KZ1UzdprS6S52z6zMfRc4q0Wj/ST43LH/3oR+ve/va3rzvmmGNaPck3fV+78ukkLP03ThiX9tWPuMQXpl+lz6Qfuiavgw46qOWtL6RNpghoup0cKzM9999//+kxTR6f7Jn1N9PJk5NGnzduySN7tjpaDrdCqHX1wl3RVKdrd5h+O/KWt7yl++EPf9jueqb60XXurBbipOWmOl63++67tzvju9zlLu0ua6pDtTijgs70I8uD6Smi74499tjuBS94QfeKV7yi+853vjM9i1C2qQ7ffE4aLvlPGYU2W3H35tg1fsoubT8uF1nCLdv+/d//fffc5z63e81rXtPuaMlwXTnpmrrwvMIdNkg7NQhbXHGcz+UgZVEuYdrLEqi0gzBlPNoMJ+UwW4PIJpcTTj6k7ug8CNGNDpzypg5TP4Ncyq2PyIuO88l3JWLKULayqLsPfOAD7Xc7yqcecm0cZ0b+zGc+s3vKU57S+pGZlHD1NSq0E904mDLwbfw861nP6g477LA2M9MvtId2zaw+fTBtnfYSFj96adPEF5cM6fqzJXE9i5sitFZvdDjnnHOmV3qk648740b69J/0G875IEdWdDZ2PTeXnlspKFIbAo0XBzqCYw0LGtr51B1Qd+SRR3af/exnW8fLstYwl4fhjvsdw0Bh5Kyde1Zz29vedjp+0s4F8ugXuXF0padjnRsJ+z/Xi1/84u7Nb35zW+8H15WBA2U2QMgkA/oyE5bjnMtfWgPKMeRa8sjgtNnkne98ZxuQU3fT0zcG6oSuKQ8DnkFFlnqKLnO55GdJy3MMdUCu9AzGIKQ8/faGyMu56+Qqq2vRcS64pm5m1ovzlFWcuZz46kU5EuY8clYqUq7Z6gkBfOYzn+le9apXtXaC9Nf5uNSJ436/UEfIjBMnbS6cG4bI0VfpTwZnmRxBfOQjH+le+tKXtr8qnHDCCW2JE+ie9o2M/nHkpM3T7qkj1xI/6IfFgbT044wh43pqttjKKk7GYOqbc05ebJrjXJvNBY7FjS7Qv77cKFIbAg2n8TW8DgExxs51GgPDHdK5557brouf64OgI5BrNmCApPOkw/ifljs+zzDIYkT5w2ZqrunEdEhnk45edDXgX/7yl3eHHnpoew501VVXtesIUxppo3vf8PY7rrD+OcwMczzznNwYtEA6xkhdXnTRRW0HoBuECy64oOnKOIA4nlcoA8OhHVKuQRAn9RUfOcIwo5YyqHu+9OoocuStjiBlmq1u5oK4kaE8MT6D0ruWOky99Q31SoVyqUd+ypr65L70pS+12bobHOXRbsqYup4Lris3gnEsjbRuLM3I/CX8CU94QjsWT52F/IaBrvTMDYxzujp34+VnrVY5jjvuuPbs2cxFW1oFCPr5pP+njYfpkPylm4nUD0RW4n73u9/tjj/++HbD+qMf/ajpZGalXo2n1I96kIdxln48F8gXN865umCPVhKK1OaBdJ40os6dTqCjPPrRj+5OPfXU1riuIyn+MBhkZkCRmzAdbbvttmuG3QaKdFTh0O/Ms4F+dMnAlR6ks+vqSU96UnfiiSe2h8XKoHO7Jl6M/VKDngaKQecdn9NPP7179rOf3TbdKEvKYMehePSWht4x6IWVC22lzdIvjR99noFFNPqlTVxf//rX25hwTdxhfR3S/uKSrf+76ZHfM57xjHbD6cZQv0mcyBR3ELKsrP/xcyNl84cft7oBs8KhHG5MXbdcLc5ygZ7qz6MFKzB+NOuGQZ0rB1+diyMuR/dhdbFaUKQ2BBpeB9URDB6EpaNzYPu1XVqJZ7ajg4f4BsHdng7lOZHBYNCRs/XWW3dveMMbmp87UPkiHPHIHtQBDViOvuKRy5122mndS17ykraj0Que9BSP8UBs9JH/cqBvuBgjen//+99vzyfOP//8VhZl8DqAeqArX/0NqovCyoG2ClFpz/RPW94t23ldRH/X17U1uK4/DAJDTaa+a8x5TcT4fOQjH9kdfPDBbYeovMTL2ID59Bu66GvGqPj0M46scnziE59oBJwZoLIZU8rp5mu5oC6QFJ9+H/vYx7rXvva13dlnnz1dB3kenXMrIFk2Xe0oUhsCHTXk5A7MANPBkYC/Epuh6ew6hwGgc4QAhQ2CODqU2Z5BcdOb3rS9bGkWxTdIGW6OLO+HiZeOOAjipNMaZO95z3saobljUybkmDwNQHnp1MOIeFKgi/pQv46Vz4C0FOXG4ctf/nIrj3AGT5no7HhYPReWH8aI9tXvQDtqQ0t2nv2YmWt717WrscRPvEFIHGmQij5hU5Vnc1lSl3/GsuO4YaCTsQ7Gthna4Ycf3m64gGw6K5vngOmf85E9KRgnxjS96eP8kksu6d797ne3pUj2BlHnBkOdDLtxWE0oUhsCnVOnNVjckRk47nK8G+KF5HQGHQjpZADq2NwgkCu+d8/EJd9mCe9u6WyuyZfR1vGs0+ukjP6gQeOaeHSTzrq6nY3uiIUhC3ez8vAeDZKWt4EQo7PUoIs6cIep3IyFchuANrRY6vF+VQxXjB5jUlgd0L6MqTZzrM3dFHquq521aeK5kdOHgfEdhMQDMr0D+f73v396vCZ9xiY4jg6DYCwZb25obWDytRdf/zDe9T/jCZmlH5JJdj+v5YJxrm7oYmwjZF++Qc6xa2wZp660wVpAkdoQ6BQGBnKwpKEj22ThQay7TJ0YGFrQWXQSvrvEQUhaciyreYHXi8jWwg1EA4WR54c8M9j7A3km0pHJ8FzOg2x6cx5km5Hp5EjD4NSZ5Uln5VwO0FU904VeGWjqSPk9c7Hdf4MNNmjxDciUc1BdFFYGkAcycGOG2Bjc973vfd0rX/nK1vba0Rjia+8YWIQynxstfUe/sWTv2Zwlx4xDMH5CYOkv8uIGgVxb8226MPOzdZ7uuSHVR41ztkFe/S/kLBfooLx0p6Ny0xcxu2k+44wzmh1Rz+oMKWuD5dR5MVGkNgQaWifVKXQE74shCURkwCEdHTrG14DNgMy25EFAImT4ggd57qJudrObtXzTGZFROpwBNZ8OSBfr6EcffXSbiRnIDArdzCh1ZsgAJ1MZEr7UyAzSQFRueqhX5Wfs6Ocu+Qtf+ELT2fUsLbk2SayVwb6c0LctdWtj48hzngMPPLAZWmOGIVbP2jt9X7vyhxEP8pLOuGG0feFCWn1KnwZ9hg4gLj1gWNtK74bPODKmODeCyqAPujk0puTn3MoHPfTL5YLxTW86KKt6oDdbI8wypFcnhKsXK0X9VabVjiK1a2FpLtDwMfAGXAaW3YI6gzCDQafIHRpkQKZDOZZOh+JzjLZwA4yPcGwKcWxw+pSX9PJ0HmfQSG8wiZtBY8BBP0/HjMaJJ57Y5NOTbgyIa+LEIVEQB+Qb6PAZyCB/aQwOYfRy7jjECfy+E0daQESMAghXD66RJW8ElvL3dVXnZNlt5hxy06CdJgV50TcG0Z25MLood9rFdfXi3LWED4Lr0oiv/PqGdMlrLsg/eYrfR+p7OaC9tEV00OcSbpxwYKPSE5/4xBbO6XvIIPHTnsLJEUfd6DvpLyl76szqg5mfz4BlHKrbyBSHXqCuM44SZsdtxk/Gt3OfZPMZMhCXbvpo+h7dQD4ptxtefsa6vIDe+gyfg+Sf+GlP4eKmL7iec2mdK59jvvOkdcwZQ3yyHKtP+nts4tla4uQ3P7EBqx1FalNwt+XlZr4OkI6jE8XYfvWrX21bzHUIHSDLjYNABlmcDuvcgOHLx5KjD+Hut99+TaZBRC4/HXQu6Mg6qLssaRgMaRzT0d2YHY6RSb48YzAGIQNF+cXP4CDDANX5uQy8DHRxQHmFZxCKJ63rSFRcRMEQkSc/YSsR9GXAGFT6uzHQluon5XKsjtQDl3PXBiHtofyMojqIIedcn8tJA/qsvKST33zynRTorBxmQcqVpeRc0xcsIfu+pXZPH4s/COpGHw8hkZWyWumwEcqztGymcrPHD6HMBTKNScvydAixgaVG3+EURlaW6dzADRuf0CdUjq6c9stNDLl85+JrR/WhfcWli7TO1aUwaZzTy3nanj+svOsDitSmYFDo2AytjqPT8XUand7SIJKwA0/H4WLkBiEdkDMo+Tqojnf729++rdP7YojBqUOnc5MrbBBcT6eWhlx60dUD4c9//vNNd/G46DFM51ynj3owwOhrIBv0yhGD2pcV+dLQKfk6Fx45fLMd1xAEA6jeh+m1XKCbciM35Y4x4ZQt5VUu/UhbCBNvUJlc12bqIefScuSRMQhJn/qlo+P03+VAdFJnCABRqIMsz3nn0KeqhGV8OVZe54MgvbrR/7SFc2PQB3y9AH3/+9+/5akNjAM3e8Y02YNAV32dTLrQSV2abT3kIQ9pMsXpyxEm3jAYz9IpP53STvqK8spXnsrEucZl7OkbqRd1K706EAecJ8x14cPKuz6gvtJ/rQHQURldnVVnMmB0RA+JbQyxm0oHM2hCFtKLMwwGoHKIz6eHsvjKuTzJ0CFdz0xO+DDjpAwGgLR040466aT2WS1IuHg6f+qXmwvRg1x6QwaWaylLnkkYoPTkG/wIS16pG3WV2VnaU3gMhfoWX30OK++oIJc+8lMGebmrN/umzyAo5/Of//zp5ZoguqYfuKu3VBUoU+p+LpDHpc7Vy53udKf2xfVB6cRV39rInwa8XKx+nTNw+o44QD+6kOcmYpJf6U/9KDdD7jlZdteqa7twbYYSj16cuPQD53NBHSkbaBP90KYhr6l4tSZ1jUhyrI4g8meD8UZ22kK7iq/N/QbIc2iyzADlyWVsyGeQzuSk/jlynMsnbZ4wfsro2aNyGBtpa/VpiVQ7iyucDvRNeVP/k0bqSJ4f//jHuwc+8IEt7/SF5UaR2rWdIj4j7C5PhzLrsePJh0p1NmEGgU6oAzIe4ks7F8RzXScAS25eKHbHKkznBTJ1Xr585Jc0s4H+Orh4ykGvyy67rL1wesUVV7R648hLZ5NG2CB9QZx+B0090Y8MIJeB9E80OrgJsJxqBpoyqxvr9ZZBLQe5cWC4zXidu0EIOZI7TK9RQa4yyINudJ8vqWmLoF+XIRXy9Bvb0p/znOdMyxOWfjUbxNO+fPFS5/q5DRQM1lwgUz2Kn/KkXUJsMeiuxQBNmtRSz25i3LQ41+ba2pKjz57pJww0RPfUQcowE66Tp6+kD3rtxWsqj3vc46YNfcaCfMU11tRH6mIu0CEEAlY69t577zamyDJG1Tc9+Ma9OtW/ByHl67cTRx9yldkY8E6qGac4fgi67bbbtnA6pW68r+mzXHn259y7Z3QgX/nplraeJOiefIrUhkDFqKh0TE7YpElNHjqKAejOzLGNI77nZoaWzp2OqZPp2AmfC+IzTvLR4cxifKLKVw7kY7AwNAasTmJw6vCOxTdI5wIddGgy6e3Zylvf+ta24zH1mDLSwbE0rg3SGeggXe5IlYNufAbN/6gMPks+O+644/QgjfGgP8gTyAJlcqNwyimntJ8mXn755d0Xv/jFdi15TAJ0owN90oYLmalpJ3WhzdNXyEk9kofUkJEw59pOfTueC3RK3fDJtpT21Kc+tdVh6nE2kE0Puskzecm3n06Yc2WfNKnRIfWivsS1jGfbvnGnL6Vc+oL46TvKMgiRa9bn5skXPeQfIjMWHSde+qJ8hM0FOnCBtPqG8a/tkzZtpVzClMGx+HNBf1EubSCN+pAXH5H5/9mmm27a3fve927HiEwe6lKc+BwkL2XySpGPpxtDVgjc0JoV6w+TGkcBPdKnViKprQwtlhkxBjqVBnM3hCAMRISRRuSLq/F01nS2QRBXh7akhNAYPjNBsgxE10I6kc/PoJwL4ujA4nNeUGYQ07Fcd5zOF7nDkDJJE50MXtuUfRjWbMQrDWaw97nPfZr+MSYgz/4gjAO62G5tw436JcMvZ5DjfOpyOcAwqbtAm4Ey9evUsfL16y/XZoN4nHggPZfzQfURufpI8tWH9Af1PyjfSSI6M7rKQR9b4e1KTHlzPf2E/s6HIeW0pOlFfDM0MiJHXvoh0hBP/Nx8DEPqTBq65nWd/jVy6Skvx+K6NgjIJfrxybSyYRy5Qbfr+YUvfGG7MdTP1Jk4qSdtmjqig2ucMvk5J2K3RKqOPXLYfvvtW9z1HesNqaWjQBo+ywfpOAaFuzM7qTgdUUfjcscFzvt3d+4e03lBp9P5DALxkMKDHvSgtssROQgzCMVHpJBjOszHKPXzlxdCY+TI6V/LYOW7FtnS5Ji+0T9xyIi8PfbYo30aiPP7DrM0sLyj7JEdmTknN7ID14SBF2U9E/GrjKc//eltB2quQWRlcC8H5A+MTkCfGKmUu99HhMWwzwVy+9elSzulzlL+mQ7kwc0Mjz8pyJPeVgZAP4nuKQ9fHWlX/0YzpoBuxoK4/IRFZ7LBufRgTCTcxhPLmD4gnjjqnkt9zexvwxAZ0riB9Q1Ky6duXoTn5pXslNFxxlj6AURn16WJA9fMyDyf94FhY8pqTfQ21jjHfZAtXLmih7Dkafy5KfQ3D+TmuSXbApEnLrvS12ctY70itXSg3BnqKP3BZXnGe1Be4NSppdEx+h05x+A4d4fiOo6RJ9uxvHbbbbc2Q8s/0dK50vkci98/5g+CjkpH8n3P0XMAoBOdQV4xlH1EhwxIx5yBJ28ycs2zBV8l8euOvCALGSQgnrTOI28mcg3iA10tvbj7RnDuNuVNHpclmeVCdAnSZuAap2x9HRM2DNpBXaf/QNLObLOZSN7RLeniJgFyk6++zeDrg9GVn76F0HzTUf8UH0IEyhxf/wzS5voH+ZA0bqCe9rSntdWOyJMPGXzphGccOe6321xQBhDfuPcbJjJTDqDDzPZwLl7GqvTCnCNfx5z+beOH2Zn+banO9dRBdE5eoPz9MdKH+LlGtrTCjMcddtihbRqykmJZE4wf8fmpm7WO9YLUNHo6PmegZRkpncK5bfA6tuc+4mVJYBB0+CxRcTqaDiYPaR/2sIe1pYZ85SB6GEwzB8pCII90cMukGWQwrPPq4CE7aejqXFmcK8OGG27Ynv0ZiD7dReZcA20xYKDvs88+zRDuu+++TR91FZ0Kyw/9RZ+LUeb0iX5f5uszbg7NfNLfh4FcabW7Z8yW7pzrq2Y0lqk9a3RjqE/oj2TTIXmPguTrhtbfNmxqic7D+l3qAMhwHFtCb+VAzsa/ZXsvcaculHMx0C+7OiHfDahx5Plpxo/ZJ9BvrWO9IDWNylBbBjHQEAKnA+Shqo0Lpu926gln6Ll0wrmg08TYIzfydVid+cEPfnCb5SAIcnJXCBmUo8LSqYFjEJql6dxxwwaM2ak6YSwMPKCPOuEzWpZK7dC0KYDu0pA9js6DoK7J96xAndmm7Vy+8pxUvoX5QxvoHwykPuEYGMpcs/yVDxQbG2a28zHgZIhHhjaX1rNn/dws3p8azHj0E+Mt/Vy6cQy1/Ohuw0Nsg7zJD2HNheic/NkYadkZ4c59PcX7bnmOzt6krsYFeVxAD3KVwQ+GzZbdkKovuvCHlWktYL0gNY2ps2lQja6BdSwdAhGdc845bXnAFtl0VPGQ0Hw6QR4Iu0OTVho7qGyE8N6RTmZnUuT2O+KoUCZlsD4vXzs7ySd7vh2XgZCWLPXAmAizAcQyD3JTLrqLsxgDcS6QzQAyYsriTtMuVWGTzLcwf+hbxoQ+wTemtI2+AZ5Df/CDH2wbrfRBuxQzJoyBQSBLf+a70ZIHYrS93diUT/Iiz/WF9PW5QD8yfOnEDsLc8PFTrrkQcsq4Nnb01zxzft7zntfGEjJ2E0BfMvs3t+OAvLiATpz69jUUz/C8/kA3dTZufa0GrBeklkHgHRmdVaey3MAhJOvQ3qFJh7B+rxMYYMM6oM7DECNKaaS3zOAlaLMcYV7cRBrydxdndtXviKNAfsple7yB4u455aT3IJjh0ZPe0mRgCLNc6pf6IX7yPEszWGMAJgF50UFZ1JMNNTaluCmYZL6FhUOf0Y/1fe3i3I8z7eazFZ6BzyqCvuglaeNuEPQ36Pdhsw0k6ZqVD3lmjAHyk/84JKEMdg57lsYWyF9e+mJ0mgvyTr/NuXGC1C2XWulAzMqjX4vLR3DymRTkLx/OyseLXvSiVjZ1Sr+1jvWC1HKHZ8ahg+XlT8tv7gS955E4Op7BaMBYNkyHnQuuJ470d7vb3bpPfvKT7e5MuA5s5kG+TiWOGZA8xjHUBrffyCsPOYwG3fuDbC4gc3G88Mn4AN0Q2ktf+tKmOyITR9wMQMQsv0lAHqkf5VFvjNquu+7aSK6wMqBP6HvGh5sipODGiuE0jrSf69pQXAQxn5s4/Rb0O8uAluy8I+pcv3OdYWaU9RWG282Oa8PIZxD0Zzs06Z7+jTzlR/4wINSQuzLSXd2oD2PLNfoaR/q3MqijccfRbPUpjB7sjS8hKYObQysenrvTw/W1jvWC1HSmLGshMj5icRfjGZrG1jk5HQMB6RDu3oYNGGkyAJCgnYg6jo4L8nY9nUmHF9ca+zgd22BxF5tlTfkxICGGQTATpZMNMeqFoUAilou8FOoYlF3cDNj4kwCdk6+yKQd4nnLPe95zYmRaWBjSLtqI0fZ5ML8DygzNdX3GuNCm+gySGDaOGHv914qDmyvfWtWvpdNH3Ygat8mfsdZfslw4KuhpJUUe9ERsoL8p4yCIYxxJR1djg7wf//jHrTzAF085jH2+Mi72OMr4pIc6ccMqjH6c1SM3Cm441jrWG0thgGlkhKJT+ZCwt/I1uI7ABx3CwDGIdBKdIAY3ndjgDZyT66eEljF06gxqaXRi1w0W544Zg8Uw0l68lD9HtrvEnA+CAZy7XzDw7JTyBRX6BblucKsDbpjsUZF8lUPdaRN1pD3c9do96q4d1CmdUlZ6FZYG6tpNkPZCaJ7ZWGo3ZrSV8MzutaO+JSzjKKsWwEdk2lw7isvw22xijLrx06eNFzejSaPtyczxsLFkHJMD9OCk53x6yiYx+ZNjbNCH/iHQuUAuHTI2rHDY0EInX/oBtoDcLGm6ZuVhnD5LDkTnwDF9jO2UUTmE+Xzd3/zN37QxZPxwdBDXcWzTWsB6QWoxfhpdIz/mMY9p3x/UqFmKmws6IZfjkBR5OoQwg+/0009vsyaDElyX16SQu9/oZoDJk27DOie9pGdgyOAjDoOYIVpOKIMBRi/HjJkdXJ5PutEQBvTM9WHGp7A4SNvwtY+dfWZUxgE3yFBLw7hmvDHy+i4SIcu4YXD9r9BXN8w0GGZy9e1xYNyTE/05Mo2D73znO21mpQ9l3IjHDRtHytsfd4jY1n2kHxJdDqg3ZVTfyk4/utq04kXtjHHX3OQ755yvBawXpJYGNog+8pGPdBdffHHrhO4AXRsEd58gnuN0YB3X+Wabbda9+c1v7rbYYosWh4uRHTTIx8U3vvGNNqDkQR950g2GDcZ0dh3ZAPAJLy+IAwOzXKB3X3fH9LTUZCcpQ+cOWFmVm1tLg3GlQ3voL4gof1U3hoSZZQ26iZNWu5mlhFC0n3EkrZUOz7YskzG04kgjTsbgqCDH2JAn55h87qKLLmozTojxj26DygPKQwawLXvuuWe7yRK2nOMo9of+KTt4IXvnnXduj15CZK7T3RjSFmsB64U1MOgMDOv+Z5xxRvtyvE7nzl9DptFng8Y26KR3t6cT6LTI6y53uUu7M9OZDXRLDTpU7pQmiY9+9KPtzjCDKv6gsgTiKrf09HzUox41Pdjnk34SSN50Sx2rR/Xp3AYcW6WznEVfBpUB1C6FpYG6twnh/PPPb22U5cH5GkSG1E2Vfmf8aUdt68bQazBkIhTtaoy6Pq6xTd8mO5AHZ+ZIp4Qlz6QZBPFBPDKe8YxntPT6aFZQlgN0yPihmzYDdepXRbb60921lFEcqzdrAevNLa7G09Aaj2PQDS4Nn0afDRrfUgnDqbPqMBmUXhJ+7GMf25Yd3aEhPkbYNTL7g2ix4d06A08+6aApx6DyAL3oaeBxyhBdh6WdJNxAZKApk3pOuQxIXxoRpg1AfffLXZg81Lc2UOeOgTHUn3I+CMabfqs9tbGVDt8UZWiNMXJ8V9KYQxS5iRkH8uGMS76+rq/RRR7C5JH+B86VcxDI46RRDjYg/xMke7mgHOo440Qd0kl5vLPGZbwnLiwnES8m1gtS0+l0Po3av1PkDKJByN2OxgedwXKYB8L3ute9mjydhxzXyBRX+CThS+LpkHw6Gohxg0BH5ZLu5je/eVvWU4b5pJ0U5Kv+okN/0IEB52O2dA8ycNfKHeZqgDpnJLUL31jSl7RX2mo26J8Mq/TSiO8dRBtNdt999xbHGDJuPOMVl3xh/HFAr36/ir52/1q1ydh1PSSXdIMQ26BMPshtWS/PCIfZlUlC3rFZypQ6N4aEez7NhqWc0bU/tlYz1gtS02E5jaxR3eE71wE1+iBIw2gaWBrdDiffoPP7FHeTOoxlR3J0HPHJd55OMynkzpYO8lM2bhhSZmXyDovzDIT5pJ8U0kagTM6jk7r1PIYTJ23q2loZjKsB+nT6uuN+3xuEfh/Tbl4dOeKII9qn5HINGZjpIBZx9G9LjzG64yD9RV4ceJ0HqSkDvdKvbFpxPp98yVIPnqmbqTk3/pdz1hOdcmOtHlNuzmYRS77K65xvDFm9WgtYL0itPxA1ns7KpfMOgzjS6vyeP/lsjw6M1PLg24AUxzHfufiLgZk6howz6Bz3MaxM7jCBrpYekz6dfLmgnYD+dOGClMkPStUtKP+kZ8SF/4e0i36j3p1zxpTzYf1d3+LI8BsWhKYN09aOXdcPEEPaOdvjRwV906+jr/w8YzdbS98KQWdcSTcI0hlL9KMruZkNkb9coAfQg2OP+thkk03a8+nUy0rQeTGxXpCahgspGTAaz3kG0CCIl0Grs3tA7uFyvwPkmJ88dJLFRAYl38yRb+DPROINQuLQ0/o6zOz4S40MwEBd9s/pTF//YEu5hXEh6cJkoa4ZQjeD+ot6F6adnA/q84kjvrY1S/JFHG1KprCMI0ZWuHYO0Y2D5Jk+lXx8lcTzcBAnZOZ533wgDdtgCV+dKAdH/8W6oR0HIe8gZVe3rtGfozP75ngt4P+VeA1DY3IaLksDzjXisM6X6zqCdGeffXZ7p+uKK66Y7ghkQTpJ0vQ71EoD3ZTHHSb9dex+WVYqbPkOMhvWNoWlgX7DgANfn0Fu2mLYjVEMqjF43nnntS38uUHMmHHD1pe3GG2rT8/s1xmr3KiQlp6eUWVjS2ZJw+zKciM3Duo+NydrBesFqTHY7sI0pGXDDL753OHrnJ49ics599+1r371q+04ZEC+4/7gXskEEZKma5/UVjLo59NmfDpnq7eBWVg6GA+28SMnda/P6//DDHnIi4+8TjzxxO7UU09tMyPh6ZNkIYj0zWFyh0F+/bGo/8SNA+nZBK/2eHE8/VJYbMBKBB09Z0PA2o7eIbi1gPXCGmgwDWmwGJAGlDCYz4DJACBDZzWYzdYsXQjTGVw3EB1zSGLcwThJpCx8oD/kfKVBXTIWjId6huisrgtLA3VuDHnHzLG6zw3RoHZwXft5/iSeY+PQ+2neuURmNiqIZwYoD/GMtUlBXtw40Bft4vRsHUEYP3ldYSViZjvlmD9uXawUrBekxni7q3dnohPaMgwMpc44zJAbcNKLr+EtNfz85z9vn53xRQKQR+5W03FWeifp66cOViqhgfp1s+Adpuiam4aVrPdaA2PtGZK6V+/O9XtjK0tvsyFtZpOTdnSM1Hwv1Vd+vv/977exSa7riE0c425SBEH+OEBidDVrpWNuElf6uKfjTDvFKctawHpBau76fPnA56B82d6XC4T5qj5/WCc02NwxpjO4y+TbOfWOd7yjDUzXkF8GCn+ldxJlgNWgKx0ZDs8y+QyodnC8VgbjaoCx4LUWHx5Q79rBjaFw7TEXYji5/kwB/NnCTzqRApixadcQ3CS2mvfH6ahQFnr+6Ec/ajpGFpKbWcaVgoyj1C09tWHaci1gvbEGZleIzdLAfe973zYwffNt0EAMcjcTA4oI806K5RMPvQGpuQ46T45XGuhGdx07g09YBuVKBcNpx1xuKpzTn1+YPPQPsxNLj54jvelNb2pjymYPs7Vh0GYxnAiM82zHjO2FL3xh24TVN6zGakhzHOjrs2Hc/p5+528fVhD0RbYhZLESoS7o5iad/s5jD1aqzgvFekNqGs3Sh4HlN+s2HGhEROSa9zY0btbGwXk6vjgxpuAfTNILf9rTntYGuk7CF89gd21ckMEZKHQhm84INtez7IG4+bk2F6ShKx0hzzLmu5V5OaCuLUX5MjxoB+00rKyFxUP6jT6GiHzayt+dnad/6puIiB/40gZIz5jyGX+yjEmy9D3fUfX3DGnJMuPR38c1ttL3ZdBV/xEWEqWTcOd858Ng3NEv/0+jsz6qTJl1LgdSVvqAGw5OeB6RqHu6u6lwnrZZC1gvSE0n1ekMFg3pzvLjH/94t91227XG1QG9N6NDIyUN7yshSGIYyDZru+1tb9vkMrQGqAEpz8UGI05fHTTkCzqlskE68yBkAPoRqmNy8+WBlQgDTpkvueSS1i4xmso8n/IWxod6NkbS9/R5P3C1pV3/0Z/0H/FiWLVT/iQ/COmLfmVjA5ZxmdnPuEj/4Iew+D4Vla8Bgbxi/MUdRkyRZ6bmJtdNorTGPv2XC/RKmdMe9OS0GzvFRgl3Q8HXfkmz2rFezdR0UrvnDExG8pBDDmkzNJ0wd2zpyBp+Pmv5Okr+nPukJz2pGdns8IrMUdHvmIHOF4M+c9DN906LzmQawKeddlrLx3kG9UoEwmXk3HTQM3eayqJOCpNH+kigr+yxxx5t5cPmK+faKQQmvjbSPv0+PBu0p3743ve+t32s2/NqRKevj0sQfWMdPfQbz9R999SxOBkH/TiDkLIhbSRBXzIy81kuzNTbecpIL88wbXBznmvLqe9iY70gNQNDhzM4kI9zzodUH/rQh04PRj6iyLKW45nEMROu6xz8r33ta9373//+Ri6LNZUnG9LpkpfyxMAkjM8ZVIMQEjAoTznllCZL2aUbVt7lxFlnndXKR1dlNxgzcygsDdS1/uMO35gxjtzM+cC3XZH6lJtBs2nx9C03jeIPArnIUHv6G8Nll102/bhgXGRcZAylv2ywwQbTpEZXeWdsiDssbzKNF2lsYBKfbDM29bJSkPLn2P8kbW6hOz3742ktYL0gNQSjk+p8ISxhBs1xxx3XiM2gy5KhgamDSzPsLlFH1lEMYvKOOeaYdieks5AzLtIh0ykDP/yL/JnXMmjngnJFpp2b2blF3kxZKwl2rrojVr4YIWXhCksDhjA3UPp+xtXDHvaw7va3v30bB4yjGbV4xkTSDQIZ4qb/Pf/5z2+PBBjccZH+0e8njv2x3vJjyCiGPToMG0d0jn145zvf2V7zcb5S+iM9lCXlcW4Fip4pc982rhWsF6SmwXJXqTE5gywd+sUvfnFbhhRPB9CxkZvG7j+3mgvS6RzkG4j+D+VuSJ6LgXTKPuzgpCencypHf0AOAkORTmwQ+kLKSoevqfv1PlKL/srcL0thstC31HWMf1YjhG2++eZthuUP1n0j6XkzQzqfmUuMsBmb51R+S6N93byMA3IhJCUPfYdceWUMySu6CxsGccQ3G73wwgvbbmphHj+QtRIQe0BPZf7KV77Sff3rX29lzDW2kJ1L/ax2rDekZhai0TJANKiGFmbWg4gyY4nTQTM454IOQY5Ba/Aa6F4kfdvb3tY+mDoOyA0cR1++F7/ppjwJG3Y3HCgXfSPTu3b8+Rie5cLf//3fN2LLYMwsld6FpYG61r/1H31OGwjLWPHHh3322afNgNJOjKXZWwhwLmTMkSktuaeffnp37LHHjk0QdAUy4xh4zuqMHc/9saMsdBmGEC458nBz6GaY/sKWE8rYh3P6fvvb326brWIz6Jr6GffmYaVgvSA1HY3L4NCQOrHOm5mY5wIHHXRQCzcAdWqNPp/BqAOHEMGa+qc//en2XTuDNAYYxCXXUsvMjjcbxJkZz7mlHiSkQ/YHoLINQ3R2lyq9JcgzzjhjejCSnziRn/BJQh4xlNoqeWsDX53I10SC6CNdYWmgzo0lfU//SRtoF844sqvY2AI/s00/HYR+GxpL5Ap7/etf37397W+fHof9Np/Z9+dC4kQn57EBd77zndvuTddyo8cm8IfdJMofESTeySef3Ma++hEee0OWPPnS8LlJQd1wyYMeVmSsdHzhC19odWmcpQ75zudTl6sB6wWpgYZNw6WD9X2wi8vmkf7LnsMGo+UwCHElvqUIA9LdZuS7xjDrRPMhn9kQ/e02s3waEjCwkrflkEGQ3sATnxy7t8wsnevw5Dnmq7eEeU5C90kh9ZQyGojK9653vastR9EphgImqUthdvTbSJ+zxI4QckNkufHggw9uHzfQZ1xn6IfNAtLnyM3YIM/48tz70ksvnTbOeW4lrn7sfBBCZnxpoju3/fbbt1cT0pfIFS/yB0H66COuzRevfvWrp8OA/o6VLY5sbpKIXVJndJOfZUfP+0F5hdEn59F5tWO9IbVB0Lg6spdEDzjggNbQIYZxpuQGImLzxREdSwdzN+iY3GGDZhAMqL322qvJyUDp3x0OQn+QmzEaAJ4B/t3f/V27SyUj79zIB6nZSON4HJ2HgewYipTpF7/4RVt6HHcptzB5hDT8886yoZtD5yGJQRCvb2Rzrm+6QXzlK185TRZITzyEBqPeIILdj24O6Zib3vjDxpJ8xckNIn39TsfYcY0M40ufdg1xRPdJgv5sQT4QoWx2ZntdYlg7rAUUqU1B5+N0Ap//MYB0QB1i3A7ofZBPfepT7cVSyFZnA2GcDmawe8+OnnnIqwxkz+eOS1zxLPXo9GZrdhd+61vfagPCHTYikw8i5rKzbRJQFwyE8jACyiHPt771rW279KTyLSwe0g/1nwc+8IHdE57whGmC4IZBH5CeT0ba3E2Vb0MeeuihLY+sHOgj6SvjwFf2rVjIOzMWhDxs7CubvN0A08NyLEKzYca5MgvLsTKBck2yP8tP/cTWuCmwfP/Nb36zlW+toyzFFPJ8yx2bl7Mf8pCHdM997nPbUsqwjj0MSOHEE09sL5QakIjCEmRmbKNC5/SB5jwXM2AMdoNl2CA3GD0gRyIGr3PyzIY8v0B0uZaBPmlSURf0lg99uPe9733tOUW2IBdWPrSTvmg8Wc7XR7Wt9hyEjAXpMubSH/jGkaV8fUJYf4Y0bt8w3r2InaVU8kIMg2A8Q3SgD718n9RL6cokjueKuYnlT7ovqy96yJttQ2Z+72NX5qTzXgkoUpsCYnB3ZjAafAbizjvv3Nba+8/XRoEOjyTsrvzkJz/ZBk4IZdigGYTo/KxnPat1VLrz59Np5YsAdXKdnj4G8S9/+cu2ueVVr3pVu/sUJ3eZIZtxdB4GdZKZIQNmOdTy4yRniIXFg/bTD+0C5tsF6XN0+lF+9zQXtG/aWB/W18gzfjjnbgiRmmdX5CfNsJu4QdC/zdTyfcrIQj7DYPzFGS/KSB+zNSs0liKNHTfKCMbYcS7PSYLu7Izdwl5if8YzntHGtrE+Tl2tFpSlmIJBw5BqeJ1Ow2+55Zbds5/97DaQRoWBR67OpIO99rWvbdt+DVqDQF6jwuAh35IMctKRySSbMRgEhMhIGHwGnPjKKS05noe89KUvbQORMwgZJvUyjs6DoA3Ilt+VV17Zdml5NULeiG4+ZF1YXsRoZwOTfmV3oWfKvuc4CNImvb6dcy7Epm9ecMEFbTOGvujcI4NxoY9ZLjUW6A36u744CHQIQemjlvDdCCM5S34veclL2gzJOFUufZg9mM8YHQdWXOilbnbdddeml3qUJ3+to0htCmnsW9ziFq3T2eVndmBt/BWveMW1sRYOA0QH16HJNyANbjM3g3QcGBgcQvO1dGUwsORlEA0CAkOAnAFAR0utZCBgQGyve93rppcilWVcnQdBWRgS79E89alP7d7znvc0/WIcCysf+p2+BGYKuQmyE9L7a4Og/XNjwyBLG+SYbP3BDMifMeRhnOo3o8K45J7+9Kd3d7jDHVr+8qNLCG4upF8iYX1V+X2xH+jl2C91rNCAeKB8IcNJwAvwNqnd7W53m353VlmUjVvrKFKbAiLT2Dq3jpePHrtTe9CDHtR2GWaJLjCg5tNBcjenYxmUj3nMY5rhRkAZFEgUMpCcz0e2Z03kWy6kN51g2GAk210uB/LV+YWHEM3iXvSiF7Wt/nRVfnn0DYjycNE1hkk9Bo6FK6tjzxNBGCBY6V2zQ8vs2CxNm5AtP2WcT30UlhfaULv1jbewjTfeuC0lW8rXlpkBaVMu7Zt+oP/qHwnLMeLgk+8XNb7or49EnhsyN2Fk6G/pd4MgbuJtu+220xtGOHoNg3TiGiN0AfKyA/Lyyy/vHv3oR7d+La54riVP+SuTtBm3zoWTK17icjlPuqywuFmOHp6h3fWud23n6lw7sA2Rt9ZRpDYElk923HHH1kF1Cr7lO8Z2GLG5Jo27tjxH41vqsLRGFiNvtqUziotonOu0gyCtOzIyEZEXSHXYkNKoIM8AMxg4xPaUpzylEY5lDPkqO+KlI4PC51xjcDhl5xwbVPRyTKa4dJWPNMjZZpo999yz5SNdjITr3KB6Lqx8+M2LmxVjR9trT2NBX9fvB/X3xDU29CEykMW5557blvX1WeNIH8sNqj4n/rDxkL6KMD2fdkObPiefcUA2OfqylYcHP/jB19mBKF866ufGEaculCdpuRwrU24UxOPoyKe/L4V4HLHbbru1MHZHvciHbHWzPqBIbQh0uv322697wQte0JZR0kl1GneGgwajazoTGTqy48xMLO8ZkDqeTi0uuToef9hsS/7kWj60c8sGD2EhgnFAJzLo6tgrCT7L5SVY346Tp3C6ypPunDLGCZ/NkZmB5vcifn1jacrPJpGlOnKzIH8GiS9c2sLqhfb2VfwnPvGJbZk/Bj3L3c7nQn9sMN76EN9mIu+Butli3JGB/qKvkDeffiOe9PRAvFtssUV7Lpa+Og7k75uyZCnr+eef3z3iEY9o37T0FR/jKKQqjnEjTc6VJ64/pqRRJ1ZX3Fx6Bn3CCSe078H6MpBnaeqDLHFBPLYh52sZRWpDwMAaTL5rZ5uuYwNnPp1DPOSkM6XTMtQepHuh2F+cdUAyY8wtnxiww5D8GQidnkxfRxAu33FAB8RDFmNCvjtEg1EdZCenWZXdVQasuAajeKmfhAWWSDxAt/yKzHxSiZH76le/2u6QldtAlCekzsjryymsPjDCnts++clPbn1Vf8+sI31mLmj7zPD1NWn1Sf3LDMjvnsz2xRMmjn5jR6N4gyCeJUdpLQuecsop7dyYlOc4UC7b+fVr+ejbxpZ3L/0ZBCGbvfrSh+dvGWfp/8rCXigvn47qgJ5mfJzdpWaAVlTUoRtFdiT5SZsZpzINm7muBVxvynCsmO0wGq1/J8IJc8dkx9PLXvaya2OOBp3VM6KHP/zh18lHHnNBPJ2Nb5bilxheBqYTshqUlnwdTUfty+Fi+A1Id2/IzWCnj+s6o+NB6N958X0pXNnGea8rOkdP58kj+icMoe6yyy7d/e9//+llkBgCutMhzrUf/vCH7ZuY3tlLW1tWynMQYVwMXPJjFNwcOB4FZNNXem1Bn2222aaR6aD2my/I937fgQce2M6T17D26yN6vOENb5iWMyr6ZVLWtKc7e8vpdvmOCrItdRuPnjWnb6RtBtWnONrUOPKMyftcdMuMaFB9GQ/6FkOt3yuXvOXngwk2dO2www7NcAvXX8jW3oPkylsccenG6LvZ9J6qlZSUaxRYWtW3U0fKQC/naRPnm2yySSM5s0S65CY35QPlVW7OjaRdlb4C5JzOsTGOzTr5ykMOkk8ZEeagNpoP1Gf0R6oep5CZci47phRbt1IcTDVe85075k91jHVHHHHEuqmKG8tN3bmt+/CHP9xkTjX4dfKYy4k31fHWTXWMdVOdZd2b3vSmdbe//e3XTXW8dVOGfN1UQ86aV9xUp2pxpzpZO54y0M3n/vzP/9xoW/fFL35x3dRgbbpMzZDWTRmflt9s+sSJSx/O+e9///t1U8Zq3ZFHHtnymE2X+Tq60nlqIDSnnHy6Ki/nfKpjtzBpHCvPzW52s3U3uclN1k3dQKybGtQtbcovnrRTd5LN5Tj6kpm6IY8TFr1GddGbH3n3uMc9hrb9fB05U3ff16kb/kw9BrmkPe6442bNYyGuD/0X6Pib3/xm3dSNyKz5z9fRcaONNlo3NaNpMgPHw+pTH5+aZbTx9L73vW/d1MyttbX+oa1ny4+Tpz6S/uBYvzGe03/23XffdZdffvm6KaPdyiyvKcJq/my6xNEl45udmSKJln7vvfduus2mz3xd9DYG+HRXhowHYVM3dS1M30w9yPeGN7xhG0MZS1OEPn2dXLLEc2yc5Rq5xiHZjjN2XRcuzmy6LsTRNXI+8YlPtPqLPV0JboVQ68rGVOO1OxOw9dcSnBnGVGdpYYMwNd5b+qkB3/ypjtbuaKYqv901keF/bpb7xJHPVGdt1weBjKnO1GZIliPk487Q3bMXx0cFuTDVSafvFOniOOczfWXiuyO0xGjWaVbgLlUYPVN+ThndYUrvOt05cfpxk2fqvrC6kbbXpmbKls2c61+D+ru+YYYm3ZRxbv1NfH1HmPHysY99rL2C4mV98UFcfWkQ0seMw+hHrqXBzTbb7NpYo4E8/dlYSrk5OnHClSv55lgc9sAY6o8lY0bZEifjxMxMWuWVn7rp++oLEn+to0htHkgH1CE471F5p0WHSZhOpmOCc8cZXDpXOiMi0wEziA2mb3zjG205hwwdU9ypO9B2PXlD5MRHYsnD0ozB7Zc0nnn5/QdEv5CpOM7nQuJz8snAi7786JQ6CXIt+vXRl2kQ8pO2X7cJ69cfvcHmFEic3FTkemFlQztNzSBa21ty86snS4b6jH7pujbPOIoxdg3SvywZOjaWEFBunCwB2zClv0aG8QT9fukY0o9AON2E0cMGDx8ggOjFzw1cP+1ckF/yjI7OQXrHGduRSTf6S8MlfT8Ol+vAT1p+H9ILl3efFNWP8oBxlOO1gLIG84BOoEPEwG+00UZtN6TNDekkEEJKmM4ijQ4F0mZAJY6ZlusnnXRSey4gjkEcOUH/OPkFeY4lXFp/IbZjk55Jx5fXzLQzkQHAj67guK9DICzxZ8K1OIMrAzrIgE443RiNpIlhMuBckweydw3iF1YH0p6gPX3N38qHGzHnnP4bItIvbn7zm0/3D77xwdd30q/0C+dIyQ9v3SS6ccq4M3YjP/GFIUfHwunGB3LAiozNUUAncYzp+YyjPujWL4M8+em/zrlhmFnenEeOMoFzeiYcQlrK5uaQ/rmRAHFT7tWOIrUhSGfUqXUCncXAesADHtAdffTR07MHnSOdyLF4wyCeOzh5GIS+a2fzAgiHyMpAgGEDytKo/8JZiqRfOjEZBnq/s68UKKNBRcfUs+OQnFmpQevldYYOhEmTeimsbGhHbZVZgnMzNeShHfVR7R4yEpYZziBkPDD0NlEcccQRbYz2SVS+IQN5yJujx1yQ3qqMVZT0MT595Dko7XJCndHNDWDGkbIqD/19aSQ3vAhamOPMjFc7itSGQEcIEWh052n8Rz3qUd1OO+00vVQoXj6MqiMN6/TicDqVuHal+f2L9XR5ZBBm0IaYhA2COGaRdtExGJFhoCvHSoQ6oJ9yu4FwDKl7A3X//fdv7+K4Znt47rRXapkK/3/0x4Rj4+WRj3xkm7UxsNpTm+cmxvNihnkQ9G1OHwK7At38ZIamT7nmWF/hy5vcYWNUX7Tq4VUE44h+EFkrEeyRMaIe3SDSmb5sl2M35He/+91b/Si/a9IYT2sBRWpDoMF1/tzNaHhh7iI9vD3mmGOawTVwDERhiT+MfHQ4IDdG3X+PzAAzkHVC15zrlHGDkPx9Jd2Spm338siyzkpE6tlAU2b1SWfOudkmQ+VFWaSvLOIKNzMtrHxox/icNmd4N9100/abGs/Z0s9d14e1sz4wCOkfDLRjqx7+C+gZm5eOEaPwjBvX9S8YNkblL70t/n4gTIZ86LZSkbpTNj47o7z09upAVnCEsWcITZphdbFaUKQ2BIhGY2c2xtcZvKumY/hzrgGE2MQNcTC0wzo+uQyz9+d0LgOGDO+u2RHZlwfpdMPuLnPnBb6S4N08H4DVuYcZiOWCQUVvdaou1Avd1aOyvPOd72zLJt6Nc47c+IyWDQOF1QH9L+MCoeUG0RdrvK+pvfVvfcBs3LgadhNHXojKzM+5/uTm8Oqrr259Sr7yM54yNoyHYbKlsWnEV0a84HzkkUc2nYDuKxF09s4rqAtlZjvucY97NGL2LU7n9HedkyZEv9pRpDYEBpi7R4Mkd0AGiDVpHcGg8ELrUUcd1QaizmIQmLEN6yTiIjTbdsnRyRho2+I/+9nPtgfe8o8hQHJ8g2oYOTH29BHfoPbiukFJt5U6GJVPnTJyITfl8NUIs03GyNcXhKs3cbVNNsoUVjZyM6b/cenD+rM29d8vLyBrT9eNA/1AOw+DVRLj0/gh15jSN3yQ3EyLYc9ym3hm+/rbsLGgL2YJ1JI+He2KJG+ljiPlp3NsBcL3j0hfRVK/7I7yKH+eW4q7UsuzUBSpDQFiMqgMlpCbAQM6tjCdwief7n3ve7cOddVVVzWSEncQpDdw+TpVBrnO5Tc1vmzg+3Dyd01erok7DAY54yANMnD8nOc8p+0O8w3LlQoDLQOR4bF5BqG5q1YPNomoA9cYKfEdF1YHtB1i4ev3jhlWS+X6rM/HufES7pxxDhkOQt+Ik2fG54sgZvQ+lO2a/CLPmBBvGPQvZMaP3n4n49+IZpIrEcrOXigvO+T52Zvf/Obu8Y9/fJvBCWPXjCnjTF0oW+zPaseKIzWdBnTCGHrGDEFojHQsyABJg8zlAh0z027HjGJkDYIH2DqKuAaCWQJdHJNPNwPRR0XBNR0l+s/l6MBHmGS4W3XumJ5mKD4iTI68YwTmg8TPEotzzp2rz2j5CaqOrZO7Gwbx5I8Ik045+OJK75pzeiRe4kLKxs0857KRRvqkU5/O1ScnnEFDaHvvvXcjZPGkT/7qTlznM/OY6YDu8olxy92/8HGgregSyE9ZyJ2px0wH4upf6leYdOk344KM9Cn5kJsbpFEd0JG8Puajc+pa2qRPH3WNgTXOEAYicbOiXmCmHn0HxovxnHGEvFwjM8/XtJO+NFv6uRCDz6dLlkct43nh278M9UHXOP1WWdIvQRn77TvbWIlL2kBaLvXlemREjvOkl49z8ZGuT4ghNF/ud00a/U19qY/+7kdhkTOXIyN1wGk76bmVghVFav3KSaOl4vgqXadNI/Cdc2nsuZyOwghKo9M71lnGBdlIgW6+Qv7FL36xNbxlM/rP1GO+TnnpqkMiN4PUIOfoLc6oMNAt4x1//PFNd/nQVR05J1v9qleE67pB7VqISFgMSYyJdGSkDKAc6iMD28zUtdS/fJSJTIOMb3eWb8rZGMIIh4DchWs7A1G8/s1O8pzNhZh9mSH9hi50cz4OyCdLeQz23CCoh0F6uS4+/ZVJWejjmnql46hQptRZ2jMycz6Ko1/GIr3741F5hI8KctImbrhs9Vd/ZLs2mz7zdfqNvm5M6qvqRns5VoZR4QMHPkhsOdJmF3nJI3UsD+XJGHGsjK4BX5hypv6Ul05WU6Snu3GhTcXj9+2h4yB56U9s0R3veMf20WPP0pTZIxGy1GfyzZgiFwnSaZAjnxzplVM6Ml1bKVhRpAYqKXCcTt2HCtQgnMp1Lu5cLh2FHOdpAOczZS8Uljg0qk4pD2vXHnjrkDrcTF0W4ujNEPtyuC/bk5nnDeNAZ7QsgzS815NnGR4g6/zKIn/xcpeICHVmAyAD1LWUUxp60ZnvXLg2UscxstK4m1VnISiyGPh73ete7R2jD3/4w+0O04ALGUKMRWa2gbCZddd38tI2dENwnDRkuDYqyCZTGclx48EXro7I7+vRd/RRp8qurrSreiGLbtyoIL8PeshDfWrDmbrM1ykrGeRx0VM4Nw7I187kWj2wC9iPLi1LymOmLgtxdPvJT37SXm/hJ5/YjlGhLrSz3yZ95jOfabsKETKZ5OemTZtmTAnvh6VsqT/hXOyKY/py6Svy7I9TvmvGB2K65z3v2V43Ouuss1pcNkR6Y4w8eToXNzeIXG765nLJX3r6Ro/cNK4UrChSU2mBStQBDH4uDaGjaAgVGZ9hHebE06iOyZAX4zgu7MbTAUFDW+Lys0H/OKP/TD0W4pRPR/VCtl+92MmVmdM4oJedhYhNnXq51KBEcr7JZ4lQ5xVPp6UHg4ukxOe0j0FnYPPTRjq3a86Fk0FW0jo3eMhTNm6rrbZq7yp53ufdOmUUn7zI5sjWdnzXEQHZ3Gz1FycPhtIx3ZTJgFSPwkYF/eSd9qBbP99hjl7qQV9MXdLNeX8sjIKkV06yQdnV2Wy6LMTpD+kD6oDTrs5HBbJVfkSfOrW8R7a8ZtNjPs641/bk+SuArfn6X/rmODrTK33P44f3vve9bYOXX0BZ7lPX8ufrr5y40mRspe8oJwjX17Uf+Zw4GQOuuxY5wvQhMzM3Ab7QYiwffPDBTb489TN1K67ycq65qRQmDwQnXuptNhf9lSnj3I0cWdxKwYr79YxK1lgqTAOCBvHzO0tSKpNLJxBPow8yAuK6rjE8o/Hb9nQWGJR2GOQvvUaVj00kBpEfAtpKryyjQBkZJLL5ljUOO+ywNpsxIBnQ1MFCoY6BbE7nJi+D3U9BP/e5z7WlQj8gRKZ0UGeuK7O8+22QeuASFqOR+lffBiDSsmPUzNBfxf0kNM+7pDFwxOm3M8ifXieffHK75jzLvAbcXNA24oJ4ZCJ1u0FHbZ+Azurm7LPPbi/OR3fh8kx9zETqTL3TTxm0y8Me9rD2Kx9yhI0C5SMzeecYYXhG699do4LOnnfR0wYEYwrk2W+rhUJ9Geeg3vQDbeM5tZu6tN9CEZ30ZX+KJ9MuQJ+S0xdGrWNI386M2zk9yTVOTjzxxNYv/EPQc2xO34h9097S04FLX3Kt328ckytcHHGlM2aQqaVKs0QrRIhJPl41QjjO5SmtPiWdeqabZ40QvdmBQeMhdkNcOpBjg5wbYef68krAiiO1vgFS2cI0pE7uWAPzucQZBunTYdJBIkN+gwziMGTwmfUY7BACcC1lWSik5XSWHHPyEsZPHSwU9NNBdXL1ZwAyTuoIyFVP3sVDIt///vcbefgCut/oewbmXLp+O/QHYtpOHgafunE3aTnJnf6+++7b7mjVv7IYIBmswKcPX7nVI/l0l2/uvpXDYBrUD/rXpBWf/pHR13uhIJsOHD3Jdjwfg6ls0tOBTyfppaXTOHqpV1BvkW3GoO3ST0eBsjF+bk6iN6cs9E37LRTaX/1pH+XnyNc35KkfjQK6qYuMc+faJe0evUcBffvy+OqZrimH+rfE70bxkksuaf3XODK22AyEIwz6uqQeyVd+cpCXMeQRh5mVVSIbVdzoGr/aVnjagw5ALzLkg+Qgz8WsXkV3aaQdBHGjJ9JMuzgftR4XGytypqaCIR2vj9kqflhjuJaG1rnjaxB5GDjjgAwDPYNRZ0+HH+fuRXqyyaIvWTHK4+gceemI6lsnVx/yFKaO5G0wiS9fd4DenTMovWqQO0DOdW0nbfQjA4EZfLbie2BthhSCIj/lcZ7ycs4ZOn70im70pX8Qwz0XXFMGac1G84Iu/Q3yQWmHQVrlVlZl7hsoespzLkjL0SU6SJe0o0LdSB/Z6kc9hyjGkU2mMpIlH7o6jv6jQh0CeZkxZCw5HlSPg0Av/Ugfyo1T+nT62ahjia5kSp/yk+uY3NQ3qDNh6syNoQ0c/lKtD2obSN1mbNIzfZssM02/w7nTne7UxpR00Z8v7/QfYZlBQsroPOWWT+pYPgkfhOQhbXTTduSP068WEyuK1EAlqTRQyWmkcUBmGizydZ40yriNoaHJiIGOkRtXLt0gHSkdEsaRnU4YWWQbAAy849QXyEd8vmuQaxkAzhmiDFx3jeqBHLoLS9wYwugvrXgZdI776eYqJznSRKdB6OsbAycPBgXpLhbIjEGCfp3NBnolrvKm7NKkPkZB2ivH+jmkrueq0/ki/Z08unLkwnzaYy6Qx6Xs6afJb1SkXvXP3Mhyw9pnPtDe5GjH/jiJLZBP2jhtO1ddKWdIzhhCOP1xAdKIx4/cfr6xa5GdsifvlF1aYdEdFlLPxpF8pE1eKwUrjtQKhUKhUBgV/5eiC/9fe3VAAwAAgDDI/qnt8UEJAAiQGgAZUgMgQ2oAZEgNgAypAZAhNQAypAZAhtQAyJAaABlSAyBDagBkSA2ADKkBkCE1ADKkBkCG1ADIkBoAGVIDIENqAGRIDYAMqQGQITUAMqQGQIbUAMiQGgAZUgMgQ2oAZEgNgAypAZAhNQAypAZAhtQAyJAaABHbAdFEGHkREOCfAAAAAElFTkSuQmCC;" vertex="1" parent="1">
          <mxGeometry x="395" y="381.68" width="91.85" height="99.63" as="geometry" />
        </mxCell>
        <mxCell id="o6JNWIDiicLb6SiJitLu-39" style="edgeStyle=orthogonalEdgeStyle;rounded=0;orthogonalLoop=1;jettySize=auto;html=1;exitX=1;exitY=0.5;exitDx=0;exitDy=0;entryX=0;entryY=0.5;entryDx=0;entryDy=0;" edge="1" parent="1" source="o6JNWIDiicLb6SiJitLu-8" target="o6JNWIDiicLb6SiJitLu-7">
          <mxGeometry relative="1" as="geometry" />
        </mxCell>
        <mxCell id="o6JNWIDiicLb6SiJitLu-8" value="" style="shape=image;verticalLabelPosition=bottom;labelBackgroundColor=default;verticalAlign=top;aspect=fixed;imageAspect=0;image=data:image/png,iVBORw0KGgoAAAANSUhEUgAAAP0AAAD5CAYAAADspDPqAAAAAXNSR0IArs4c6QAAAARnQU1BAACxjwv8YQUAAAAJcEhZcwAADsMAAA7DAcdvqGQAAJMGSURBVHhe7b1JkyXJkSZmmRHxYt8zcq+sFUABjX1p9I5eONPkcIa8UIQjPMyBNwpF+AN4mhtvvJFHnkgORSjCA8kRdrOH09PLAN1oNNDYUQXUkvsSGRn7vhT1UzV1VVs88kW8l1lVWfFleqipmqqamrqZu7k/f/7OfUAIZzjDGT4xOB/pGc5whk8Izib9Gc7wCcPZpD/DGT5hOJv0ZzjDJwxd38i7t/XjsHe4FT6gfx8VnMO/c+fp7/lw/txgGDzfCZ3zY2H4/EToDIyFgXNDTf1HDQcf7IWV3bth4+BJOPrgkCTnpOJYmE66F46zpbpsl5V7MLU/n+R0iHI6EkYGxsPwwCjldJBzin8fNazurYQne4/D3tFerZOEtvwBx+UQkPqq22NtzY6zSrnr8DgdopwOh7HBMcrxANedO8cjmvWfJbqe9P/bO/9VWNz5FQXflfpzwnkehJjsQ+dGwujgdJgcuhxmOtfC7PB1Kl8KE0MLYXRgOgzRwB2gRH9UDgDr+4/D3zz8V+Httb8Mu0dbJNGdfS5m2O38D3JZyQN1GVGuUHmUFTwgcs7pOcrpAOV0YILyOB/mh6+EOdqmO/NhivjxwSnK6TDlng4CH5Gcfn/pb8NfPfz/wuPdx0UuZJQ7PlKDlH0uRAeAjDYS5H4BswFEN7UVHUztDuVsqkM5HZygnM6GK2OXwmxnmnI6Qbmd5APB4DnSpIPDs8LHfNLXgaNlh85M00M0UEdeDRdomx9+hQ4GV+nAMMsHgA97oOqkf4sm/d7RdpTqAHKD6KkTHrCBJXA8K5tu7j+3AbU9HGUcwzme5LOdS+HS6I2wMHotXBi+Snm9TAcAHFSHn+lA7QaY9H9Jk35pdynpQzrhAemPQco+F7UcMHE6QOlH5YDTaRw6GQEH2JnOVLg8uhCuj12h3M6HiyPzJJukFWvnmeR04F8SYvlY/GT5X4ctWop+XHBIy+dNindp593waPvtsLx7mybaI5pgm5TIATnzU8J1Jzxv7NHZ/c7mT2iA3qJY96NUY4m0MuENqawcjPiDsspVx/jcR0pLGS5DNg/WwqOdO3S59z7F/oCW1Mthh3KK9oZokOJy4MPC/e274ebm+2GbLkMVH8TJ6vtRTtSYLy6XdaaT8qWu6gFaJioCguobxUl0+3CXcrocbm3epz4shie7a2HrcIcPVlj6D/Illdr0jhd20nscfLBLE36RDwCPd98NG3SWBTDxB/kMNcD880Q66Q9IooNRB4njGULTwdl2UNB6QPW8DChtC1+Vg44O/AM6UK3tL4eHO3fDg+1bYXlvkeo+4DM+Jv/Ah5DT+9v34qTHyoliTSa8xq4ywPdPdRRR1nLg1TwIRDe1jToslHrA7Iyq/8MPjsLGwXZ4sPOYDqqPwsPtJ2H3cJ9Wrbj+719OPxGTXnEUDimJ62Fl7x6d+W/R4Fjjs/0wXQoM0EB9HjdRFH7SH8RJbygHWjqgUl1PbaABTtboHTfwAJLFyVLGoGVAbI7o3w6dWVf3n9AB9QEdXFf4IDpKOcVZ/3nmVM7079FZcisu6QHtC2gZv8nqORDkdnldZkuwSwrTbc+76aB8RH93DvdonNKqiib+MlHcPB0fGKWx2hG1HvDRuAPzHIGz0T5NuMXdd8JPVv51+O7j/zm8tfrntEy9R8tXTL7nCR1Abqe3nFmEOj0q54OI+Wyw5f5rA88obXH05jGkdmWM+0d7YXHnXvjx8t+Ef//w/6GTxHfpwLpIZy98MvE8IfHZVuYA5XqOASrHHABlv1NeZAqpkxWG6gGeN1rG4P3TauroKCzRhP/hyq/C/3P32+E7iz+iHK/QOHUBngKfuEmv+ICWUnuHm7SM+kn4/uP/Pfx0+U/oWuo2f5SW7PVnDtvJ9eV0beD5CKWOdVioumqX84DRxH8crOLb66R2eT0AHYzFPTpD3dl8N3z70Z+F7z3+C7pWvceXAs8D0hf9A2jsGiugvMo0B1L2OSj7nfKqJ6jpyJb4dzIpGzVbQhwL2A6ODiiPT8JfPPp++IuH3w+3th7ySuC0+MROegUm/8b+w/DLtX8Xfr7yp+HxzjuU5NMn9NRomfDGe1QGCyubrgygnAeMiv8UZQzmA8jrAWtfgCKW+z+is/3fP/7L8GDrznOa+IhHN0VZtlB9DrweoLzatNUDTsflAfKaf5Ep72wVLWNh62Av/P2TX4Q/v/+98O7GXbpEPF1OP/GTHsCSf23vQXiblvk/ozP+Ik18u6P+rIAdGndqZSenFJCyDQ7l9Y/pik7OAzUay9WBpmWgHiPrSAUBMtULYfNgPfxi9R/C95f+Otzdep8G6W6sebbQOPP4gTIXQCxTDpgUOrmu6gFaJprkwUP5PIc54KPMs/Xng7B9sBveWrtJK6mfhPfW71FOT35JejbpG3xAg3Qp/Grtr8LPVv4kLO2+/3yu8XknYwenOzkdeDVZ5Hmgmjz1pTa5jvMF++pA0zJQ1gPSvvKyiR4g/NbBJg3SH9MZ/9+H+1t60/JZoxa/l0mc1ifaYg68DiB2CtFNbaMNC6QeMDuVeV4pZLJxJW1c5g2o+9g+3A+/XL8T/v3iT8L7G/fD/gnvm5xN+gw7h2t0BP0bPuuv0bIfR9dnidR7bWAoUlk60ASprQ4gD/WvUF8AyrKldlpOqbWvqNng7v4HPPHfXX+LDqb/EFb4wZk0in6i9Fz22XjE6fuhcQst85Db+jyYrtmJDSB2pgPk/s03oHxqo3Jc079NE//bNPHvbclH0N3ibNJXsH2wzBP/1sbfh11aoj4ryE7XnZrvXEM6iCJfHWg5D9RoLJMPG1giMzsglzleDAmQqRwwXeUxybHU/9X6z8Mv135CB4Fnk1O0h9h8vE2YDJUDsRwVqn1sgLL35XTSBghqZ/aiYrz4cnx1pSVUUMpBt2ip/4u12+FvH/88rOxtcE03OJv0Feg1/vvr332O1/d+cMgGPh+MTFlRedUxPtGNVHwpSJ4MNNErB7qXOb5pXzbzbbopj/oP+MswP1v9Ybi9eTMcnPIm1PHQmABPZUvjpO2YJb1BdMUOcDoslHoAMvMvNOUByBx/igkvIJ4Em/s74SfL74cfLr/T9R39s0lfAZKLu82Y8Lc3fxA29vG0GR6ZeDZAe+kOVaQ73gaVQQaQ2ZU6no96JMjbSwZitDGZUOYT5xXfjcz8aUxHHxxRTh/Q2f6ndGZ69g96+fiLOBuBxQnkeUjrpcyfw5tDRp4r0DwPInP8qSc8YogFkq3vb4UfPnk33Npc5Bw/DWeTPoNP7ubhcnh/43t0zfRT/lpx/4F2yh0M5IOI48IfLngd1fM2gK+zMgZsapcNROaFCqIdqFQQIFM9wHRTWx+TUDwi+87627TU/wWdmXZY1n/UYgNiGZMWpKir875P6XMxqp/T1EaQlZMJL1tqIxQx5r7y7xMc0ES/v70cfrT8bljZ32TZcTib9A4yCCyhOGrigZ331v8uLO/eIb7/T5fVdnw+UZjnHW1bGquP3bbEFwZZ4wNQnZzXslFpX3mvB+QylIWmMRE4hsBn+V+s/pgG6h3SMU/9gbUvMcTQwaP/iIFluZ7IlReZsyWk/VGdmp2WAa9H5eg09VXzDZTU9qGT0bZ1uEsH0/s0Vh/QQeD4cXo26SNkxymQSKF4UOfe1s9ogP4i7LuvwPYXugMB25lAM1CcjsamkAHjofFHxIFe9c1QHqjoJM68b9UtbVOe4GLAwfThNu6Z/DLsHDyLnKLdLE6eLAqLEzg+f06HhWab6qgeYDqA94+y8WW9wfIlID5pHzBf+LLOk70NWkHdp+X+8Tk9m/SE2o5iGvfqxv5SuL3xo7C690AEfYXtxOpgyHa06OQ8UKEY6E+d8IJWnZgDkakvwHRz25QnNBPO6A4t829tvh8ebN8lffPaD6TeqE0nyPOV5gHlso9pHoDcRiAqvs75p8pypeXqGVaX+iKeBaluEhLx23gEeusxnaCe8EGgDZ/4SZ8nF7CdDF6SizP9o513+3wnX9vzO78Wg0B0ch4wKr4U5eABzA44RqdpXzbvN5WhLMh5nfB5rPgizuLOQ76TjwNAv2FxyAY+jyHPg+oJnA4LpR4QX4DKyjyILPJUKWWtFyo2CqtLfRHPAuWBig79xURf2t0I72884gNAGz7Rkz5PHGA7WSHy7YPV8Gj7V2HzYJn5/gH+22JQeZQVPGDU+iNba/8aHKOT5cBYs09tAV8mtEx4ALa4qfdgG19z7uedfLShG6EJPI0hz4PVA04nyYO3M/1aHho9XmmhnNqlNkZzX+mNQ6DcZ6Yi1/a4i4/P7fFgVA2f2Elf3xFEOU9SB17ThiXoo513wuruAy73A6mXWgxC01ijDkOoxRn1MNAyH4DZAVG3ptPYqkyhMt+eUhcnKuNgtzaFclXUw2f1S7uPwxPa+vMVXB8X4hC+jEF5QHRFT/mowwKpB1I/snkbkxFlh7Gc1Ee3jVxlpa/0Lr1shU6kuu0fHdI4XQ13t2iJf1Rf4n8iJ70kSiEJTHdy5BtIQlf3Hoblvbs0WPv1xZHKoHAxSL1Qg9MlWJygtDWda9MDVKZwOkn73g5U9QDTAXL/5hvI7YTHmWjjYINy+iTs0RmqP4hxUGNpnBqD8gDKPlanw0LTfXoexI/XM79AbqN6gNkotTO86dXa8zwA2do+7pcs0jitf8/hEzfp64kiyhWpXICyJBgvsFzevUtL/TWu6ScQQ76US2ONOlySmKyOKCpoE2I2QMqLD5MJZV6cN8h1AFHxPPwZr2dX03F1SVlsd+kAuoL37PXrup47V2tb2jOgrLECUsdnVxaabnd5ACLfkoPcBpD8AaabT/iqTiwJUv87h/j+/RodUOvPQXyiJr3svDRxLONsaeJ8QkVfebzL7snuHbquX4mSXuDj8DFYHKajPKD1TocHucbp9aJvhue9LPpx7YPP7USuvNDUFyHG4XWUmq74Uf94Rz3eV795gJdrSgunhstDHn97fwCpS5fTQtvtcp3It0541dEtj1GoXZaVdUrNv9cDqEzt4806K3tb4eH2apSn+MRMetvBgEucq7CdAEhCrRo75Cjg1dVbh3hlUR8fy+VGrO1kEBHSwYGY0nqg6Y+j+aByXSU4naR9pQDKqgeYTsoT4oSxNo7RdXXI4+bhFi/z+/dqLfMP5HkAzeN8uo7qAV7H6o6f8DlSHVCb8IrSX80/kLexebAbHtK1fQ2fiElfTxRRqSBA5pMm5aba8bu0xMfyHq/Y7hXwl352C1kbn8obPHWgKQ9UdKyTBPUFqG5pm5gAzYQ3HaW5bqmDr4nu0CClSX/Un5t5ntZiMjidE+VBN4euJrzVpbqkx4JUN/dX8w80bbj9sHO4H1b364+Ov/CTXhKSJsp2stSBl4QCJhMYhQ6W+DuH60Hepdcr1DegbZosjx3tNzseO7irgVb6AVjGxlIHXnwBql/6N542MByDbAKh5k90WTXTYTnZ4716WwdbfTzTC6w9hcYhZYB1WABeNqkHcpnyYtfYxhxondcRWJ3YAVaXHvilXOhEuUAoN40y7NlH5Al7dABd3/8EXtNL4hQuKVwhvFEA5ZwXqjsBy9FdWo4e9vWroelObnZm5K0eIFmzgwHTAXSnC7wd4HS4IrUVoKx6gNXlPMqt/hmpbk717LZ/dEA53Qt4nXY/gPbzPHB7whCkrsyD9hEQG0B8eR0rQ17PgSLVzWl5hldbpxNLApE3OnEsABaXvEO/7Y06L+ykzxMH2E5W5ANB9QCz9fwH4ZCfx+/Pl2+kzdQ/IHKBUsDKeYxAfTBWdKSigbFmn9qqb+Pl7AaozNVl8INRqR/syOU+rZz6cZ8kzQEAXmMFpN7yYPppnGKT+vN+CC05SGWKUrf7Jb0i1fWV7Tku8UJOeklAmoR0JyOZPqGmLzIpi55QBX76D5/T9/emk7WX82jfYqCtdaApD0j/qjpsbHVmp7Kaf90i+OziZVZn7WrsuQ7JmxiE4lthONv3/tBT2RY28yryNA+CPA9iY/WF7KkTXjeg1C0nZEUnUtsEEr/JLHaF2BZNRLxwkz7tqEtKUuGTZGVLstCUJ1Cij0iIpVP/X6qh7Sk8H2NoBBYjkO50XwacDttbvdmBqh5gOkDinweb6gFWJ3reVstGa2cf5JTP8m2npi4Ba8QgXiQW8ygxdJMHs1dksqdOeI9S17rpZJEKlFeYz2RfEFIe5dy2xAs16fPEAbaTgTwpppva5r4IzY7uH+BP2zHfrk2GxQikA9TzwDE6RfCpDqCxGLI+NxO+ZuvtWnQaZ1aX2/UH8On9SrmWhzzOWg4S2tWEN5r7O9mEh8zZarnYD4DKFOB9veGFmfSSAO2kJM52stSBz5NiMm8rdQx2lMn6Ct+++E9iwg5G+ySQGKKcYDwgMVZ12Bl48St6KhNa8uor2scciAwQqv6EFz+5DsvjQDU976v/kDgAaYPbZ4G0D5R9UR4QvaY/XBBe9c0OEH2Tlbr1HCgvtO5L/OlYEJlQr1vK6nghJr0kSuESxwWfCIUkxexMp7EFor0lExDb/sDaVSptxa3ZwYDpAPkOtr4ATif2QSC6Ai1nfS544Bj/zabQslE5u5lezX/K9wuxvWSyCS3zJ9Q23z8gz0uuo3Ig1QHNc2BwOpEKhDaypg/aJmBU9ABvV8fHftLXEsU06fVxSTGb1Bfg7YDcth+w9hPERtKYtP2cByo6SaBlDoDcNuUJNNhq/hOdiOpgZGPTtUmiqMfVG6yNp0+Qev/MjtCSg0SnQamb56CqE6kg1Y2VjKf3p6aT4mM96aVzaQdZ1iQZCcmTohtgNE06obKjwVtC+wn1LWU5qpftA/kO7SUHuf+UJ8Q4vI5S05VyHhfLWcnbiL5BefXXD5j/NA9CrR3frtkA1hfCUyc8qJVz3V4mvMQPXmRpm0LFFmjTKfGxnfTWWcB1OKnwHbfy8UkntEz4RKePsJDbYwRshwrMDnA6XJHaClBWPcB0Up7Ag823cYyuq1NaDnagtDH/afl0gE/EJ5s41DY1bkD1tKzwOoSnTniPUrfnCe9gfG4LiKzUqaPrSX8uDPDfjwJqibKdDEBWJsVkOe/QxYTH58mF3Ylxjv4h/dYOo6uBdoxOFpixZp/aFiYkcP4YRnPd2kCrD/aUB1QGdTz/IKXT49w5+Itb5spYqRde2hdoOdLW/eBhdbm/vkz41v3g42jRYVvT9+h60g+eH46lDxfSubSDLGuSjGRqQgHVPy7ptIHhHa36QN2mH58pnz93Ppw/P0QutT3aWgea8kAZI1DmwNuJTOVSFmq+aGMjkaW2sYpLolv6F5o/R576AkpbTHh8HbRXIKcDzYHU4kjjlPa1zstYjwsas9eRKtU3WenPbhwColvoRCoQyk2jDPvoI41daCrLeQLHD9s6up70w+fH45H0w0PaCYlFkmS8UQBl1QOsLudRtuQBLTuGBie+dNPrc+I05cMQHUibs33Tuay9hgd8GXA6SQ4ALYOqHuB1gNSmCYOR26W6Oc3nbdlemVPweNQJT+X1+hju0LlBOjkNkVdrM50QefsC0TG9tBsiNztvazZKLQeml7ZZ5gBoZO6Ake57wMfm7YCoGyd8w1fQ9aQfG5qjv+2OnjXqiSJqvSaUSQHKJKDs+CZRipJXYLLjG3a9Pnt/ngboyMAYHUjpsik2lg5QzwO5zPFpsIRUB6jlIPFfDJZU1yOPgX01MYhMdLxde04hx2PNmPi9XDgN00G0Q5P+fBIDILGk/QOymFpyUNoBpW454Ss6sSTwPqnsKpN9w2VvK3XFfiCF1H8dXU/66c4Vcu0DeX5IB5B0nmXcQ6kDnybFy7ytbA0qOzr3A0DGtnQ22jvaoUHa27fscEYaH5gOAzT5gSQmQsrncWtMRDlY8BK36KlMaMl7XwTKgdSbjkL0ZFP/AqPpYFffWg94G9WJoUcez97jK7ZReCqMDI7QgXSEDqTnszilPSkrMtlTJ7xuQKlbO+gVOpHaJuBYm30Q+QYib9wXOpGygug2soam6HrSzw+/Rmcn3Mx7vrDOAi5xSYXvnJTzJAGNreIEE17LWIruHe2GvQ92+ax/WiCX40NToXNuFJwIGYjBxci8h8ZElCtS3Zym/avngAn/Bbwuyk63KRutLWdrZT9Ii7ZIsHu4G7YPd3rK6eTgeJigbaAZp/Bf5qCQNeNAIfLSTvqRyolvjNXO6pS2+TddQcqj7G3VTnUiZYV6GzV0Pelnhq+F4YFJKrU76zekE1kHQZveQdZFUlhHyxGtEx58put0gH1M+sPtnpb4WDWNDUyFscHpeDCVdtPYyxgB1rFOE3I7oWX/tBzRTPiabapb6pCMGwDfZiflmm1TjjFs06THizTkLv7pMDE0RivSqTCEG6RN24Bv35cJyTiweok56rRS0qvkIKc1/4JYru4HlSlqOgS2LdsAb7Ypup70wwPjYWH4DXKnjT5b1JLOMu6J1IFPk6IbYDRJCGdDbOs6SkWWJxk8Xte8vY/XO/W2xJ8YmqFBOs/X90CtrTSmKONgpQ68xA6oftkf42njjqmt6QDmT3RZNdNheRxsgtwXkMtQjqFDBnuOQfzjLL9Bk77tBxq6ASb7wvAcn+1xJ1/atvaBJiZuWOMrdQRWJ3aA1eU5YFlTFlr3H9uIORBZqmO2Ui55gsufyoQHTJaj60k/eG44XB37PF8vPWtI0ArtDFGu0I74DqGseoDppDygMkWuU/cDaAw402/zK7N6m/SjAxNhprPAd/GtLUEeI/AscwAUg4qRy8g2iSFvD2jLMUB6caALpLx9sM3vyev1BunF0Xk+26fPQAisf0B/cwCkeWjzD1DZ5aBsM8sXIed1wpsN4P14eYruJz0NzItjn6Yl6XSUPBukHRFqg11RJgXIbYukFIlqo0Aqsxhwpt+hpeg6nenrPybQLQbOD4aFkethfHDSHUzrMZ4uByX/9BwYqoORjU1XdLxtm3/Al1P/e7RqWqfVE16J3Qsu0Jl+vjND41VWTwKfK0JLDhKdBqVuOeErOpEKUl3fUDXHsaSyQqeJ3yNvsx1dT3os62c618PlsV+j0rO5oZcOIKEs495IHfg0KSpXXmiRgMqOBp8ntC4jysbC4wy/sb8cdo7wrvbT33hCTq+MvRpmh6/EJT5iQhvHta9xK1S/1j+ti6AcqK7AqNmq/4oOK3kb0TdUbOiv9637IfePLC7vrYUV2npBZ2AovDJ5PUwN4f4TIO1pO8dPeJR1A0rdXia87EfwIqvmOJZaddgeALWytSlbGkOKE63VcdPp+viXQuf8SJT0D9ZZQIKVJHExwnfCynkHiw5XdnShQ8h1AIvBdPFZ8sbBMk98PKjTC6aGZsO1sddpBTVBLfh42ttPY1Q9wHSK/sXBInLgGN2mbLS2nK3Z+EFatNUITAdQm5W9VZr49Xe1dwvk8Mb4tXBhZJbv4id9e+qE96iMmSZ+RUUnlgTm0/Ii8HlSarYiK3SKfQjkMShy3nCiST9wbihcGnszTHWuEtfu9KTIEwdwh5veQVYmxWTKA75MaNnRKfI6oRaD2ciOwO/aPabl6FLPS3zcuX998tdoFXVBHtRh5O17aCw+JsD4tExoBkvNNtWt6lRiSO2kbGplnemkvNdd21sPT3ZxIO3tybzZzmR4beKlMDE4Rlz039WEN5rn1HLQpqM8AJmz1XKxHwyprdfJbQGrS3lBzb/HiSY9nM91boSXxr8chvp0tpcArRMAy7g3Uge+TGiZdJHFelTyjo48Q6jZycaqhQ5RVjS594Wftnqy+4A/ulOPp8WFkavh9akvxxVUrX2T1WLXepPFelTGHIgMEMpVqsf1ygNG0xdQ5L4Ab6s64l95joEEuX/xpcDv2u2HRztLYXW/tyU+7ty/OfUqraAuhUEcSLscB4DFZLp5DljW8ELrvsQfT9joI82BbLks5QnkqPEVZSiXMVRsKzjhpMfHIiPhjanf48nf68d3ErRCOsFBc0UteJRVT3lBY9tAk6LI7XK/Ri0Ghfqy+gNa1j/avkVL0kV+hLQX4Km8z05/NVwauRGXpNq+xhVjYngZkPJPywFgdqluTvOzW94e60Qq8O2RjAd7ZBO7Mk5s+LjuwfYjyutjEfeAueHp8PmZT4f54Rni8rbqOShzXM+B2QrNeaCRNQcM718AvnGf2AFRlwRi52213EYFeXuKE096OL4w8np4Y/r3QmcAT5OdDrVEMbVeE7pICuugrDyBEt3q3+tR2RIjlHk2Nl3vS/VB72+/H5b2HvT8MROAj+6+fuEPwvjgtDYYUcYoMqGCXnJgffI6MthNt/APnUgFaV2sZKT+NVZAeJEJcE1/f/shP6HXC4YHOuHT0y+Hz02/zg/tCKTdsi+A8kbzHFR1IhUoBah8TA5SGymnOgTehyoDRLfWZu4/tUtxikmPj+864TMzf0TXTq9EyckgAVmQ6ATLXJLBW85MJkhtjSdUBnvjnwGqMoXUpTEIxM7VM4TuHG7y2X77YIP5XoAl6Y2JT9Eq6othOC7z0V4ao2wis1hSnsBnF92Amq6U8z6xnJW8jegblPc6MXWQxfZr/qvtxRLKWOLf2XoQHu8+ibLTgT9tGpoMX5r9DF2OXqIVau0BqDwGx7NAeaCiE6nAdLmNZh88rc+CQoftAVDdoAeYDLzZCnI+x6kmPTA+OB++vvDPw9jgbJR0h7SzGhzRpMIHnXfAbCwBES0TPtFpYDqA7CjjAUme8QLlZTn6aOd22OjLT1eHMDo4Hn5t5hvh4uh1XvIbLI6n9i8OFpEDx+i6OqXlYAdKG++/bEthfoFyMHpeygdHh7TEX6TtMX/rrhfgQHpldD58evLlMD2ET0dqwz3PSy0HFZ1IBabbPgFzW0BkhU6xDwVpmwrPw7fjmwNHilNPev5oZOLr4Quz/4yW+bp8Oh61RHGQTe8gK5Nispx3qEz4lAJSzpPMdvzHdEWnjTf54927fCe/H0t8vALi6ujLlNNvhvGhaWoljwGwGGo5YOJ0lOa6pQ7JshyIXcoDNdumfEwMBpRVD9AytUdBbOzTCmrncdhs+dXVk6BDy/w3p18JL49fpSU/nskHLKY0pxRDNQdCBSWvaPrcmgPIFC06jS1gdbU2zRZQnYjop4ZTT3pg8FwnfH7uPw6fn/lntHw6/vpeAqwEzZFKHfg0KSpXXqjxtIGhDub+Wez4uizynCCTp77UxtdDJuXtg83w/sbPwtr+Ekt6RWdgOLw581XK6a/TKmqSWpC2tT2B52njgCTuWv+8LqtmOiyv5MD0gFyGsuWBN46h9C92CtFNbaMNC2iJf7gX7m8t9vygjmJhZDb81sUvhhvjV5on9Swmi7W7Z+mFCoRCJvHHTXmG0VSW84QkfyJD2dqUzXQAlcV6rozlFvQ06QEs778w90/D52b+Q/4cvwYJWiHBcJBcocH5IFFWPcDqch7l3H+qk+p6WouhbA/lvB4QOc5MtzZ+ERZ37vb8oI7gHD+W+5X53wqfmf4SnZ30s2YfE2A8xxFLAqlLY1Vo2Wh+duvGf+qbtkZgfgEbnIDoprZRh4XCH3xwRCuo5fCQlvg4APQKfCJyY/xy+Nalr9BK6gIv+wUam+YghYicTqQCoY0sTnbA+mzU3Hs7IOrECW82gPdTkwvKHIv/VG7oedLjOmmqc4nO+P+Ulvtfo4T6a1HtnDauARG1XhPKpAB5EqQTxpeJcnUZ8h1hMZjN8e2ZvCmTAWxW95+E99Z/SsvS/lzb4+w+11kIv3fpn4RPTX2h9fqecWwOfFn7AxgtJzzK3s7vGyCtY0SFao4boFzuZ9ZJG2Cs7K+HO9sPwjqtpPoB3Mj71NSN8I+vfJMm/kIy8W3Ca7xlTtMQVQ6k8ad9Blr6zIi02YceeQyCPKcJHw88ZQwpBv4lIZZPDQzSkYGpcGXsc+HgaCcs792ha1z8Cika1wBcQNwbqcs7YXLlleoW0TLYTSZbTYdpE4MgjVV5QOTiB4h6rn1cz+8cboW54av80Zu9xOH0wPsIhwdGwqsTnwnbR1thafcRPw+Q5It3sm6A1Vl/2nOQDnboqY3C26iOIspa94PygOimtlGHhVIPqB3el4fn8uY60/xZez9yOkATfW4Y43SeLsc2w9rBVjg80qf/pF2Ls8brJpD4TdZ1nxmRsj0g+oLjYlBA5vjox/u/OjYVvjH/UuQNfZn0gAzSiXBp5DM0OPfD9uFy2DvapiAQrgu6yQKCc0HHcpEUgsicbmWgNW6drEaTRCUyk6cxVHxX2sfDOjh7zA9fkWvxPrxEFAdTfEf86ugNOqiOhq2DjbB7tCs3DSs7WVHkq9Ch+JP9oLS08f5reRCkdmYDoJzzZNrYAlHW6AndpqU9ztD4jvz44GhfcoqJP9UZ5wPJDvnfONgJ+3SAkdeap+2Dpn229nPdvM9lDkobca5tWF3OpxTI/Be5FP6ZT3oAg7RDZ6erdMafGrzK3zvfOVyjCYHrMgqkyaAElia0khRCmai2pACpLLdlu2ygio7KSpuCFu0DONsfhR06yE0NzYXZ4Ys0WDuxrnfgDvTl0es0UC/y2X59fzX+nnseYxl/VSfLAajpAVK2fpZ1msfSrs77nKWXFO30kBQ39rfoIDoSLo5ccHffewMOztM08a+OXQiTQ6Nhjw7Y6/t47yHO+ta+xAxAJvJk37fkINFp7FIeSuW+qY+tY/03+1L9GX91bJom/fXIGfo66QXn6Gja4ddrXRv/Qhg+P0HXZUs0+deb+rwTqcyodYI27qmXAT4BtqWJE8p2nCDbUl8+aSJL2xda+lY/gb9nj5dmzg9fDpOdGRpc/foKMnI6SJcO85TTV8Ps0IWwvL/MZ36NJY29ngOWPyUHqUx1FMR3kQflRaaQuty36EhdKhMe37Nf2d+gnE7TxJ/ry9keOE9+xulgcn18Ibw8fimMDwyHlb0tOnDvcTxlnIgdoHKTQ+0PoDKr03KqQyD73H/Nj+kAmYyDyWS8aUznwrXnN+kFeCkEPr+fGX6Jlmevh875MbqOekTX/P7xSg1aIUGbTHkgl5W8IZVxEpokCdKE5rwmUsqyk6MLLyckeoStww0aUIM88UcG+vtbAXIJNRwu0Bn/+vgNfphndW+VBuqOakQKpHGBpmfYMgesE6lAeYBkMQ8C0wEsDwDKmS2BdZIYch3VA0wH78/D3QxM+qmhiSjvHViZYrmPs/3l0blwmfxjxbZC1/v4BEG1gCYml4N834NW+8yIlCc8kNsCKOe8AnZlXe7f89d4ef8cJz0g16TDfHf/6vjnwo2Jr9DA+4CWUouUVH3VVBo0aJoUQmuinE4sV5PAxqYrOjkPVGi0rbVftoX3tx+F5b3FMNtZCBdG8Llwf5akCh6odJ07RSuJ62Mvhzem36Sz1ERY2l1s3jpT689pJryBys6+7HemS5v4ApxOIxQdg5bLGGAH2ebBNl/XXxqd53fb9xNyWToUFkamw+uTV8JVamPnEG/y0SW/aElwElueA4lV0aLTjGMgt0t185wmfDzwlDEAJmub9OdoEloczxi4VYK7+lsHy+G99e+Ft1f/mibIPV4S8w9I0HWqvBgx7WCelHqSgFxGlCtUHmUFDwhN+Ca5QJsekO0UKmPS/4dX/4vw6tTn6GzSr2V+Cb4BRbtw82A9vLvxTvjJ8j+Eu1u36Zp/n28uYtDKHWqLP+0PgLLKgbTMGwm6yQO21DbqsNB0kzw3ekCuIzwm5nxnNvzRlV8PX5l7k1Y8/btnkgM/sYXPDh5tr4a/f/JO+PnqnfBkb4NyekiXcMhrVGxibekzI9JiogJ+X2g9kOs4/pgJ7/MFfJ0m/H/96W9GzvBcJ70H0io3pRbD/a1fhAfbb9E11aOwTYMXBwC8aRZLLfy4hE+oT4DI5b4rbvrggIKBjlUEd4sV2pOSJ65IZOWAA/gYIKvpgL4x+YXwe5f/k3Bl9KU+Xt+3Qw8A6/vr4R5N/FubN8ODnQf8aukDHATooHqI4SwBNyj7g1yKLzz/fkiDnSlyGnWA3M7kgNNp2nMyhtE0h4Db13E/4OD52sT18AdXvh4+NXmD7+w/S6BN5ACT/cH2cri5uRjubC2FhztrYZcm/z7GGiUTecG/sj+A9sH3G8j7LLTMqYLK0Yf5zh+zMX3ofXHmcvgXr305Sgwf2qT3kIQheYeUzI2wub8ado/oyHq4TTLcpa4Dcv48l3TwScHu0VbYoYPG1uE6Px6LN9biG3B4iSU+R/c/pGDJNSrtOJ4FqV7XO44q8G3EL8/9VvjGhT+ka/xLfNf4eUFyKvnZoTziQLBFS2TkCWd+rRdYnyDn1QHtC6wW8GrqbbLHc/BbROVV1ZvM87U26Ym99h1I8yDQNip5jtQAWeSzAy9+uurLc58J37r8FboOn6dh/5xzSv/xTcD1gz0aW3hB6h7fbCwnvkL7IaQO60O7Wu43h9Wrj9nOKF2u4OfoUnwkJn2/QUOWDhg7NNg3eNJvHODdaw/D45074eH2zfBk9z5fUljH/cCijRjjjeYTHpv3AdhAFx5vw8HE//WFPwyzwwsk9T4+PsAwwT0DHDg2adLjHfVPdlfC/e0HdPa7x2+8weBvywNg+QNVPcDLU9sy5/iG52j42txnw29f+lK4ODJLUq9zhqfhhZz0JbBMPaBVBM5Qa3QAeBBubvw8vLv+Iyo/olqkAANHB1sceAyhtcFX1YmD1XCOf9Timwt/EL44+5tUxjvZff3HE7wioGUvzvw4COBZ+XfW3w9vrb0blnbwnrt0WOW5AhWNNFeNXuulFYCP20bD7178Mn+RZnponKVn6A6fkEmfAvcTsMxd318J9zbfocH6w3B76+2wQZcVSEeakPJsUx+MRBtDJyPgo7bpoQvhW5f+aXhz+kthhAbsiwZcRuCeAZb+tzfvhx+vvBXeW7/Fz87z/QHWspylPND9hBcgpxPhH1/9Zvja/Jth9Bne2HvR8Imc9DkwJJd3H4ZfrH4vvLX692GJl/+78QCQDzzlASfjLLbpCD98fpSWpP+Ylvsvzhn/OODHK360/IvwvaUfh4c7T/geQe0AANiE13JLfUNFhgdsfnfhS+E3FvBG4Ul+6OYMx+OZfk7/cQEm3+jgRLg+/qlwYxxnjXFeCezTNax8XVYHHpAOPh6MbsIbBVBWPXxl9DDc3boZBs8NhZnheToI4GeVvf6LBXysdn3sSvj01Kt0Vp6klcAhP/EmD7743MQcPHXCA2kd31mnA8oerTJmOhNhbHD4ud4w/TjibNI7YPKP0eTHj09cHn2ZBw9+X01u+mHaVgajHAkIkOmyFDBdkQmPu933d27TGe+Qz/ajA2PP5eO8Dws4qOHZ+Wvjl8O1UXkl9dbhTtilyY+zftSiPOry3vIGtE14n1NM+Me7+I7HEb/z/mziH4+zSV8BBgxuvl0ZpTNUZ56/SIPHa+WVWG4w8sgDrwNWITKRKy8UPM7497fv0CXFEv9G/SRt6XfmXzwgp1N0Jn5p4mq4SKuc3cODsLq/SQdBOutTUo6f8FaXyoTi+wR7dMZ/tLsSFndWeMk/NTQWBs+/uAfTXnA26VuAM9TQwDAtwy+Ey/w++iG6RsXXhXHWpwHXTHhPAZSFTyd8OrDxzMDa/iqdoR7xN/ImB6eovQ7Vmv6LCDxQM9uZotXUxTCCL7nsrodtutaXXAF57nw+tGxUFgvC4/JheXcj3N1+QrlEOxOhQ+29yJdQp8HZpH8KcAaeGJwOV8de5c/cV/afhN2DLRqUGG0ymKpnn0gVfsIz6OyEs9z6wVp4b/2XYedwNyzQ8hcPnzyPnwP/MCErqTFaSV2gldQkHUy3eNNHp9LcteU0nfACyilprR9sh5sbeLpzj/xP0CWULPe95icZZ3fvTwDc1Luz+U7428V/G97feIuWqNvNQJXBJ8OqNmjtwECgCQ+5JV7qXhp/Nfz+5T/mL9LgrTmfhOtSXIe/u34n/PXDH4RfEd2ig1+aP6BtwgNOFqngHOfv2th8+NbFL4TPzdzgZT++VfdJx9mZ/gTg69KhWX6kFg/74CyN7wn4wVYfsI7nCe8PAlYHf7c3b/IKAG/F7dBZn89QL/DyFB+xzQ5P8rfncGMPr7HCc+2G00148FiNre5vh3s7y3yXv0NL/pGBIX6G/5O85D+b9CcElt7jdP2NF1rgF2sxUfHRHgZYfcILZRwz4SGDLp5zv7N1KzzZk1/ExSub8cosDFLenM2LAvRpamicH6nFxF/Zw2vB5Do/z2n9rT9CBcoDkJ0LWwe74ebm47C4s8YHVNzgw6cIWPC/qDk9DmfL+1MD32ZbDT988jfhB0++HZ7sPk4GWzIQmYHMDy4pm17OB34v3sLI5fAyLfuxXaLyOE0O3Ph7UZf+q3ub4UfLvwzfXfp5uLf1mN9fJ6D8NQmWfDVszJfJjAcaGR0wxgY7tKqYDS+PLYTXJi/TJdU8HXBG+YbfJ2XpfzbpewSe5f+7pb+kif83YW1vmQdYOvAINNjqgzHlgVJ2jp/kGxsco8E5QwP1tfDpqc+Guc4cX/frjze8KMB6aYOW5D9beT/81eKPwu2tRzzZZZRanlDOc1rPMUDlZoUAyEszJgdHw2xnPLw6eSl8YfoGHQym6EDboZzyGiDqvng4m/R9wNr+SvjbxT+nM9Tf0dl/LQ60iJYJD2p6IqtNeD/YcWmBp/nwmqxX6cz/uZnPh8tjeC3XSBgi+QAtW/FVUx6w0cXHdfDiM/zvLP40/A1ty7TcT98B0N2EBzinLod5jrG8x+XT2MBw+BRN/s/PXA83xi9QjocppwNUN9CsANiCLwc+3uh60uPBFL1q/ehBdwTRD+EaDXnBUv/bj/5N+PHy9/ktNpwrPruUk9tkwvtyosMVdRsAPzSCFQDel3eDtosjF+nsNSk3AemMhddK4WDANwNhZ6aEhClgrX44OQXwoM1fP/px+Pult+nAWnmdeqT1/MUJ7s7w1YNqLHkZ3pl3lS4BbozNh5cnLoS54XFabQ1RPgf4ZiAOBgPnkX27HCjzW4eoSDYlr88fXU/6B9tvB7zHXodoihh6soQytDfgk+7QCI9LCdXRfxnQOBoP0LKsE0ZoKTxM18Lncebju7TPZ6mGN/zgKbtvL/7b8Mu1n4adA3lZZftAs5iqOqxkOmKX8kBuO0GTfn54Pkx3ZugSYDZMdab4s3+8q2+Alq3NSqCxy8AD8TzljrPKZ8FhOuuNYTUBH5TP5iDyHHB7azH85YMfhh+tvMc35NLc5bm0mJq8xDHZvh+AFh2yxcScHBqhXE7Q5J8IM52xME2XBRND+HRlkFdXkis6ALCZ+kiBfCF3OFh0zg2GkcHBMD6IAzPuJcBe2noe6HrS/9+3/7uwvHuX764aJMg8wXnHLZlAWk53mqB2hxYodClJePMsnpaTCT9OO2iGBvoFuv7FDZp5fpx2ZGCMBuww6T3bxzLxSqpfrv2cJv6fh3tbNwPeTS+wfjx1oBHsNdWK7iZ8mh+iJIAOJjreoosXauKXcfkmYDPAzFYmMk95uowY5JUCnprDgQO/NDM7PBWmh6Zp8E+HUTqw4roYd8GfJTDefrV+N/yb+z+g3N4N+/woNNDLhC9lhU5jC1id8pDgUwAcCPUSAJmTekJTIPCkRk7xhmi6PKNtqjMcFuggsjAyHmZpZTE7PErjdZgO0IN8T+FZoutJ/7/86r8Jj3beo76oepZ0ZsrBmehEWpcRjT4EuW3UcXypQ5R2Fg4C+JUZTPjpoYVwdfy1cHXsdRq4ePQTz2T3922qHruHO+GnKz+g69G/oOXpQxq0cvfZ4pRYazkATc/wZQ5KmfIAZLSRINcB8n2DLbWNOiw0XchwwByls/3UEFYSs+Ha2CVa+l4LF0fnwzjfUBxyFv0FHuD56fL74d88+EG4ufmIDwT1/gGIP41dYDTtc5kD2Kf+cz9SrscQea4U3dy/2uFgPDGEG4ojlNOx8PL4bPjM1IVwZXRSVgEDOP/3H11/Tv/jJ39C16rLkdPO+ZDyRJXJNZgOwL6aJAlq/nNa+I8CPNe+S5cieEnGk72H4eH2rXB3692wsrdIZ7kBXv7jhtizWE7hbvo0Lau3D7bC451HdEnkH97x7WnZqB1+RXaqHGc+lDaDkSG6qW3UYaHpqh3E+DYbXoqxuLsc7m4/Crc279OB7QlPQlzzDtEZ7Fl8lIgHeHCdjQdsHu2sBvzclcVo8XG5OuEBlFv6zIi0MuGt3EYB2JU2uX/zLe3sUp/WDvbC4108n7EW3l5foksa3Az+gE5QWEXgUqu/Oe160v+IJv3WAX6VFaFK0A2KRLm6TFYkGZSNlVcd41EW/4Cvc+W4s71/lJE8vBADB4BHO3fDg+2b/PgsfogCT7xhySuLtf4BZ70ZmvgPt+/RgWaZDkEafRmj0u4nPFDWMYocAJIHA8q5r2iTxVCjUMGGSxc8L/9g+3F4d+NOeLK7SqurUX7OnS+jaKKqVT+Aa98xurZGm/garSzzfQtU5vhF1nWfGZGSQiEjKnapPPef8JWxaMhlqouD6iEdVPfDw51NmvxPwv2tDTqQDtBKAB8j4rLM+zk9TnCm/1M+06cJIFQmvPAAZLJ1kzhAZCZPEydb4b8ag5YBqcdSG3fW7229Fx7t3uOzfuc8nfVxrcvXZN7m9ICfscFxPqA83l2kNje5/VoOOLamQ5Bp7D4Wb6M6iiir5ED0lAdUppC69B5KlEWqvNkpD5zj7x7gu/EPtpfCzY37/IptuelH16aU336upvAZOu4zLO2u809Q6cGUY+U+SFtd9bnRiZQVRLeREU37XM9B0l7MZZk/lelW0yFf1ABWTjuHeO/CRvjlOh4hppwODtFqKt476DGnJ1reb/Dy3jVYnWyKskOecocbZSdr9HxSAKkr/FdjSO3yeiz/V/ZwJL3FvymPO/xY8uNmXz8H6cTgVNg73I2/PoM7zxaD0vwML9THIGVvW8uBILWr5c8gZWlf5VGW8aBpDoHUP/xsHuzQZdRiWNpb5YMoXmaBSdqvMxR84l14O0f7/Egtlvl5rLU+5/kq+hdzkPax5FMKpDmw/QCgbHx7nEZrY2Hr8CDc3Fyjs/8WS3DWHx7ASUp1To4TLO9xpsfyPqIy2YymsrLD+KN6XkfKQGrj61z52AkverUYWYcq8N34xZ37PCn5K7RDkzRI+/ftNtwBHx+cCMt0gFmmZb69I15gd+lV5uMHpJz2SRHLcaA9PV/C+3yIjZRzPU/LHGZltx+w7F+ipT7eiYc34k7Qkr+fb7LB3W/cLcfZfmlvg2/ytecgl5W8jkPrY84bzf0nOjEGkUu9QHkp1ymZxzhqOujj4s42T/4j4ieGOpTT0z82fMJJT2d67mmtY0IFUteauKaDQO4r6iSyzFexo4RacoHj2ldedDZoyf+EJj5WABND07SMxOf8vQ9SrBrwqCyWvA/p4LJ9iO/hc43byYDGrjyQy7Q/AMlacgDkeTA9wOmwUOpLHS9D2WgTV7Qv4/yAcrrD767DD2LM0MF0fKg/OQVwEDmgJe+D7RUak/LZvfXZx+FlOU+gHFr/RJbbYOsmB6JX0wGkHihiIJqPBZY1ZaGww5L/7tY63/ibHhoOMx18VVh1uscJ94IPSFEGaEhl3OEmSYLU1idFkbXHCcrtJCmGekzWvkL08GDNyt7j8A9L3wnfX/r3fOa3jyZ7Ax7euDb2Urg8ejUMncNrmqlNdm3xprECWZ8THn1IdT3N81DYEsr9kOuoHqA6gnqeFWoHOZ5S3Ao/Wn4n/PXiD/nLM3hNWD+A+wVvTF0ON8YXuGwxGS37rIg6yYRXeD81uaDMcem/aI9QjZMVTQdI47K+yMF0P/xweTH824e3w/t05s9/X6AbnGzSk/88oJQa8g4yz8amKzo5D9QobbF/eQxmB+Q7U6i1D6hMQdf5NPHxDP2Pl/8u/PjJd8Mqf3nGNE4L3NSb7cyFq6PX6Xp0nBpF2xpbjMvxKNfiF/iy2gJC8zxg830E0jzkMPs0BiDLczFphOYx4Tr/JyvvhW8/+nG4TxOf34nXB8wPT4VXJy7xl2YE1m61z4xIm9g98v4I8pzmOWDSyFLdFLkO+eIGU5taTg1Sv3lwQDldCv/u4R0682+ceOKfaNJL51zQ9DftcE0WeY5L5bmv0sZ8KURfeK9jPrzc07R9J2OoTHzj7bf/sPy3/JVZHAT6MfHx6cDVsev8MZ69+VZj1zgAH5NQtG59pi0O2DxfZR5ET+B0WCj1AGSJ/4RXQOb41gmvMDlkWOr/aOXd8N2lX9BlFF2XnuLslAMtvDJxkX9e2j510bgAjcnqGHGiCm9l649s4POc5jlg0sisTmS6CW/+hZYpKHWA0pds6/v74e+WHoY/u3+Lrvf1srE7dD3p7WMdIA/QQ2UaJFFWNl3riEB4wKh1IspIkLYJHfOh8tyXte+R6gDeN74u+9OV78sz9If4vkHvWBi5SGeni7Qc9b/EYu0n8TLqORCYDlDmIeejTpaHPFeAz4Mgy/OxEx5lk3s9nPHfWr0dfr56K2xROQvlVFigs/2V0dkwPIAnLMt8Ff1rJqpH3h+F58scCHLq2xSUOSbaBGCyNAalCuHzOLdoqf8DWur/7eOHlF//tqHjcapr+hIalNYpr3/MRnSMt3KNttelyZVy2T7RLhKcJxOf/+LNNb9a+1l4tH0v3nXvDbiLf43O9vj8Hh8R1uNXlHWmk/KlruoBWiZayUNO8zwU5dYJD6obUMkpCRZ3Vul69J1wa+tRX3KKj65epbM9vgxj8DEBkSYT3urKPntbQHUi3ITPbdv3jenAKI+hTtWf8ImNi2Flby985/F9Okkt8ef53eAEk94HA2hA0vl6h7UMQK8mEyqo+MJAI6GXiY1C5Hn7zLMieJPV2vO8yPDR0z6/turd9fgbd1HztMCd61cnXw9zwxco6f7FFxKDxK/tx9BVVskBYP0BarbRhgVSD5id8GrneZHJxpW0cZk3QKjJjC98x0GKj57ubC2Gn63cDOt78rlzr3h5YoFffikvE5E4JCYgUo49jb8aZ9yUVxmX2YHU5bap77oOKPJgMtnMFvC2qiP+uYz2sxiwPdzZCX+9+ICv70X3eJxo0qcdkcYFWnYBaUSNDDCb1JdQ4SO4g7mdxJDbiAwQynzirNRRW+PFxPSwzF8P76z/ItzZvBn2D3ej9PSYG54L1+lsj++6C47LAcliDgQWF+DjlLrMlpDvA6CbPAC5f/MNSF0qAyq+GyWR4YGat9buhF+s3ebP9HsFvvaKiY9XXgEWU4yBBNIXjQmw+OpUUObYy5QHUDbdao6zPABmKxR8q/842YFcZ5+c39xcD99ffkxj9unL/O6v6SO1IAEEmgbAPCuDd7JYBnKblNIWG2s6HGlqJ0ny9YC1D6heqiMyoQLVUZ5AScad5nvbd2iQ/pSX+/qNudMCz6S/PvkGL/FrMRio3PQh9okBmvdHZQqpSz/7BTxvtIzB+yeQn1qcli+T53oy0FOdI/L3cGeFlvnvUm6fRPnpgY/sXh6/EOaHJ/mySRDb49i1bUBiae8PoDrKEziXuY5Sp8codWp5KHIVqUBoI5MCoxYDboyu7u+FH688CW+vrz71RukJr+kBNCZBmmsNUgPUgDTInAeMiq/Ix8Eqvr1OapfXA2n7sokekMtQFpryhBgDNvz8Mn6M4tbGewHfmOsVuK6fGZqJd/HTGJo4XA7Kfqe86glqOrIl/p1MykbNlsCTBmjTMZrr2UBXqI48W35rczH8fOVW/Mbc6YFvTMwPT4RLI9P8Tb+mzThRhdetnoOkz4Q8B0wamdHUl+iYTGh7HkynRhudY8aCykH3jz6gg+hW+NnaMn9p5ziccNJrY0AaAAeUdVCCzHnAqASdoulwpGYnyOsBa1/hfZt96TtDs5MV58La/hotn97lj/B6BV5mcXn0iruLX49TYHECeR5SfaeTdKq7PACJ/1NPeNJhgfGlzrmwSZP93c2H4d7WEtVJ7WmBu/eXR2fC+OCwCIp9KMjjFORxOj768XErLX1XdFhJeaDMA5DbHh+n0dzX9uFhuLmxwZPfvtlZ4hRn+pYg+Y/KVSfngRqN5cpAMzvgmKQ1fVSZwnRL34ooawaL6QAYlPgRigd9upOPsz1eZmmxAMfHUOqqHqBlolkeDMrnecgBH8fkmWE091W7rMh9gT+Mj9G+T2f8neTHLU4OvG1mYQQvnhgh79JOrU3PA9YfQHUi4n4obdU3kPpLdFjJ+DbdcqwBUdY6FjI9ouBxtn+4sx3e21gPu3QAaMMJJj0cy6Y8wHyyo1VHeQ0613GdgT1tZUe0DJT1gLSvvJMxVJbbRpOmnsDt+zaFigzvY1/hib+xv87yXnBp9HLAT1SncdEWc9AWg0B0RU/5aMMCqQfMTmWeVwqZbFxJG5d5A4SazOS5r/RZDqCi4yhedX1r81FY2l1j6WmBL57MDOEV4Xi+f8DF2p4D0QFUFuu50mRmG6tUr5GlOmyX5EF0yzZrPEBl2EcfNRuRmdy3v7a/H361thaWd/XlLSVOdab3AYhnDSCyCW9lgQapUF+A6mrHFCb31Nr3yHXLmKTseEpwe0yAfB333tbtsLy3FGWnx8TgOA1Q/Dy1XtfT1jSmcWkMygOi6+MC6vtBy2IDiJ3pALl/8w0In+oAqqdy4htDJ4tUUPrGizDwJhx8TbbXm6T4yi1eO5W+s8/atjLgy2UOAIvV8yibbprjSIs8eFujuW2j4w4YpU7Kgya+idk7xAtat3hrezy360kvDeoWefYZGySYjqAWpNFYJh9J4ETNDpBy7svaB6yu9CXUkPlvkpxTwJcD38Ff2n3Mn+H3AnymPDs8RzS+qy/2o9rHBihrfwCnY8IItTP7bvKQ6pS80kKvaf8YnVgSmchxQ299f4e/Jpv+ft3JgVdLTQzh5R3+MWehHnlO8xwwaWSpbopchyg1WO93qpvmwtlYBSG3SXnQ1Lfo4NC5vL9Hl00b/E3EGk60vDdQmVtMGyx0MgoT6xfJqwOt9JF3mPmmfZOVvoQaMv/H7GSRyQY/4HcP98LiNh553IDKqYEHdWY7s/yePs1BHkMSJ5e1P4DTYaHUA5Cl/c55ADLHfwgTHkAMuHv/mCb9Zo/PQeDpPDnTY0jXY8hzmueAibNRiEw34Qv/JKi16Xmg9AVQmdtXWWpbxpT7Jp0YP2SbB4fh9tYmfxW3hhMv7y0gg3VEUOp4PuqRIA0cOuZDbfIOM586L3TU1njRScy62skKKeMm3mM60/c66bGsn+lMu6Wob8vHBNRj4Z18ijyIzPHkJ9UpeaW5r14nPLBHA3N1b4tyiu/Fm/ZJgXfI4Xfq8C69tK2cAojL8c2EURif7gvPG+0mDymET3UEXbUXKYMYP+EB3NBbomv6pd36gfREZ3oOAC1yq9KABKWNKq/wda5cHWhaBupJa9pnOBnDaGpb0YlJKm29TOB1cN2JN+Cs7+Nnlk5/DYoz/eTQJC/v0/ZQrvO+TzbIANXPaWojyMpdTnjEmPvKB1rNVngAMpFD1vSZfOABqPV9vLl4m8unBT6vx8s18B69/FVSeY4tLkLTD9XLeaCNkk7j7Hhd67fxjU51PCJOzwtN7XIbodBZPzjgj+5qONmZnoOzzXcCMN426ywKRGmzwFUn1je8lo2yDleIjuh5HZUpLzSNiRDbT22F97p1nUBLpp2wQZMev09/WuBjJfyIROd8h0qyHJU2pV3lRSbtCq8xpVvdTsuA16NydJrrGJ/KcyoTPtXxMaa86TWyOA4AtLlF1/P42aq2a9Buget6fGavOW36ywBVHu0Tif0wPWwSk/FeBgjPdkkeZGO3XAbET+kLoHLMQ24D1PikfbZDWbdUZ4sm/eKO/MpSjq4nvTgzJAEQLEiFBhDBCfJ2FqggrzfKOokz71t1S9uUJ8QEe506Bco6HNWxxN8+3Oz5Zh7eyYefm9JXSB2fP6mzPLiYYklkqgeYDpD693YAeF+vUD3zJWe2mi+nE6kg1fUNa5t4n/7WwV5PZ3qgQ5dL+L05e7mpb7vMAWDhKF/alrJaHtSX04klgcgbnTgfBGYjdp6vtN+MY49UZ5cOoKstz+F3f6Z3rUgQ2kglqITSFm2bDsd6sxNYvVHWadqGzHfYdHPblCc0SS6p+RPU+qM7Gcv63cNdGqC9fVkEv24yREtRDNA0Dyj7mKQuzQOQ2wiKfhMS/5UDX9m+0EKPBalu6UuowHQtfpFZm+f4fe94QKfXj+3wHP4QHUyxksr7lOeASSPzujlyndPnoZFJgZHGoHZAatvQZMJbXd7eHl3X44ZeDd1Pegacw7E6ryVOAmgC4yC9neiZHVAGDbAOV4BXmUJlua3qGN++k72tlKs6rCQ8Pmbao7P8IQ3UXoAzPJb36S6wOATSZlseRE9lZR5E5vhkwnsbhermvohngfNV04klgenmOc15nOF36Wx/3KOj3QA/DIEbeulrzBGX44+Z8CLTTfjT5KFGGx1uX2Vex+fP5InvZv8BLTqR4v0F+PZdDSeY9HAOh+o8D1poHlQtILMD6kGzThZz2V7uH/BlwrE7OUeuQ7GxktlgYGJpjzfc9gJ8Iww/fogbUFESN4WUe8mD6RGKCZ/bGM19lWOn3GemApmz1fIx+wHX8gd0EO3yZxVbgY/r8Mu86euzrB2Nwdq2ukSPUMZJtIs8pBA+1RHk/tP8VWhXE14A35CbfoquJ33uoJqUhkrZbnQAUdbwQFqX6DQNOhnDaNnhTHbMQMtlVR12ZjzKGJhYhvY6QOFVf/5JOGnHx1/LQ40mfWakZewH6Z9uaTue5r5Oe5ceaHL6lP2AAylesGF+TgesnuQeCfz7uAiuH0Ufm3IbJZBRateua7nObFry0NZ+I2/aBkwnjQeAzPN1nOhMb7CGlSKAprPoHHfQ6oE0oFzmeO4N+JqObO0djjJq32IChCZxNrJUB9QGOyC+1a4fL8uUtmyTuABpl9tigeqIzHRk8zYmkw2V6YFLaO5DUPrqfsKD1038S/txUz5BjJGgx89ITg14sy/cCMdOOQZpz+KNVarXyCp9JHuTyWa2gLdVHfHP5ZiH0kb1AaOpnpZ1A0TH8yJTHvD6KU4w6a3xvEHhIyKTBpDzUjaZ4xNnpQ6Qtg9kHU52kqeAL9f8k20Tg8jK9voJnz9tjygLrc3u8uD0qFLKqV29L2W+8hxUdWJJkPl3lRY7gHLeZ1/fO8r2fDieT9suc0y0MfR6QKqb2zY6fMDReq+T50Bo6pvsor2h3A9ALcdtOPGZ3gKVhpLOFUczALKc9zpCmW+c13VUbrzoJP6bJOU09dfq38UAiI7WK3K+H4jtSWAJqnFGanB54P2AcmqX2qgs91XmgGWRCpQHIFM5QGWuFJnFDohuaitI9U4P802IY6HWXlr27RtFHsTWySIVCJ/7Z/6Y+WB+ALXJfBOTr7QKHSc3QMf7L3GiM700Ips0pBtQC0j1AOW1bJR1uEJ0bAOMz20thohmJ5uO0lq8OZXBbnqF/6rs9IAv36c0RtlEBniZ8kqdXhxoab33DbTTNAdA6c94r1fmvT12wHRMr49IxoJugLZnsjROod3kwajppbkBPJUtz0FBeR+mslqMgMkBZ4dGmoNGiq4nvQUKZM6OHWiA8kBFJ3FeS0ppm5gAyU4G2nVLHZKxkvECz+d1/YL4PW0egKY/T90PgNWluqTHglQ391fzD/gYmFR1FLlOH4H2YwxlnD6ngjJO0ukiD0Bu2+icIAegie9mHwK5vfkB0vyhHHl2kOp6dD3p5QYJAnJBxgQnQUeaBqR8RacJ0PsGVL/0bzxtYDgG2QRCzZ/osmqmw3LeSY6Pm8HLQMVr75A22C+7FP/ShiKXoSy0iYk7FsuuHhAZYHViB1hdngOWNWWhdf+xDdizj8gzjOZx5Hy/IJ7Ev48/5U0mMJpOeNEt85DaNnzMQV6vNJUJn/iOtlovyHRiXe5LZAT+4/gKup/0/FGIgpw2OxiQslILCMgbdzpNgJ4CKKseYHU5j3Krf0aqm9N8J9f9G496TPpeJz4OovwZPQ8UkSjMM2QiT+NKYxLew9sAqW5Oa6ucsj0PkTc6cSwAZd69rbcDnB2EaSMnBnLKD+Y0bo9prykbLSe82jqdSAWOr9iWeoDKFJFPJryibA9I9z0Q9VwMpS9D15N+4Jx+I8wcPT2gY4KWigbGmn0eeN5+mShXl8HiMpoP9rw91oklgfB4Kq/nSU+D0/+unSKNU8ppXFlMLTlIZYpSt5zwFZ1YEqS6vrKa41hSWaFD8ePpMclpb8DPNss37HTzeYjtEWpx1ho32zpt6rmQ1yvKHJgs8s0+9Mh0IrXYAZRL/6lOia4n/cgAfo5JGmkfaL4x6ER9htNhY6szO5XV/OsWQTGkMquzdsVP6l9oflRPYwXKGNgXGeKx0V4fzsFDJPxEnltBlXmADEhjaPinTnjdgEp/ROBQ0YnUNgHH2uyDyCdQWyDXiZTtZcIf0NbrtMcjuHhHgX5WL0DZ+CIGoshDe7+NetumngtWL3IAsjIHJot8sg9bdCJNcyz6jf+Yy7J/Jbqe9ONDM/SXHDWtpM7LgDycDttbfRqk6gGmAyT+mw4qrE70vK2Wjdbn61NsYql5DLfHL4dgcI4NjtAOkF3w9DxkAyEZLEZTmaLUtRw4WaQC5RXmM9kXhJRH2dtKXdo/gtuH2PDb9fwoLktPB7w9B1+v1bN9PhaKGKDTNOhkkQqEmq/j6hVeDzDdxJYY01Gcwv8JJjzQ9aSfGponV7UBWguoRafoYaoDpB0GfPIIx3QwjaNFp3FmdamdlL2ttY+laPzCTY+vwsZZaXxwjJf47X3J5ZF2NeGNpvK2HAgVpH02uctLsR8AlSlynUijgm9znyY8vnTTywoKz96PN2/PSVHmmGjTlMl8TEp9REl9zIHpA7lNrmO6tZjS9gVljt3+afaDItct0fWkXxi+Ri78r61qY2kj4Ks6HBV400k7WONlYxkqebCrDBDKVarH9coDRtOHHXJfQGkrMQEkQ/s0KPGuvL0evwqK5+4nBydCZ2CYPEs8gMSkEHkTExe0XvTNDhB9k5W69RwoL7TuS/zxIIs+mGeAypbLUp5AjqRNqRfRubBzeBC2Kae9LvFnOqM88eXGs/kXGMWxJe+n8ULBW5yunius3uxUDxQw3nxxIe4H3XI/Stt98Z9kP+gWq1Svgq4n/dzIlTA6oD8J7BsDpMG0EafDFV5XIXbYxNZ0Uh44xn+zKbRsVE4gptfu39nEEsuaBOOstM9v0OlliY+JPjE0ThN/nM/20h7a8JvvH1DGCJw2BwanE6lAaCOLOQCkTcCo6AHeDog6PFFQ9rZSxttzNvZ3eSXVCxaG8XpxXDaJ32qc3IS2rXqA04lUt4ZvbOtU9ACR5XwtB7UYAZMLGt7FkNuab91KdD3pxwcnw/zwVXLTtsQHchlR6zWhTAqQ26Y8gRMFmE5KDXlcoLaTBZYYRelfeIBkbrCDx/J+myd9b0v8CVreT3cm+axf65/1hdCSg0SnQaU/LPC6bX023kBlqWRUcxxLKit0mvgVqgfg9U77YR2TPtM6KRZGxsNsZ4xyWq5KQcs8WAwCnweRNbyz7U8OPFJdswVgpz7wJ9dRvjt0PemHzg+H6+OfDufpWrRsDLQiawKUoNOkqFx5oSlP4AmnG1DTlXIeF8tZyduIvkF5r6MgWZzw3v/u0V7YPNzs6T15wCSd6Wc7MzzprX2B9YXw1AkPauVct5cJz200+yBvU6jYAi06MYfCaxl6gMjwuqy1/Z2ez/Rjg0Ph6ugkvxlXYG13lweJR2VNfbQFOW0OrC3TMZlRswU0JkKMIZE1FJC6VFai60mPd7RfG3/dLfEF1llAGuOAmgA9BVBWPcB0Up7gJpzgGF1Xp7R2VK/ZeP9JW0n7aifvv9/Y3+r5PXn4yO7K6AJN/ol4xxnwMRCSwWI0HRiKUrfnCe9QDjS1BURW6BT7EMjbDGHn6CCs0qTfpWv7XoDLplcmZuna3v9W4EnyAPiYrb6N5nYFbfahR103zTnKkWcHqqMw3XI85Lyh60mPGyPzw5fDpZGXyR0clkkDuPGkh7WkqErOOzSDRXWM5rqlDslYyXixS3nA29biFJgOgI+W8BpsvCuv1xtP18YuUV7zs32krRPew+pS3bYcCBXU/QNNXlr3g4+jRSeZ8FZXaxMP6CzvbYWV/W3me8G1sSkapxN0UMXwpva4QW0PaOu36ST1sR/tekCLTrMPAatL2xeU4zPq8R+pq++HXFb3r+h60gPjg9N0FP1cGBoYjg2ljbGsCRAN5x1WufJCzRdtqOREqRwQylVcEl3hUx2W805yfNwMpa34BaJt3FllDPKml9X9NVqObvT8rjxM+FcnrtMKSs5M3B43rDHn7QMqV5nGb7p2lx4Q3UInUoFQbhpl2EcfEgdgNJXlPCHJn8hQtjZlM50QlnY3w+Od3n5IBMDd+89OX+QftZQJr7A2pSxU4vK8UC64HNTstKwbm6g85sDqgdKPyFJeZAT+U9MRiEy3WpwlTjTp8eMM18Zfo+vQS+RSnVpj0loqF6CseoCvA1Jd0VHkdqluTtOdXGsvT4pvDzLaSJDrAJb0EFb21mhb5YdKegF+1+7TU5RTmvz2dF6/cmB6eX/q/QOoHAc64PssyPOldkDUTQa7QsulP8Xy3nZY3KUDaY8PPsHjG5Nz4Tqd8eW37SCRdvJ+W/9Ex3IQKaGbHACJb2ISnpHnReipckwQO2+rZS8rcaJJj4m+MHKVlk+vhYHm54Ni4xYVoRaIqqR1SYeLwVL3A5id0Xyw15KShJnV8Zb5UJrESWUs75/sroQ9ur7vFZdG52iQ3ggdOqi25SCVKUrdcsJXdGJJ4H1S2VXmfU5tpa7YD6SQ+gfKGIDcPz6rf7SzyXfxe8V8Z5TO9gv88Z0ij6HsC0BlLpieAeXSzmSRJybtG9BdDkyPEA++ZXvd+s91BCea9MDwwFh4c/qrdLa/yDw3zq1JI+DB5gGUvGwNuIO6AVYnerKJ71yH5NIAQfXURuFtVMfHSRsxNf9JnFF3/+gg3N9+yMv8Xt/Xjsn+9flfCwvDc/Fsn7cPSLu+zuRCawe9QidS2wTcx2Yf1PvcuC90ImUF0W1kRGsx5P7BI4v3ttd46xWdgcHwuekL4Y2JWX40V9rzMXg+hg4+9kFjFDkg+ikvtLEFiDHfIjM/ZgOInkL0G//NhBe52ZSyxI5Bco6jjhNPepztr4+/Ed6Y+gINVjqKsmdr3JAHZHU5//QjmtNtykZry9la2ZLskxRlJEjjym0AlMUW272th3RmWup5iQ8sDM+Gb1z4fJik61BpUdsHfAwSUx5rfZUDOJ1YEqie1xW09VmgdqoTKSuUbQif6TYUgI7xuKa/s7nCP37RC+Dx4vB4+Mr85XBldIIf0RXkfekuRtMDTCexJaY9lynNcwyefeFPMuEB5QFvB2RxkS3GgslKnHjSA5jsX5j5jTA3fClKgKzxSNNAwWdBt3SwplvqkIwbAN9mJ+WabVOOMXgfQGqjm+JcWDvYpLP9o7B9UP/NsJMAZ/hfm3k9vD7xEt87AaR9H0ON1nOQU9sPXg+I5ep+UJmipkNg27IN443m/s03gfxsHuyH9zeXafLXf3zxJMCPX3xmap5WphfC+BB+407HhsagfYv8CXIAmtsWeSmowPQAlCPPDqWc+0rjNmoxyJbydZxq0gMXRq6E31j4R2FscIIDSpOSByA0CQhMTFStg16XVTMdlsfBJsh9AbkMZWma7WDPMZT+c76wJeCG053N+2Ftf535XjE1NBG+Ov/ZcHnkQnw0F0BbFpNvn2PKcsCypixU+uJ1pB8sjzkQWapjtlIueUKSP5EJD6jM6wCqF+u5Usr4VZa7W2vh7jZukvZ+Q2+Grum/OHMxXBudCgN8Uw+QtpoYY/u1GEXPy4RvbIFoq/VAoRPrWn3xn5pOrGJIPVDzbwd/pVpOcepJjx9g/NTUl8LXL/whP7gjsIaKgCI1qEyhdmZjyGV5B/P2gNK/8aQXB7rA/AIWgyKzJbAOCR9sL4bl3dWer+sBPDr6ysRVyulnw0xnglrwuyeNkWPioNJYJU6nE0sCkTc6Lgdl3mt9VkSdZLArvJ+aXJDmWMrwhS804SGdezTx+3FDDw89vTw+Hb46dylcGB5lHrAcRMooad7nnK/loJZLIB9XDe9iKPwzUM75jJrhU3HqSQ+MDIyGL839Vvj87DeoWT2KavsWZM6XicqpoToY2dh0RcfbtvkHfLn0n+4YlGs7nmiMYetwO9zcvMt38/sBfMf+C7Nv0LL0FcqvPUqa96ec8BWdSAWpbqxkVHMcSyordJp96JG3KchzmvDxwOP94y7+3e01/givH8Cjud+Yv0Lb5TAx2LEYuWDt5jTPQUFbclCjeQ7MB/7kOqab2gF5jomSIJeBF1mJniY9MD00G35z4T/giY8zftk4ysoTeCd7mVGz1aArOqzkbUTfULGhv9637qzcf5pg0RU7wOm4GPCs+Ftr74UHO4/7crbHdecMLfO/denL4Qt0jY/fsdcapb1MeIkfvMjyHJgt0KITJ6rwVrY2ZQOf5zTho5/c//7RUbi/vc5n+93D3m+Swisey/3DSy+Hb9LknxrqkAxSa9/6DJQ5MFnk4xgSvkUn0jwHjR7/UT61AUSmG1DxTwKTyZbyJXqe9LgBhev7b1z4Vnh54jM08fXs5IOJaHaywuoK3aZstBzsQGnjE1i01QhMB2jdMQynk8UA2fLeWnh79b2wutefa3vk9OLIfPj9y18Nn51+OQy7iS858PA7WWiqksbq4fOktNpnRqTFPgTyGBSeh47jkwOHp3g7ER5+2gnvb67wY7lpW6cDvM/T8v6PLt8IvzF/NczTQQBL/TQnKJc5MFnkmwnvkelE2o3/sr3cDqj4J0EqK/kaBv4lIZZPDbw7b3xwIkx35unIvBPW9pfd105jAM1g0YB8oKmsqlMZJGVCYQugXNaZTsqXujkfbcQ5wckIONvvf3BAB7/5MDs8FZ+j7w2S09FweXQubB3s0uDfCPvNWU/jKwdCEyLLVO76XOwHIJfV+XTCW13KA+W+SXTcvsxt1e6AKnD5fXFkgr8jj/sd/QAe0b00Osblpd2dsN28okvaLfqcU1Ku6eT9EFnKmx7hBPPB7Jyc44jlSHP+pfGR8NsLeM1dir5MegB3myeHpsLC6JXQOT8cFncfyrfQOBJNgAuaYEHKlgetNJ3wuS/A26qOIsrIR83/sTvG67BQ6gG/Y1CFz5XxSO2lEXw8NEpSrT89cCbCxL9IE3+Ecrq2vxU2D3FzS+LI+2O8bjFslDmHKhPqdXNZyhPIkch0y/0INR1Ayo2Mg5G63LYW+w4d5PAY7WWa+JPNkrw3SE6HaD+Nh9GBwfBkb5cOqvht/DIH2CwugfVPZbmO1LX6OiYHQO6/1CFKPqxN3YCUvjQ+SpN+mssefZv0ACb+2OA4nfEu0XXTLE/6jYO1+Cx1GlAatCLVAbXlrNqVNuZLaGMCWXPAAHK7vC6zJZQrDI0BiDpEcT2Pp/Rm6Ew/NzxDg7V8T9tpIGf8kbAwMkN+Jzkfq/v4Lj/O+hZHngOgkbkc5H0uc1D2D45EVuq2U6A7/xa76UIHb8jFyzUw4S+NTobh5iO33oCcYsIvjNABlTasIjD5cS+hLUYEmeeg0InU5IDLAXc011EeQFnlQFZuTlyA1rXt+3PhBp/pn/GkB/AV3OHzI2FuZCFcGb0Whs4Nh0e7D2ji43vSPrAySIFRmfCmKzpaD9Q7LKByY5/7dzsi8iJTSN3xlxRRh6mUd+kgh2/d4XHayQ5eg9WfJSkG6fDAEF2TTtGOXAgTQ2Ph4c4qf69fYmIt/msUoPIxOTBdK+f9k4GW69XbzPWMJ8RcFv6jrqDU2cHXmGni46uyl0bxMWZ/gJyODAzwx3gvT0yFKyNjNPH3uC2c9aOWkJYcCFKa9JnKDd+6H5RPZWIrlLdmwqe6x+2H5zbpASQUL4gYp+X+lbHrdF16jScw3jaDM6K8EkmCrwXNcq5wPJeVB5T3OgqS8SA7PilentgS6hNeAVkek7wpF2dhXubTknyUztD9WJIC8CNv0B0NV0fnw6enroWjI7S3FXBVKm+RtbY4tpiDhmcYLfqc6yQ50A16gMmMV2huIqKf9hjA13VQv76/z/3DxJ/q4EWi/YHkFG/QHQpXx8bDG5PTfDmxQcv9XTrY4Dv+tclW6weQ9JnKDc8OUPZ5yW2kXuDbJCQxKK3JUn/PddIrcKbDnefZ4QsUwKt0VF0IBzREMTkQsE5/gQWbTngA5ZxPO1jzU6NmA6Cc8/mOEJr6b084LmXWaOLPdqZp+TjLB4B+Qg6og2F6aJzOUBfDy+MXw/kwwO0ir5Td4kz19P5UdJqJCuR2mW5DAeg4PjlwpPSpMUCHlDD5Ng72+PP2y3QtPkJL834COcXkn6EDyit01r8xPkHLf/n4WW7S2qtSajECSZ8Rt/JsmOsoD6QysRUqyHmg1AFMJvyHMukVuJs9SmeoeVryvzz+Wrg8do2SOkqJHqI62YH7H8gXLOQMq50BXAIZUi6TD8RyM2BznVxX9QAtExUBQXQa1uvEskDLQvF67K3DHTozzfOLL/UpsH5ClqcdXvK/OnkpvETL/hm6pMAKC9eo5ygHfABI+iLI81Lk6QQT3myBTMdN+NS20maF+oM/rrc3Ka+Tg8N08hjjM3K/YUv+kfDG1FR4bWKSDt7DfLAZofYQ8x7FUfY55TVm6bSUy/4CuaySYxEQjtEhmEzluJE3En6nMunP0bKpcfs8gGPmwRGWTzthY3+dlm7rYWVvOSzvPQlre6sk2whbB1t0LYc3o8rDLtVOkhBy8YdfRzngt9TqKqLQd8kQmSYPcDosNN10Zz0l4dEWNliK/9r06+EfXfkmLR0X+nZ93wbkYI9ysHmwEx7vrIe1g23K62ZY3t2kS4Bt/thv+wjv66dc0aog7QcQ+0IVyCFuomGi4QcoDiFkQCfrs6NNrmIesKllaRd1CWmOhUqTqRwT/dOT8+GPr74aPjt9IXSewcT3QA7wcNA2bct7u+HhznZY2t3jm36re/u0osO7+jHurJe+X3LQ8zkApN76DGi5oks+TFa3AUQn9fOV2YnwX75+WUQOz33Se8j1/RHf/NqjAYkDwS4NWpRxd7r+hJt1HIFjirMf0sfdc7yaGq+xkoPJCu2sFTqYbNBKwn/GXSaSdwILvX8texurF5njmx0kMrzi+ivzb4bfu/iVcGFkhqTe9tkA+TikyYppjV+N2T6kvNLAxE1GPEtwdIhLAGgh0no8GBKkxpcMyCk+jsTz8Hhg5sneFn/9FQ/N7JF/QZkHJo1MeQBl08112JcoEkxXbXH9/Y25K+GPLr8Sro/jmQjz9ayAtvVAiAPmNl3zbx8c0onpiHOQzPkCOiYUT4v36f053p/x00OD4ZVxfbDL8KFOeg8ehhyKDEejXYAU1RKTH2d9fFyIAbtLKwZ8Cw7ffb+9eY9ffAHebibCjig3ZglLB6PTa5BO8HzCg+Ifvh//zYXP0zLry7TUT98k/DwgeY00So4F6xpgdUijGgdNHESwmsCz8fylmO2V8Kv1x+Hm5jLxu7L/WiY8UJ3gkQqINu3XdSSnw/xI7bcu3QhztBRXzecFy6nG+tEE8lI7KH5kJn0/ocMbBGWc97D8xYFg63CLDgAPwi9W3gnvb94J6webfHDwWehmcCZ8ZcIDkGGQztB1/R9d+Ub42tyb/IWajyOkfzLYARw05ZLikD9Lv7e9Gn68/CC8tbbYrAL8GVByqvlRHjBq+8DJIhUYne6MhD++8gqtoq6HKToInKF7vJCT/jjgIIDLCXzG/XDncXh77V06U92ha7UVuh7eIjl+Tw1oH3gJf8yE1zK+IvvK+JXwrctfCZ+evhHGmt+vezGAvuKSYpsOqos7m+GnKw/Cz9ce8YswcNcdKwOfj14mvB488Pfq2ET4j6++xl+bxc021TzD8fjETXoPuWbd52v+u7Tsv7lxO9ymVcCj7SW++378wEPh6RNeKT7BuD52MfwGLfW/NPdGGOdXXr94wLUvbv6t0vX/na3V8Mv1JboEWAoPdjb4Whi5SfNDfLwk8Dk7Pq9Sj5ujN8Ymw7fobP/VuYthNn6J5gzH4xM96RVIAb4ghBuIT3ZXw3sbd8JPVn4Vbm3epwEsT72xHv+lMhcw8PwAUx2VWZ3K8JgyPlb75vznwm/S5J+m8ot0xveQnH4QduigijP+OxtPwg+XH/IBYIvO/ALKYcylQGiT50jzPPv9gI8npzvD4Rtzl8PvX74Wro5OPJebex9nPJfP6T/qwOezOGvgM278kiy+1oqP2fBddnwSsM2/ZIOB5AeiUIHQ2oRPbWgS0OXD4901Ouvt8WfsY4O01H8BB6nk9FzAb8XjNdSXRyf5PfT4jbk16jsmvlzzp7k6yYRXHl/MeUwrC3yGPj88Qvuwc3bGPwZnkz4DBiseGpoemqCBeoGuv0fDOl3rbx7ge900xFqX9OngVJrr4syGa9wHO0/CCl1WXBqdDRN4XPcFHqToGz5TxxkZr67CL8su7+LjP/9C0UquIhU4ngsiR97B7h0ehXvbW2F5f4+fp0dbZxO/jrPl/TGQm35H4dHuk/CdR/8QfrT8dljf3w729IANPIEfZJVB6wYrgOv81yevhm9d+hI/S2+vx3qxgXspD7Y3w18+uhm+s3iHVlN7MacuV5EK2ie8wCiW9pdHx8M/u/ZK+MrcQhgfHGxqzyA4O9MfA1xvY9mPb7W9NH45dGhS4gsuO7Tc14mfD06lxaB1g1Ugv4m3TGf79zYeEneO2hkNo9TGi3zWB3AGxhL8xtg0v8ZqnZb7Gwf7fA/A50xpLce1CQ897Bd8Qef9zXVeUeFhnjGa+PxoMuud4WzSdwFMyGGajPhZ6dnOJN/c26Azfv6ddqXpIKUBeszdadCdw73w7sYDOuNt0/XveJika+B+vSnmowrJ6WC4SEt93HXHpMcDPnjqTTV8nhhFHgEp5wcBPDp7c3MzPNrZ5ufp8WUa/Iqtt/yk4mzSnwB4nh6P016lyY8HU5bxCqsje09A9eyTDFTZ0oOC8DjLLe6uhvfprI/n56dodfGi3uRToGe41r8wMsZnffR1cXebH2+1/BA4h8KnOZatLsOXuD6gSzO8a28jrOztUU6HwiSd+T/p1/pnk/6EwHIf32mfH5nmCY/lOR5NlcEGGG1OWl4WqSDlcTcbE/7e9pNwe3uJ/B+FOVpZ4HfZ1OJFBFY1eEMtPm5DLh7sbNFqKr67rjrhAZE3KW7q0pyivH5wEO5ubYVfrq/zd+Vnh4fDGJ39X/TLqDac3cg7JZA2TNC/evTD8O3FH9PSdJOkbuA1WdXBZ3VK0wGregCe4cMd7064PDIbvjL/avji7MthYXjqhT5LIadrtMT/zuP74d88vBUe0ES1vPh+S77S/FVyTApehhK+i78wPBI+PzMbfuvCQrgxPk4H1Wf7bb2PGs4mfY/Al1D+33vfDd9+/JOwvi+DVDKqgw1Izz41XsGDtLkkAFA+F4ZosL46vhB+Z+HN8Nrk5TAxhGvUF3MFgK+r/t3Sg/An994Pt2lpXry+iqgNWpGVE74t54AcALDCwAszfvPChfDVublwgVYAuNw4ryYvKM4mfR+wurcZ/vzB98P3nvyCb8bZdTxwwgnPBaHFQI706thc+MrsK+FTNPmnO2N0uYEXPXReqJt/eD31nz+8Hf7y0b3whMo+F37yKk1y2kx4QGRtuVQ5zv5fnZ0NX5iZCZdGR+lyY5A/7nsRb/6dTfo+AJ/nL+2u0cT/Qfj+0i/pulEfOunnhC9leFnm1dEZOlsthGtjs2F+eJIGaocG7CgfCPA0nFl/vIBheXd7M/zp/ffDdx8/okspfW4/z8vTJ3yhw4As5bEN0yS/SpP+pbEx3i6NjYbZoU6YGMQr3gfjx3+yUvi4outJf3vzZsBLLgRtXTZ5V04LP09PZe4X74fDMnfo3BA/Njs+NEaDXX5Q83nuGqTx/vaT8Gf3vxd+svJ+wOO26UCrDTLtD5Xd6qB9YAOQlQObFqVhFBN+cJQG5yif+fHx33RnlAbsML/zDUtXrAZwM9JaAxxHA3rw3ADp4q3Gg/x5OvzK8+zPd7DjyzuY+P/6Dk38pYfxrj4gseQ5sAnvo8xlQltzzH8gEx43/PiuP20TOPvTZRZWARM0+XEAGB44z7kawoFA77c0PgQQ460/Q3TdgIMKDh5zHVlF4FLCNJ8Pup70/+u7/1N4uPOQSlDXMCkxWQclmTnv4flYLnaW8kCbL9Ol1FFiz/Nv6eH76vPDs3TmuxSuj10JF0bm+CCAHfKshyw+xvvZ6s3wb+//INzcfBT2P7BBmvcPaGQnmvAVnZbBjgmOO/+YxNj4JiBPeLNP7IjhLJEetM7zQKVBTweN62PT4bXJeVpVzPDPP7MrtXuGwEeZb6+thP/j9ruU2ydJ39PY6zlIZULLcRT1+E+uY7qQ4d8gzdRBjDeetPIUoP6T9oDUnvPJujhInON37l0ZHw6fnRwLb0yOhisjneiP1Z8pup70/+Nb/324v3U36dTTJjzrRCoQmsjigM+T3LpjGE6nEao+nfsxyOkshbvfOAB8euqV8ObU63StNk+D+Nl+Tos3zHz70U/CXzz8MX+xBh/DpXFb2xa/yPIcgFb7zIi0GexAbpfq5jlN+Jb9AOCAipziLjdeTPnGxFz44szl8DodBPAyCzlbOV99Bl5R9e3FB+H/unOTz/wSOxDb7CEHpkc4JgelrOKfBLmsHgOAtxrjS15yAHhpbDj8zoXp8LU5vOabDtQkV6t+o+tJ/z/QpH+wdY8Chjp1hq3aOgdoB3MdADLaSJDa5TaA6Ka2UYeFppvuGNUDsKzqhJfHr4avzX8+fGrqZVpijfFAfhbAizj+5N7fh+8s/iys8/W9j0sg8Wd8A5Rb+syItBikQL4v6vsmsXnqYM95eV4BX5z59bnr4auzl8PFUbw2evCZHVDxdp4/vXc7/NmDu2Flf89ibSa8b7fMAZD0mcuqRzhBDszO6ZLAZCI/PgalUUbtQ4Kl/6/PT4Q/vDwdXh4boZzSAbfPB4CuH875u6W/4bfXIlg7TPgO+LCk7DvYmKgsJtnschsA5ZzXJHGR4GQMoz7p+L780t5qeHf9Tni0s8yDdoyufzt0rdvvYyqe3JvrTIQH1M6T3fR9fEAea63Peb6K/jWDFLC6nE8pAB3Ht+wHoD1OaWeTJuKv1p+En68+Dpv7B3TtjzveQzRI83sGvQPLYnxzDs/pP9zZ4aftEESRlxib54Gkz1x2OX7qhAeMFv4lFClHWo8BQFnl6t/4XVoavruxG767tBke7u7zPQPcRBwialq94cSTvjbhy4TWO+htgNqOMBjvE8g2lRhSqr6N1/IeTf5HO0/Cva1F/ox9lJareK4eg6qfk3+crnsR5z1qa+sQZyZB0+dioAG5rM6Ls3JgpTxQ7ptEx0343LZos6AEssddCzw3/97mCi291/kewMRgh5+r7+dZH/cZsJLAPsITe/gK7VHlgNVNDkyP0OwHQOoUtRyk/omSIJcVOoRj/Rf7QSb/rU18J4NWilQ93xmg1arcP+gVJ5r063sbkUPDmkwfhO+w6iiI587VkqK+FF4PkDq7pNDNJc7RNC4pN7LoY+NgO9zdekTbIn/hZWxgJIzQAQArgH4Bb8nBq6Mebq8Sxd18tB/jIKSxy5bLUp5A8Td9ibJCh6jpAFJuZE0eS1vJedRr0QHNv1OAO+34fvy7Gyu0utnmSY8bgLg5pZq9AgMeP2aJF3A82NkO24f2jH4tRmyp3PFFDnTrMgfUf9EDTNdsjbb6L2IAVE8OqKv7R+FXdOZ/jzb0/8JI788OdD3pv/sYZ3qd9L4jirLDSVKaQQKYDlDrcGJLyBMnOlbWLY8BMD3AdHCDaJUOZPe2H/NjtFjuTw7177fQcc8AX5fF8/lLtB3Iq2IYaexC630GIuWBhrKX52XPG81zAOT+zbfKKzEQTQ++gMQOXbzF5tHuVriztU6rqqOwMDzKj76ax96AAY/Lp8e7O7ThW3n1GAGTA5o7QhN/aSu8bopUxya81/Myo6V/gMo8H9I6T0UPOMdn/Yc7h+H9rb2wsn8Yro8O0aoH3x2IKifEqSa9JUZR77CAylwpsnqSAaO+wwDrNELIVBfI7YwHzD+hsrPwiCfOwou7K/wYLX+1lc7Q+IirV2BJis/LccS+tfGYf2UG6LrPjEib2AHIVA9IdZM+UznPAZPMxijQVke+uMFUN48BH1XiF2Fub8rEf2lMfmYa+egV8DE9NMRn+ztbm2GT6Ily4OLPc1DzI7ZCGckYUpQ5AMocA1R2MYDmtsIDJsMYWqez/t0tfAX5MFweGaKxSmf8U+T0BKc0OEdAQg3Kq0yCbjoSj2giMx3AeEXZYdZhIXjZEv9OJmVD4r8y4X09ru9/uvp++L/vfjv8bOU9fkV2P4Cz/SvjF8ONiQW+aZjnwGIH8rgijRNVeC1DD1CZ5sXqReb4YyZ8LTcmE9rNhFcKOe6y/8XD2+H/vPsOf2XWfh6rN+CS4Uszc+FT+JVZXpWl7bfmoInfyRoKSJ3Jyv6V/a3JajmOsjgfBG3+gVIHdI0m/l882gz/6uaTcJOu+d3isWucYh2rwQBS9oGWQSusE0C+Y1J9p5N1quZfZKl94j+Z8ILUrclvbT6kgfoP4a21232b+Li2vzF2IYw3P12t7ZX5KgZLM1E9yv4IPF/mQJDT3HclBqLdTnjzJTy+yvrdxw/Cn967ya/IwrV/P4Bn5V+fmORrfIG2n8bYxOfiz2MEUjug0r9K6IUOod2/8SjntqVdphP34fbhB+GHK7vhT+9vhFu05LcXj3SHE53py4RqZ4Cyrl0n11U9QMtEm76ofkmTpDCycjHhS16pym/SxP/24k+YyksyegMuFV4avxBmO3g9s6W86V6MochTMuHLOAWqozygOhFuwqe2lTYLSkicAcfocll4mGFbpTP+3z95xJN/dc8+yegFWNa+PjkZLo2MNq3nOcDGbfEfjUl1TLeWA4nRyUmQywodgslU7vxLJSHbPwTjzV/iPxkLOOMf8hn/z2jiP97V3xTsDqc40wMSkE+W8FLmDZONBHlCwWvgqpvaRhsWSD1gdirzvFLIZONK2rjMG1D6EKS+sAx9Z/1e+N7jt8LizirVSW0vuDo6SwN0JuB7AtKetV3yhHiw8vGjnMdvOoDKYj1XmsxsY5XqNbJUh+1iHKYnfNqm2qqO+OdyHAe4s/+3Sw/DD5Yf8YM2/cBLY7SCwvfhKadpPLJxDPxHea8jsJhFJv0AnC4JTCZboUMofUUZ9gHvB+FLX1KXypQnENP4UhlRXNv/u4cy8bcPcNXfHU61vE8CanggBtUITAewzgGim9pGHRaabpkUbcJ0gNy/+QbyuBWV/pAAv/T6zsb98Kv1u80NuF6Apf0rdF2PL8PYzRehFmeUJxNNkdoYUr7McenffJtumuNIG0OvB6S6uW2jEwc6gF/Bxefr33uySEvSdeK7H6RtGB7AT1dPhQsj+a8F+X3vYwIsJonbeCs7SoZNfyJSXmg3OfA+BGWcQOKfmFqc0IF8hSb7tx9vhe8ubXd96XSi5b02ZkgDYUQFS4Ig5XNfUsc6RdxqZ/aiYrz4cnwxaUpeaaEX2wfB12XfWr1N16JP6LrpZEuoHJjon5q8wl9/xReEtE2LO1JqOIbgUI8/z2meAyaZjcCXgVyHaBOHyeoxKDwv9gap28fTZutr4YfLS3yt3w+8PjERrtESX78FiK1pusmBQnggzR1Q6R8JclmhQ6j557JVEFxcrJfzQhP/zHifgOkCuJF3f/sg/NXiFh1Uu8vpqc70uiEmC5K2ONnSgQaZ8oDKFFLHD3uwUOoB2Jl/oSkPZP77MOFVhhskv9y4F/5h+d2wvLtB+o3CqXBxdIqWpBf4Lj6Q5onA7lHWDaj3J89pngMmzkYhMt2EL/yToNam54HSF0Blbt/i9LZrtLTHpP/56nI4aL4qe3pMdzp8bT/NN/S0LUKSA90kxlyW2DFITgKLWzbjjZa+ACqzssq8rWzCAzUdQrQ3/4BQkQFCcTB9Z2MvfIfO+PLA0vHoetIjBt9YEXQjUB2B2QAo5zzpmLMGecdARS21T/yfesL7GEQmfs/R0n4v/HTlZnh77U7YoXIvwJ37N6evhkla6hf94/Y1LkV7/AboOD4OdoPxiR6hiIFongfxL1Qg1OL0vOooUl7bw+frf/P4IZ2htpyf02GQzvBvTE6Ei7TEZ+9w2HLQa4sx6QvGEAly3ZT3/gCvV+bL9ICsvUgTG2YgM79aV+4zedf/k73D8L2lnfDWmv5wSDtOuLz3FIjlapJ1A1Led1BspJzreZokJdEBqFyd8F7Py4Uq5JHSmq4AN/N+tnI7PN5dj7anxyvjF8LcsD71F9uJ7VtcOW80z3EST9wPIpd6gfJSrlPkAX/BH69rvpUHok7LWLA4z8mN0o218KOVJb530gvwmT1eb3WFNjwAZDH59n3MgFGLXbaUB7zMaJ4DoGkz2Q9CzU5R0yEkY0GhtmpTYo/O9jc392lVuhM294+f9idc3kswTZAIkDaRaUAWYB54YktgGxaAly3VMZmUjYp/KkcDad90xAaoyR0fkyyQcu4LT+29vX4vvLN+P+wd9nbnGW+heWl8IeBVV4wkf9Jm7BJBZV4HUL1Yz5WqJ7peJ/WVy4TW86BtAOBlUx5o/MA+6QugOqC6Cb+6tx9+vrYSbtNZX3ycHni7zfWxsTAxhJy2xQikMTSxR2oHPaWlDlDzz7KYA5FV/LuybolOkj/TNRng61KsHxyFX6ztUk73j31o50RnevNDjcbOCXxAPkAA5cyWwDosVN1cR/UA1RHk/s0OUD61KeXEs6A73/im3DvrD8ISne17xSvj8wE/X6U7OY3B4qvLBWWONVdAnQfMzmg9D4DTiSWByBudrsZCSnG/5M7mFuV0jc72vd0kxV38K7S8nxzEx6EKbQ9AOeczmnaQkecAyPvTTQ5Azb3pJf5bxkIthjZgBfVo5yD8an2PH+BpwwnP9EDacJkEX49y2WHWaY3J7OtJcHyRqLYkVfRY4HyxTs4LVdzaWgz4jnyvHzddGZkJY+eHqeTbA8o2gTIux8fBZrJUN0Wu05YHoYK6j0ZHChGpTRmT+QbFTT38+szirv/12pMD1/WznU7Ae+zk67zano9BUekfCXJZoUMQGaByQOwNaqvwfIv/Zhx7mG5K2wEfy/uHtILa5Yd32tD1pLcgaYtB5js1TbDoWmecDgulHoAs8Z/wCsgcX5nwbTTXk4Hukfmu2ADrB9vh1uZjfs11L5jojPJ1Pb4t5tuwNmUDX8bl+GMmvMh0E767PAgVmK2UlQeozO2rrG7raVJPtjuHR+HO1lZ4sL3V8+O5eF31HE18ua4X5HEXMYCSwGSyFTqE0leUuRyA1n0BNR1C3IeqLxAqbQJKn44dOsPj2h5L/LbvOpz8TN/4aQsQQDnno04WR61jSVIYSJTjKVGpjtDSV65HOpX405BKXoGPmO5uLfHvyqc6JwO+aHpheDIMNd/kK+MUeB46jk8Gi6c+D4JaXqwDJktjUKoQvhZn3l67r0ipEvWY6Hgs99HODn8ltxfgRypxTY93ywFdxRTjMFnOCxUZ4PVQNh5l0wM8b/4S/1EhjVXK5T7rHjjLv7uxx1/JraH7Se+OaGVAPjCvB2iZaBOD6pc0SQojK/c04Z+mozwAmbOlMq5DH+9uhOW9zXB4dPpBitdJzbszfdln3x/Ax0Vw/Sj62JTbKIGMUrt2XfEnfGJTPehU9BqZ8r58LmzR2R7fi8dXZXvByMB5vqbHW2prOShiquSgHjeAsspd/FJJ8PvH2wFql/lnxtsBaqs2p8PGwRGf7XdbrutPdKbHWTJPKHhzDZnwInOdYIHUA2YnvNp5XmSycSVtXOYNEGoy4wvf1QlvNsILtU2bpTLsidk+2A2L26thu4dv4OHjull8Z58mfRFn3JRXGZc5GKkTPUB5kakNkOuAIg8mk81sAW+rOuKfy5wHrwMIL75Q9rzoKexTApHhDL+0i9+n1+/Fnw64mYeXSnb4XXLmvxYjBCYz3ZxaX1QeZa05kM3662XKE5hRPdOFuLQ9OXCGf7R7EJb26gfSE0z6MggLEJB66Rwgdbycjp1UpB0TKnamA+T+zTcgdakMqPhulJysKQN5+0IbWdzBAH5NdXF3vafn8TEs8SMU+uUbQU4FZY69THkAZdOt5rjIg7cVCr7Vv8tD1X+kAOoT38TYgVchn9mv7u/TJVP7NWg3gGdc16dv5M3ao/bRRBIXAXzZ55yPsiRE1VFonwGrS9ojRnLjbbNcJXWnA164cW+rx0mfdsYHLbzIFFJnR3WF542WHc6Sgp3FhdRWdHQDSj0ZR7mOloG6bwGVpZIBO/ws9creFp2hTv95PZ7DHxnAK4/Su815TvMcMEl0lDo9RqlTz4NQQT0PjSzLg6BuW9Tz/qvbQI6frFqha/teH8vF5/XyGim04WOiLRlDaQyeB8pYASqzstWl/pQHajqEJA8K001pb8ASH8/k13CqM33bDhTUdGSDTj1RXtfbEo6d8IDRXM8GugI6OS9UYHWsxxNNZGqHeyNY2uOFl13+ZEAVeKMOJj6+fAMvaVwZz3F4mVGL33TyPtXzIFRQp41OzAP442Oo0Gb/ASLLY8QSH2/UPenLIHJgaY8NK6kkpuoYqsdd9i/K3Fio2VrkLTpxHwrvy/U2ewWewcejuTWc6JoesAAVnnedsCwQaklRFeWdraK6s7yO0VSPdFhgvOko6r6BvI95e3ihJs748j770wFn+OH4c1u+bYnL8clgSWneejUvrXlIdXPbVEeR6oDmvhK+2X9AaavAI6S4odfL8h7g35SjTVxbO7W+5HEDZayaF2/b1mcgl0U+7sNkv8Zyuc/6A3wJZ7PlO/YnnPR50Bo4oGWiTRa8PqB8fUcY4KNMLlAmqfRVu6zIfdV8A43/YkeZDiY93qnXy2fLmPR4Rzx+Nc6gcUXEGMp4EZcij8/psJLxbbp5H5O2jslDGlMWY7P/gBYdxjnK5RE/ldfrZ/V4Xx42+/0CooXLPAahJlO563Pjo7v9kOg0+fNQmfnpN3DjHhO/hhMt79MOCi8y1wkWSD0AmenI5m1MJhtX0iYJ8TpeZvLcV+1mUe6rbF+bpTLsWwe6+MLgxFN5vXzVFu/Xx408PtGzfxcnB2MyH28TZ7MJ73XYLsmD6JotYLYC5QEqd5GHlBfKIDvjW3RiHfzg12rwoE7Pk/68/LBkc/ee3KVx1GLQ/ukmNizLcpDbip2UdUt0Yh7MP+BlgK/rLySWEl1PenMgQaZ87AQLrQO1jomd6QCmB3jfgNqlNqancuIbQydrykDdt4DKcQcDaexC1RZ1XE6dnQgYmv6bdnmcgLn3PMqmW4vTDL0ekOrmto1OV3lo4YkR3qO0AdQ3TkhY2pd2JwNWT3RJL16bOLTNnE9jMB6gssuB9yGwseDrEv/EpO0B9Tw8b5zgTA8gyLLDnDgTRpQdqyfB8fHImNt2NfCa9r2OlgG1ASC3ujz+1A7IbfsFiSPPAZNG5tvzZSDXIUqBSqwmy3kg70+jYxWE1Ab0eN8wf7oNUOa4H4BP2Y6PU6jIAJUDVLYKgtoC0Mt5oYl/YmpjqE6fP060vMeWd5g7x0KpByBLklDwAGSOb53wijZfxDdKXkfLgNoAkFud6QnN7UrbfsP5PGbCi0w34Wt5KGSRCsxWysoDVOb2VVbxH6kg58kmxn+cDWD9A1D2fI/AOOJG1e9xMegmYJnLAajZyiY8UNMhZG0LhFq/lX44OOGkV8ROIEGWBUbZsTzpAGSOx47iQmpb7pjSV33Ce3je+3KxxsGaxMR2ua3oqDxtp0fEGAzGp3F53mh7HnJdhfCpjqDWXu4r4Yl5+oQXpL5Rruv1BvOVxw2IDPBt5u1rXArPm7/EPzMol37LffbhoetJj/74DtogA/IOWceSpDCycmXCS1vGA+XAQwypjtqWPACZyBP/rRPeo6bTR7gJL23kPNBGSacJ9nhd67fxjU6RB9GzPJg8tctthCY6DMhSvq7XL+S+hZrM2kRcLHfjSfQAbwfkOpFnRmSlrdp8NHCKa3rtRLo1ictkUga8HpVjdnKd3IegpDLhU51ufDUy2LcMdK+v5bpOHxD7Af8+/pT3MkB4tkvyIBt0xBYQP6UvgMoxD7kNUNqInvJi9xSdWGe+AeFZTxruM46LQTdtmsoxByLztrJZ7F6mPCHmwfwDolPafvg48fKeO8E9ts5IAgDrWJKURqY84O2APGkK1TNfds2mUFtFaWOgsms43SlCrVpkOc9wPk4PaatsL4+pJU42NB1AfDmdWBKIvNGJA11gNkDeXtE+D/QcmU5hC8BOfeAPyrr1B3kOAIvV81Q+JgeguR2Q+G/ykPpJZb7uw0fXk14eF6XgLQuEtKOKMgmQOb5IlBsIDC8XKiCeBaluOaiECqzO4heZ2RkVW6BFB4MkDhStOS3wsZ1vux25TlsehArqeWhk1tGij7W8JLTZf4DV1dtTHkA58qysOpHtEfJV+rw97zurSxptyx+QyyKf5EFhuin96KDrST90Lr7IkTshHUGHLQmyJUlhQOb46oT3yOWOZ8Exvpn3sLpuBrbZtujEyQ7YU1+nA+zxOb3/GiggbZoMfHd5ECqo00aH+6GyXCflQRPfPU541uM/XkfLvQHPN+JHL/yjzeZfeIBlLgegefwWS4tOMxZAfVnbBJR+tND1pB85P0xdsE7UOpYmDkCiHN8MGLPNeaW5LxnoHqqj8DzsnK2W445qjx1o0Wls+4PmMVx5JI+R5IpQxkm0NQ+5rkL4VEeQ+6+252mz/wCrO943gHJpm/e3V+CJPDx7r+O0jFXb9O36uIAu+liMIyCX+bqPFrqe9BND49SNvENGk6QwsnJPE/5pOsoDkDlbLRc7qqITaaHT2AJa1xvwvvaxwQ5PfqCMK6cECiDvd52qP+ETm0ougbb2G3nTNmA6aTwAZClveoTW/SB6vQAv0sAbdJBTi8t8+r4I8nHTRR+jgukBaqs2H210Pelnh6fpr1zXWxJkS5LSyGTjStokIaaT+xCUvuoTvs3G5NIslWFfDDSF+pJyyRPItvGV1/UAPCM+OTTMS3zzLX7B1/KQ99PiAryt6oAHqJzlwfvKfYhM9BTmM9XxvMiUB1QWUewHr9s7cKafGBzgb9v5y6amL8fkQOKUulSmPIEYsdN6QHRK248uup70F0cvuKWodSpJSoQlANDEAZBniWyQy4lvDJ2sKQPeNyB1jR9Xmdultt4OiLokaHw1yNs8HXjSDw7zzywff9lEtGnQ6wGpbm7b6MSBDqQ6ZQ5M5mycvSDXEXpsjpvJpjDd1O70gJfZzlAYp4nvL5u4JulD3l69LukjMyinurU8fNTR9aS/NHIhjA6MUklNysEhMsdTok1H5LUkwSaXn2zCQ57WSaXIjh2MhU6kpJDaAXmcpwcGJV6ZNdUZoeWo5TSnyEPaZh6D8CIDRN7oWAUVzUbtBGqT+Samm0srIM9x4wt/kgmPsvFiZ7JecWmkE2bw/vumDaLScETeb+EtNqEJT4zlRmG6Kf3oo+tJPzE4Hq6MXmzujOZJEpl1XJajIlc944F2anennawpA759r6dtAEJTXjbbeTUdAg/Sciv73BumaHk/PzzGb8dFDLn/eh6ECjw1vUYn9gO89NE20QHAV2iz/wChtRgB0wOcHSt7Hd08319g0s8ND/FdfG6j2ZeAj1+2Wh6SPhZjARBq/Vb68UDXk35oYDC8PHGNDOT1Tq0JoEo5O7TUM6wu9QVb/E11RUeR2zhbLXP7vk2vo2jRaWwVns90e8TEYCfMd8bi++/h0/y35yGNIY8/1fF8LgPMNrGjHNR0Uioo92vk2YGU6zEqnE0fMDmEn7jq8HvwU79l/mp9THSKcQTkMl/38UDXk75zfijcGL9K10tjxLV0mAcLZGl9LWmg6U4gPU5yqlvfUcYrmjaKHVXRibTQaWwBrct5k/eKDh1Ir41N8Q09vYsP1CZ8jZb9AaiMQrIvVK+0AU36x3aKFh2G+legHPX4j9SV7QGlzNrsDTjDf3pqNMzRtb05LeO39iyWRCcZCwqVmZ+PI7qe9LjZdHFkLlwfu8xlnwBOQjNYNCFarzAb0Fy3PuGPtwEg0/ZtR6U6YpvKCp0Yv28TZWtTtjSG3gAvL4/PhovDE3xjj/0nebA2fbw5D3BcTQ6gk9a3y4QyYg6Eb9GJdeYLUBmB/0hd2Z7KdAPUl+n0ilcnRsO10Q7fzYfvPP40LtkSncpYUJ3S9uOHric9MDk0EV6buhEG4/vamwQkg8VoKlOUuvWlbM57pHW+Mt0pQq1aZIVOET/gdWry/uACXdO/MjHDr8P2/VCkcdUp68TJLlCqKHNgssg3OfDI8yI03zemB+Q6ppvaAbU2e8fk4ED4DJ3tp4f8r9gCZZxA0seWsZDK8n58vHCiSY8l/iu0xJ8bnrHkPXXC6waUujLhPaCj9YC38b7iIHKD/fhBletEyvaAt83jhF3Nf+/onB8IX5i5xNf2chff4kljEJrHzzpZDtI+lzkwWeSTfdiiE2maA9Fv/MdcFjkmiEw3IPffP+AZ/M/PjNOqFM9BWLtNnG0xEFPGZLop/fjiRJMeuDxygSb+NVo64czUNjCAPDmlrk14J2vKgNoorC7Vy3mUva3UFYOxGaQelTgjVYBPbXrDjfFpOjNd4M/sBWUMgI9fYgCvm68HRG5xal3mmxjTUTytfQBl5/+pE96j7r+fuEzLe0x8fG6fxOnaTGJgBmUfi5Rrffo448STfnRwJHxu5vUwOzTZfHwn0AQBeZLynUx6zV7IdRT5jnK2Wi4GGqAyRa4TaVQQYnU5n1IAZd36A5ztvz5/NSyMyNm+HoMiH6w1PSnHLhJyHdMtB3S5r4Ayx27/FAdP0326f9PtJ4bpdP9lmvSvT47wD2AIWmJgBjIfi5TL+D/+OPGkB16ffCl8dvo1WjrZTy0DlkjdJGn5TpabVVJmPm6JTqS2iX/Wg30x4UFly2UpTyBHkIlcZMIDptu0xxBdb9NP3BifCr9OE39yqEPeyxi03SZGrvD1Ud7omQ/lVZdBjN00FFnqR2m7L/6T7AfdYlUhy/wjfhJwHNFPv4Bl/UvjnfCNufFwZQSf2+ulUx6DxuXbFx2T9Te2DxunmvRjAyPha/OfC9dGLxInCcl3sEDLRu2mXU0PyHZKpI3MDY5yp6gt4O2AqIOBxmVvm5fbYlC+/8A37r42dyW8Sct8lNMYspi4oLGUNO9zztdyUMslkPe54V0Mua35VjmQ6kgMQCbvI/Dlmy/OjIUv0IbP74GkzSIPwLOP68PGqSY9cGVsIfzOxa/wTzPlA0NQJs8mvEKTrjgu4VSWSkY+0MwWEFmh0ww0heoBKKs+kNomcaZO+gYs73G2XxgZd5dO2j5AZS6oTKjyoBZai06RA49UN+kzlRv+mBjqvrVNtc/4ZwR4X6Cz/NfobH+VrvEH/eVoNYZc5uteHJx60g/S0v7zs6+H31j4Iv/OuiTIkpUnr5cJz3q0k1SWDzSzBVp02B4A1TL0AJOBT+PK+GMnTW/AGf7TU3PhNy9cCzNDI9SqxcTxcUHaP20OGl9Ox2RG0xxAJ/IxhkTWUEDqTFb6L9tTWf+Bif6ZqRE6mI6H+eFBGvDUXsuEr9MXD6ee9MDIwHD47YtfCl+a/TSVO1Fa2cksSBNcDiqhAqtL9Txv1AaMyAqdOOFND8jb1HrjRcfxzYFDdFN//QGezvvm/JXw+ekLYXxwKLau7bZTi6VFp3qwquvm+8Z84I/qKEw331eoEz2VEy2DqIn6Cnxu/9sXJsI3aOJP8TIf8fhYpVyOrRcTPU16YH54Ovz+pa+Ez06/QmeqwWwnUyJZkCY43cmVgRHR7IRm0tZ0FC06yYS3unqbSgHoOL6Z8KBer7+A5wu0zP+9Sy+Fz89cCKM68ZP2PdW+AS06yYS3ujQHgqTPXI56/Efq6vshl1VyTIJclvLPDpdpmf+PLk+Fr86Ohokh/Q4eIKVan15U9DzpcVf0Gl3f/+7FL4c3eeLbu/TsLj2AMnayUEFlYBAgYz3YRx/1QeVlOU+Ig923ibK1KZvpACqLPFeaTGyfLXDn+bWJmfAfXHk5fH3ucvP5fRq70Dxukbn+xBxYPVD6EVnKi4zAf2o6ApHpVo8TApPJVug05f4Dl/OvjHfCf3R1OvwmnfFnOvKde8RQ69OLjJ4nPYCP7l4evxx+j5b6X559IwzTUl/O8IAl0pIL1Ha6GxhxsgOpHaC2gLcDom4y2BVaLv152rTHDlAu23vWwLveXsfEv3wj/MaFy3TGP80jpRnPaMu71wG6yDFB7Lytlh2txFGL4VkDB9NPTQ6Hf3J1Kvz+xUm5xsfRgPF8YvgooC+THsDNvFcmroY/uPzV8NsLn+dHdv1OrU94RVrnK3O71FbqTCdSUkj9A90N9rI976tu86yAL+G8ND4Z/vjKK+F3F66Fabre1y875TGZLPLElHF2kwOUnf948C3b69I/xxHLkRY6zxH4Es6rE53wj69M0sSfyCb+JwN9m/QAlqFXR+f5jP9Prv96uDZ6ge/ypzvW73TdBDyI4lK64RuIXGyBXCdSVhDdRka0NvBy/wnfDHaz+TCAiX9tbCL88dWXw3/60mt8EMAqQGCxJf0jRuLWTfg8B0CeA2yiR0hyoBv4UpbYMUjOccRy3Iw3arE9H2DiXx8bDP+EJv4/vzEdPjvVCeOD/jr/xUZfJz2Ax0jnhqfCb174tfAfXf9m+NLcG2G2M9k8EVUMDAJk6eDLeZS9rdqpTqSsULYhfKbbUAA6jj9mwudxPg9gWXppZCz8zsKV8J/deINWUlfC5ZFxfqOuxA7EuIjJYyz7ITTVkxywL/xpyUGaS4XGAFAd2eLyLtdNee8PyH0+WyCnl0cHw7cujod/8eps+EeXx+kSdSiMDrz4k3/gXxJiua/Anfx5mvyXR+fC1NA47dNz4fDoKOweHlQGTixXB1pNVvJi6ydAzhvN/Sc6MYbcRvSkPDk0wl+QuTw6GSfe8wGe0V8YHg0v0Zl/fngkHFA+944+CPtEj6CAyVaJO6WA1wNQjjwnQ8q5L+FTGWh7zms6RtUfThSvTozwF2TwUsvniQ6d9S8MD1BOO7RKHeKl/i7GKeX1UIL+2AIHsd+lg1qOZzbpAZzdJwdHw8LIDC2n5plODI7wANg7OggHfLePdnycsEBt0KaynCfwYAekHshtsB038KRS9Wo6gNTjs/TPTC0890kP4Aw1MTQULo6Mhhs0+a+OjYe5jjzIs0kHVBmotbiVHpPPY3MASJ3JUh3Q9CNa0TVbo94WE+3DmvQA2h8fOk+rp8FwgybKFVoBzPHd/RA2Do5onEbFjxnaJv25Dwix/ExxRM3sHO6F1f3N8HB7JTzYWQl3t56Ee9tPwuOddTpbHdYHUSzVBgsjmfAKLzO52QLQcXw88Dy1PcKV0anwn15/M3x59ir/wMKHBeR0l/K2urdPudwMd7e3wu3NzfD+5gbld4cOrDj/p/G35oA7nuuYrsiMF1uhAqIkyGWFDiH3jwPZH16aDf/5ywu0ktGPfD8cYDZsHx6Flf1DyuV+eH+LNqK3NvfCva2DsEMrgI8LfndhLPy3v7YQOcNzm/SKow9w5DykA8B+WN/fDit7m+ERTfoHdCBY2l2nZG/R0XWXDxAY0BJefbDYhAesTmSprtkCbrADPOFL/+bHdKFzlc7w/8n1z4avzF75UCe9ApMfS3xM8pX9PcrjblikSX9vZyvc3dwJT4hfP9invB6E/SZh0i9m+Y/2Wfua9llgtMgxCXJZoUMwmcplRfgHl2bCP/8ITHoF5vY+/dmhnC7vHVFOD2iMHoRbdBB4uHMQHu8ekvwwbNJKAJcCH0V8ZCa9BwYrrkZxlt8+2KMj7B4v+8Ef0MHhkLZ20KA6NnIbVCV0QNZwvB0wPDBIS8EJfoX1R+3jHs4pbbh0wnJ/c5/OToeHclCgfFrOjssBcNr8Ae22YpfW49LkwjA++enQNfbzvVzqBpjTfGClDcv9LVrv79BqAGf9A9o+qtf+uER5Y1Ifjzd8qJP+DGc4w/PHR++weoYznOGZ4mzSn+EMnzCcTfoznOEThrNJf4YzfKIQwv8P51QS/+EiwYEAAAAASUVORK5CYII=;" vertex="1" parent="1">
          <mxGeometry x="273.5" y="410.34000000000003" width="43" height="42.32" as="geometry" />
        </mxCell>
        <mxCell id="o6JNWIDiicLb6SiJitLu-43" value="CDC" style="text;html=1;align=center;verticalAlign=middle;resizable=0;points=[];autosize=1;strokeColor=none;fillColor=none;" vertex="1" parent="1">
          <mxGeometry x="163" y="290" width="50" height="30" as="geometry" />
        </mxCell>
        <mxCell id="o6JNWIDiicLb6SiJitLu-47" value="CDC" style="text;html=1;align=center;verticalAlign=middle;resizable=0;points=[];autosize=1;strokeColor=none;fillColor=none;" vertex="1" parent="1">
          <mxGeometry x="163" y="397.5" width="50" height="30" as="geometry" />
        </mxCell>
        <mxCell id="o6JNWIDiicLb6SiJitLu-48" value="CDC" style="text;html=1;align=center;verticalAlign=middle;resizable=0;points=[];autosize=1;strokeColor=none;fillColor=none;" vertex="1" parent="1">
          <mxGeometry x="163" y="516" width="50" height="30" as="geometry" />
        </mxCell>
      </root>
    </mxGraphModel>
  </diagram>
</mxfile>
